<svg width="25" height="24" viewBox="0 0 25 24" fill="none" xmlns="http://www.w3.org/2000/svg">
<path d="M2.5 1C1.94772 1 1.5 1.44772 1.5 2C1.5 2.55228 1.94772 3 2.5 3H3.12169C3.53663 3 3.90847 3.25625 4.05618 3.644L7.3539 12.3005L6.15571 13.6984C5.0437 14.9958 5.96551 17 7.67422 17H20.5C21.0523 17 21.5 16.5523 21.5 16C21.5 15.4477 21.0523 15 20.5 15H7.67422L8.87242 13.6021C8.95999 13.4999 9.03602 13.3905 9.10017 13.2756L9.17682 13.2169C9.28707 13.2387 9.40047 13.25 9.51576 13.25H18.1697C18.8978 13.25 19.5498 12.7992 19.807 12.118L22.7295 4.37598C22.8164 4.14558 22.7847 3.88716 22.6447 3.68459C22.5046 3.48202 22.2741 3.36111 22.0278 3.36111H6.08862L5.92516 2.93201C5.48201 1.76875 4.36651 1 3.12169 1H2.5Z" fill="white"/>
<path d="M10.4166 19.8885C10.4166 21.0544 9.47138 21.9996 8.30545 21.9996C7.13951 21.9996 6.19434 21.0544 6.19434 19.8885C6.19434 18.7225 7.13951 17.7773 8.30545 17.7773C9.47138 17.7773 10.4166 18.7225 10.4166 19.8885Z" fill="white"/>
<path d="M20.9722 19.8885C20.9722 21.0544 20.027 21.9996 18.8611 21.9996C17.6952 21.9996 16.75 21.0544 16.75 19.8885C16.75 18.7225 17.6952 17.7773 18.8611 17.7773C20.027 17.7773 20.9722 18.7225 20.9722 19.8885Z" fill="white"/>
</svg>
