<svg width="25" height="24" viewBox="0 0 25 24" fill="none" xmlns="http://www.w3.org/2000/svg">
<path d="M19.5 4C18.6716 4 18 4.67157 18 5.5V18.5C18 19.3284 18.6716 20 19.5 20H20.5C21.3284 20 22 19.3284 22 18.5V5.5C22 4.67157 21.3284 4 20.5 4H19.5Z" stroke="#8591AA" stroke-width="1.5"/>
<path d="M10.5 9.5C10.5 8.67157 11.1716 8 12 8H13C13.8284 8 14.5 8.67157 14.5 9.5V18.5C14.5 19.3284 13.8284 20 13 20H12C11.1716 20 10.5 19.3284 10.5 18.5V9.5Z" stroke="#8591AA" stroke-width="1.5"/>
<path d="M3 13.5C3 12.6716 3.67157 12 4.5 12H5.5C6.32843 12 7 12.6716 7 13.5V18.5C7 19.3284 6.32843 20 5.5 20H4.5C3.67157 20 3 19.3284 3 18.5V13.5Z" stroke="#8591AA" stroke-width="1.5"/>
</svg>
