<svg width="24" height="24" viewBox="0 0 24 24" fill="none" xmlns="http://www.w3.org/2000/svg">
<path d="M19 4C18.1716 4 17.5 4.67157 17.5 5.5V18.5C17.5 19.3284 18.1716 20 19 20H20C20.8284 20 21.5 19.3284 21.5 18.5V5.5C21.5 4.67157 20.8284 4 20 4H19Z" stroke="#8591AA" stroke-width="1.5"/>
<path d="M10 9.5C10 8.67157 10.6716 8 11.5 8H12.5C13.3284 8 14 8.67157 14 9.5V18.5C14 19.3284 13.3284 20 12.5 20H11.5C10.6716 20 10 19.3284 10 18.5V9.5Z" stroke="#8591AA" stroke-width="1.5"/>
<path d="M2.5 13.5C2.5 12.6716 3.17157 12 4 12H5C5.82843 12 6.5 12.6716 6.5 13.5V18.5C6.5 19.3284 5.82843 20 5 20H4C3.17157 20 2.5 19.3284 2.5 18.5V13.5Z" stroke="#8591AA" stroke-width="1.5"/>
</svg>
