<svg width="16" height="16" viewBox="0 0 16 16" fill="none" xmlns="http://www.w3.org/2000/svg">
<g clip-path="url(#clip0_721_49398)">
<path d="M8 15L1 11.5156L1 4.48444M8 15L15 11.5156V4.48444M8 15V7.96889M15 4.48444L8 1L5.375 2.30667M15 4.48444L13.25 5.35556L12.375 5.79111M1 4.48444L8 7.96889M1 4.48444L2.75 3.61333L3.625 3.17778M8 7.96889L10.625 6.66222M12.375 5.79111L11.5 6.22667L10.625 6.66222M12.375 5.79111L5.375 2.30667M12.375 5.79111V8.96444L10.625 9.83556V6.66222M5.375 2.30667L4.5 2.74222L3.625 3.17778M3.625 3.17778L10.625 6.66222" stroke="#434751" stroke-linejoin="round"/>
</g>
<defs>
<clipPath id="clip0_721_49398">
<rect width="16" height="16" fill="white"/>
</clipPath>
</defs>
</svg>
