<svg width="24" height="24" viewBox="0 0 24 24" fill="none" xmlns="http://www.w3.org/2000/svg">
<path fill-rule="evenodd" clip-rule="evenodd" d="M16.1512 17.5941C15.9835 17.7457 15.8372 17.878 15.7178 17.9893C14.6888 18.9483 13.4188 20.0873 12.6608 20.7623C12.2818 21.1003 11.7168 21.1003 11.3378 20.7623C10.5798 20.0873 9.30983 18.9483 8.28083 17.9893C8.16153 17.8781 8.01534 17.7459 7.84784 17.5945C5.60029 15.5622 -0.48331 10.0613 3.11083 5.31129C4.22083 3.84429 5.90583 2.92929 7.74383 3.00429C8.86024 3.0499 9.77326 3.40425 10.4634 3.80827C11.4676 4.39619 11.9998 5.08929 11.9998 5.08929C11.9998 5.08929 12.532 4.39619 13.5363 3.80827C14.2264 3.40425 15.1394 3.0499 16.2558 3.00429C18.0938 2.92929 19.7788 3.84429 20.8878 5.31129C24.4827 10.061 18.3992 15.5616 16.1512 17.5941ZM10.426 6.32351L10.4157 6.3115C10.396 6.28866 10.3568 6.24478 10.299 6.18637C10.2083 6.09479 10.0764 5.97218 9.90616 5.84052C9.85704 5.80253 9.80473 5.76378 9.7493 5.72481C9.25325 5.376 8.55341 5.03906 7.66229 5.00262C6.56797 4.95801 5.4772 5.49846 4.70572 6.51807C3.56561 8.02483 3.85976 9.75171 5.26465 11.8507C6.45626 13.6311 8.10336 15.125 9.15902 16.0824C9.33994 16.2465 9.5035 16.3949 9.64441 16.5262C10.3963 17.227 11.2832 18.0292 11.9993 18.6713C12.7154 18.0292 13.6023 17.227 14.3543 16.5262C14.4953 16.3947 14.659 16.2462 14.8402 16.082C15.8959 15.1244 17.5429 13.6308 18.7344 11.8507C20.1394 9.75169 20.4335 8.02499 19.2931 6.51827L19.2924 6.51737C18.5222 5.49853 17.4318 4.958 16.3374 5.00262C16.1008 5.0123 15.8776 5.04316 15.6682 5.0898C15.4348 5.14179 15.2185 5.21338 15.0195 5.2971C14.7246 5.42116 14.4679 5.57184 14.2504 5.72481C14.0029 5.89883 13.8175 6.06836 13.7006 6.18637C13.6428 6.24478 13.6037 6.28866 13.584 6.3115L13.5737 6.32351L11.9998 8.37319L10.426 6.32351Z" fill="#8591AA"/>
</svg>
