<svg width="25" height="24" viewBox="0 0 25 24" fill="none" xmlns="http://www.w3.org/2000/svg">
<path fill-rule="evenodd" clip-rule="evenodd" d="M16.6512 17.5941C16.4835 17.7457 16.3372 17.878 16.2178 17.9893C15.1888 18.9483 13.9188 20.0873 13.1608 20.7623C12.7818 21.1003 12.2168 21.1003 11.8378 20.7623C11.0798 20.0873 9.80983 18.9483 8.78083 17.9893C8.66153 17.8781 8.51534 17.7459 8.34784 17.5945C6.10029 15.5622 0.0166903 10.0613 3.61083 5.31129C4.72083 3.84429 6.40583 2.92929 8.24383 3.00429C9.36024 3.0499 10.2733 3.40425 10.9634 3.80827C11.9676 4.39619 12.4998 5.08929 12.4998 5.08929C12.4998 5.08929 13.032 4.39619 14.0363 3.80827C14.7264 3.40425 15.6394 3.0499 16.7558 3.00429C18.5938 2.92929 20.2788 3.84429 21.3878 5.31129C24.9827 10.061 18.8992 15.5616 16.6512 17.5941ZM10.926 6.32351L10.9157 6.3115C10.896 6.28866 10.8568 6.24478 10.799 6.18637C10.7083 6.09479 10.5764 5.97218 10.4062 5.84052C10.357 5.80253 10.3047 5.76378 10.2493 5.72481C9.75325 5.376 9.05341 5.03906 8.16229 5.00262C7.06797 4.95801 5.9772 5.49846 5.20572 6.51807C4.06561 8.02483 4.35976 9.75171 5.76465 11.8507C6.95626 13.6311 8.60336 15.125 9.65902 16.0824C9.83994 16.2465 10.0035 16.3949 10.1444 16.5262C10.8963 17.227 11.7832 18.0292 12.4993 18.6713C13.2154 18.0292 14.1023 17.227 14.8543 16.5262C14.9953 16.3947 15.159 16.2462 15.3402 16.082C16.3959 15.1244 18.0429 13.6308 19.2344 11.8507C20.6394 9.75169 20.9335 8.02499 19.7931 6.51827L19.7924 6.51737C19.0222 5.49853 17.9318 4.958 16.8374 5.00262C16.6008 5.0123 16.3776 5.04316 16.1682 5.0898C15.9348 5.14179 15.7185 5.21338 15.5195 5.2971C15.2246 5.42116 14.9679 5.57184 14.7504 5.72481C14.5029 5.89883 14.3175 6.06836 14.2006 6.18637C14.1428 6.24478 14.1037 6.28866 14.084 6.3115L14.0737 6.32351L12.4998 8.37319L10.926 6.32351Z" fill="#8591AA"/>
</svg>
