<svg width="17" height="16" viewBox="0 0 17 16" fill="none" xmlns="http://www.w3.org/2000/svg">
<path fill-rule="evenodd" clip-rule="evenodd" d="M5 7C6.38071 7 7.5 5.88071 7.5 4.5C7.5 3.11929 6.38071 2 5 2C3.61929 2 2.5 3.11929 2.5 4.5C2.5 5.88071 3.61929 7 5 7ZM5 5.5C5.55228 5.5 6 5.05228 6 4.5C6 3.94772 5.55228 3.5 5 3.5C4.44772 3.5 4 3.94772 4 4.5C4 5.05228 4.44772 5.5 5 5.5Z" fill="white"/>
<path d="M13.5303 4.03033L4.03033 13.5303C3.73744 13.8232 3.26256 13.8232 2.96967 13.5303C2.67678 13.2374 2.67678 12.7626 2.96967 12.4697L12.4697 2.96967C12.7626 2.67678 13.2374 2.67678 13.5303 2.96967C13.8232 3.26256 13.8232 3.73744 13.5303 4.03033Z" fill="white"/>
<path fill-rule="evenodd" clip-rule="evenodd" d="M14.5 11.5C14.5 12.8807 13.3807 14 12 14C10.6193 14 9.5 12.8807 9.5 11.5C9.5 10.1193 10.6193 9 12 9C13.3807 9 14.5 10.1193 14.5 11.5ZM13 11.5C13 12.0523 12.5523 12.5 12 12.5C11.4477 12.5 11 12.0523 11 11.5C11 10.9477 11.4477 10.5 12 10.5C12.5523 10.5 13 10.9477 13 11.5Z" fill="white"/>
</svg>
