<svg width="25" height="24" viewBox="0 0 25 24" fill="none" xmlns="http://www.w3.org/2000/svg">
<path d="M20.977 13.6412V7.33471L14.1688 0.384766H4.01562V13.6412" stroke="black" stroke-width="0.696852" stroke-miterlimit="10"/>
<path d="M4.01562 21.0532V23.613H20.977V21.0532" stroke="black" stroke-width="0.696852" stroke-miterlimit="10"/>
<path d="M14.1689 0.384766V7.19301H20.9772" stroke="black" stroke-width="0.696852" stroke-miterlimit="10"/>
<path d="M2.10156 13.6411H22.891V21.0533H2.10156V13.6411Z" stroke="black" stroke-width="0.696852" stroke-miterlimit="10"/>
<path d="M8.09473 19.1904V15.8942H9.63713H9.63697C9.92752 15.8807 10.2109 15.9865 10.4212 16.1873C10.6316 16.388 10.7506 16.6663 10.7506 16.957C10.7506 17.2477 10.6316 17.5259 10.4212 17.7267C10.2109 17.9273 9.92749 18.0333 9.63697 18.0198H8.79617V19.1812L8.09473 19.1904ZM10.0273 16.9581C10.0291 16.8321 9.97722 16.7115 9.8846 16.6262C9.79181 16.5411 9.66714 16.4995 9.54181 16.5122H8.79615V17.4019H9.54181V17.4017C9.66648 17.4136 9.79047 17.3722 9.88293 17.2876C9.97539 17.2031 10.0278 17.0834 10.0273 16.9581L10.0273 16.9581Z" fill="black"/>
<path d="M11.1787 19.1907V15.8945H12.4771C13.5108 15.8945 14.2263 16.5519 14.2263 17.5461C14.2263 18.5402 13.5108 19.1906 12.4771 19.1906L11.1787 19.1907ZM13.5015 17.5462L13.5016 17.5461C13.5218 17.2662 13.4195 16.9913 13.2211 16.7929C13.0227 16.5945 12.7478 16.4921 12.4679 16.5125H11.8803V18.5728H12.4773C12.754 18.5861 13.0237 18.4825 13.2203 18.2872C13.4169 18.0918 13.5224 17.8229 13.5108 17.5461L13.5015 17.5462Z" fill="black"/>
<path d="M14.7256 19.1907V15.8945H17.06V16.5124H15.434V17.2093H17.0298V17.8271H15.4294V19.1906L14.7256 19.1907Z" fill="black"/>
</svg>
