<svg width="32" height="32" viewBox="0 0 32 32" fill="none" xmlns="http://www.w3.org/2000/svg">
<path d="M7.75 10V9.25H6.25V10H7.75ZM26 17L26.5562 17.5032C26.8146 17.2175 26.8146 16.7825 26.5562 16.4968L26 17ZM19.1105 23.4968L18.6073 24.053L19.7196 25.0593L20.2228 24.5032L19.1105 23.4968ZM20.2228 9.49681L19.7196 8.94066L18.6073 9.94703L19.1105 10.5032L20.2228 9.49681ZM6.25 10V13H7.75V10H6.25ZM11 17.75H26V16.25H11V17.75ZM25.4438 16.4968L19.1105 23.4968L20.2228 24.5032L26.5562 17.5032L25.4438 16.4968ZM26.5562 16.4968L20.2228 9.49681L19.1105 10.5032L25.4438 17.5032L26.5562 16.4968ZM6.25 13C6.25 15.6234 8.37665 17.75 11 17.75V16.25C9.20507 16.25 7.75 14.7949 7.75 13H6.25Z" fill="white"/>
</svg>
