<svg width="84" height="84" viewBox="0 0 84 84" fill="none" xmlns="http://www.w3.org/2000/svg">
<path d="M77.3894 22.638L51.1394 8.20054C50.7518 7.9873 50.3166 7.87549 49.8742 7.87549C49.4318 7.87549 48.9966 7.9873 48.6089 8.20054L22.3589 22.638C21.9474 22.8646 21.6042 23.1976 21.3651 23.602C21.1261 24.0065 21 24.4677 21 24.9375C21 25.4074 21.1261 25.8686 21.3651 26.2731C21.6042 26.6775 21.9474 27.0104 22.3589 27.237L47.2492 40.9264V69.0638L39.2797 64.68L36.7492 69.2764L48.6089 75.7995C48.9964 76.0133 49.4317 76.1253 49.8742 76.1253C50.3167 76.1253 50.752 76.0133 51.1394 75.7995L77.3894 61.362C77.8012 61.1356 78.1445 60.8027 78.3837 60.3982C78.6229 59.9937 78.7491 59.5325 78.7492 59.0625V24.9375C78.7491 24.4676 78.6229 24.0064 78.3837 23.6019C78.1445 23.1974 77.8012 22.8645 77.3894 22.638ZM49.8742 13.4978L70.6773 24.9375L49.8742 36.3773L29.0711 24.9375L49.8742 13.4978ZM73.4992 57.5112L52.4992 69.0612V40.9238L73.4992 29.3738V57.5112Z" fill="#157FF8"/>
<path d="M26.25 42H5.25V36.75H26.25V42ZM31.5 63H10.5V57.75H31.5V63ZM36.75 52.5H15.75V47.25H36.75V52.5Z" fill="#157FF8"/>
</svg>
