<svg width="17" height="16" viewBox="0 0 17 16" fill="none" xmlns="http://www.w3.org/2000/svg">
<path d="M7.41571 5.375C7.41571 4.96079 7.7515 4.625 8.16571 4.625C8.57992 4.625 8.91571 4.96079 8.91571 5.375C8.91571 5.78921 8.57992 6.125 8.16571 6.125C7.7515 6.125 7.41571 5.78921 7.41571 5.375Z" fill="#157FF8"/>
<path d="M8.72821 7.25C8.72821 6.93934 8.47637 6.6875 8.16571 6.6875C7.85505 6.6875 7.60321 6.93934 7.60321 7.25V10.625C7.60321 10.9357 7.85505 11.1875 8.16571 11.1875C8.47637 11.1875 8.72821 10.9357 8.72821 10.625V7.25Z" fill="#157FF8"/>
<path fill-rule="evenodd" clip-rule="evenodd" d="M8.16571 14C11.4794 14 14.1657 11.3137 14.1657 8C14.1657 4.68629 11.4794 2 8.16571 2C4.852 2 2.16571 4.68629 2.16571 8C2.16571 11.3137 4.852 14 8.16571 14ZM8.16571 12.875C10.8581 12.875 13.0407 10.6924 13.0407 8C13.0407 5.30761 10.8581 3.125 8.16571 3.125C5.47332 3.125 3.29071 5.30761 3.29071 8C3.29071 10.6924 5.47332 12.875 8.16571 12.875Z" fill="#157FF8"/>
</svg>
