<svg width="16" height="16" viewBox="0 0 16 16" fill="none" xmlns="http://www.w3.org/2000/svg">
<path d="M7.25 5.375C7.25 4.96079 7.58579 4.625 8 4.625C8.41421 4.625 8.75 4.96079 8.75 5.375C8.75 5.78921 8.41421 6.125 8 6.125C7.58579 6.125 7.25 5.78921 7.25 5.375Z" fill="#B1B1BD"/>
<path d="M8.5625 7.25C8.5625 6.93934 8.31066 6.6875 8 6.6875C7.68934 6.6875 7.4375 6.93934 7.4375 7.25V10.625C7.4375 10.9357 7.68934 11.1875 8 11.1875C8.31066 11.1875 8.5625 10.9357 8.5625 10.625V7.25Z" fill="#B1B1BD"/>
<path fill-rule="evenodd" clip-rule="evenodd" d="M8 14C11.3137 14 14 11.3137 14 8C14 4.68629 11.3137 2 8 2C4.68629 2 2 4.68629 2 8C2 11.3137 4.68629 14 8 14ZM8 12.875C10.6924 12.875 12.875 10.6924 12.875 8C12.875 5.30761 10.6924 3.125 8 3.125C5.30761 3.125 3.125 5.30761 3.125 8C3.125 10.6924 5.30761 12.875 8 12.875Z" fill="#B1B1BD"/>
</svg>
