<svg width="48" height="48" viewBox="0 0 48 48" fill="none" xmlns="http://www.w3.org/2000/svg">
<rect width="48" height="48" rx="8" fill="#E3EDFF"/>
<path fill-rule="evenodd" clip-rule="evenodd" d="M16.0811 13.6061C16.2387 13.2384 16.6002 13 17.0003 13H31.0003C31.4003 13 31.7618 13.2384 31.9194 13.6061L34.917 20.6005C34.9257 20.6203 34.9337 20.6405 34.941 20.6609C34.9851 20.7828 35.004 20.9083 35 21.0314V34C35 34.5523 34.5523 35 34 35H14C13.4477 35 13 34.5523 13 34L13 20.9974C13 20.9859 13.0003 20.9744 13.0007 20.9628C13.0057 20.8257 13.0383 20.6955 13.0932 20.5779L16.0811 13.6061ZM25.6327 15H22.3673L21.653 20H26.347L25.6327 15ZM28.3673 20L27.653 15H30.3409L32.4837 20H28.3673ZM26.5 22H21.5V24.5H26.5V22ZM19.5 22V25.5C19.5 26.0523 19.9477 26.5 20.5 26.5H27.5C28.0523 26.5 28.5 26.0523 28.5 25.5V22H33V33H15V22H19.5ZM19.6327 20L20.347 15H17.6597L15.5168 20H19.6327Z" fill="#157FF8"/>
</svg>
