<svg width="125" height="47" viewBox="0 0 125 47" fill="none" xmlns="http://www.w3.org/2000/svg">
<g clip-path="url(#clip0_2025_3412)">
<path d="M0 14.4615C0 9.39955 0 6.86852 0.980153 4.93508C1.84233 3.23439 3.21805 1.85168 4.91015 0.985129C6.83382 0 9.35207 0 14.3885 0H110.612C115.648 0 118.166 0 120.09 0.985129C121.782 1.85168 123.157 3.23439 124.02 4.93508C125 6.86852 125 9.39955 125 14.4615V32.5385C125 37.6005 125 40.1315 124.02 42.0649C123.157 43.7656 121.782 45.1483 120.09 46.0149C118.166 47 115.648 47 110.612 47H14.3885C9.35207 47 6.83382 47 4.91015 46.0149C3.21805 45.1483 1.84233 43.7656 0.980153 42.0649C0 40.1315 0 37.6005 0 32.5385V14.4615Z" fill="#F6F8FD"/>
<path d="M31.5436 23.4324C31.518 20.5768 33.8747 19.1876 33.9824 19.1229C32.6477 17.1711 30.5791 16.9044 29.8521 16.8831C28.1146 16.6997 26.4293 17.9259 25.5442 17.9259C24.6414 17.9259 23.2785 16.9008 21.8095 16.931C19.9192 16.9602 18.1509 18.0579 17.181 19.7626C15.1794 23.2384 16.6722 28.3461 18.5899 31.1556C19.5491 32.5325 20.6701 34.0679 22.1373 34.0139C23.5726 33.9554 24.1088 33.0968 25.841 33.0968C27.5572 33.0968 28.0607 34.0139 29.5571 33.9792C31.0976 33.9554 32.0674 32.5972 32.9932 31.2088C34.1017 29.6326 34.5469 28.0786 34.5646 27.9989C34.5292 27.9864 31.5736 26.8541 31.5436 23.4324ZM28.7169 15.0349C29.4889 14.0665 30.0172 12.7491 29.8706 11.4121C28.7531 11.4617 27.3558 12.1873 26.551 13.1345C25.8391 13.9691 25.2031 15.3371 25.3674 16.6235C26.6226 16.7174 27.9114 15.9883 28.7169 15.0349Z" fill="#282A2D"/>
<path d="M52.0221 32.9749H50.0823L49.0198 29.8004H45.3264L44.3143 32.9749H42.4258L46.0858 22.1676H48.3458L52.0221 32.9749ZM48.6995 28.4686L47.7386 25.6466C47.637 25.3583 47.4457 24.6794 47.1654 23.6107H47.1314C47.0186 24.0704 46.8384 24.7493 46.5915 25.6466L45.6468 28.4686H48.6995ZM61.4161 28.9826C61.4161 30.308 61.0377 31.3556 60.2799 32.1247C59.6019 32.8092 58.7588 33.1512 57.7534 33.1512C56.6678 33.1512 55.8871 32.7832 55.413 32.0459V36.1347H53.5921V27.7434C53.5921 26.911 53.569 26.0575 53.5246 25.1821H55.1261L55.2278 26.4173H55.2618C55.8691 25.4866 56.7908 25.0212 58.0276 25.0212C58.9945 25.0212 59.8017 25.3842 60.4474 26.1111C61.0922 26.8396 61.4161 27.7962 61.4161 28.9826ZM59.5608 29.046C59.5608 28.2876 59.3814 27.6622 59.0209 27.1692C58.6272 26.6568 58.0984 26.4003 57.4357 26.4003C56.9864 26.4003 56.5781 26.5431 56.2134 26.825C55.8478 27.1092 55.6086 27.4803 55.4968 27.9399C55.4404 28.1543 55.4123 28.329 55.4123 28.4671V29.7672C55.4123 30.3331 55.595 30.8115 55.9606 31.203C56.3262 31.5927 56.8011 31.7884 57.3853 31.7884C58.0713 31.7884 58.6051 31.5359 58.9868 31.0348C59.3694 30.5321 59.5608 29.8695 59.5608 29.046ZM70.8431 28.9826C70.8431 30.308 70.4647 31.3556 69.7072 32.1247C69.0281 32.8092 68.1859 33.1512 67.1797 33.1512C66.0941 33.1512 65.3135 32.7832 64.8394 32.0459V36.1347H63.0183V27.7434C63.0183 26.911 62.9953 26.0575 62.9509 25.1821H64.5524L64.654 26.4173H64.6882C65.2947 25.4866 66.2162 25.0212 67.4538 25.0212C68.4198 25.0212 69.227 25.3842 69.8745 26.1111C70.5187 26.8396 70.8431 27.7962 70.8431 28.9826ZM68.9871 29.046C68.9871 28.2876 68.8069 27.6622 68.4464 27.1692C68.0527 26.6568 67.5257 26.4003 66.8628 26.4003C66.4135 26.4003 66.0053 26.5431 65.6388 26.825C65.2733 27.1092 65.035 27.4803 64.9231 27.9399C64.8676 28.1543 64.8377 28.329 64.8377 28.4671V29.7672C64.8377 30.3331 65.0213 30.8115 65.3851 31.203C65.7508 31.5919 66.2256 31.7884 66.8116 31.7884C67.4983 31.7884 68.0321 31.5359 68.4131 31.0348C68.7957 30.5321 68.9871 29.8695 68.9871 29.046ZM81.3832 29.9433C81.3832 30.8634 81.045 31.6114 80.3729 32.1887C79.6332 32.819 78.6005 33.1349 77.2766 33.1349C76.0534 33.1349 75.0728 32.9107 74.3332 32.4616L74.7543 31.0185C75.5528 31.4685 76.4301 31.6926 77.385 31.6926C78.0717 31.6926 78.6055 31.5447 78.9866 31.2516C79.3682 30.9576 79.5614 30.5646 79.5614 30.0741C79.5614 29.6348 79.4017 29.2669 79.0882 28.9673C78.773 28.6684 78.2519 28.3899 77.52 28.1341C75.5298 27.4284 74.5339 26.3963 74.5339 25.0384C74.5339 24.1516 74.8858 23.4256 75.588 22.858C76.2901 22.2912 77.2211 22.0078 78.3793 22.0078C79.4136 22.0078 80.2755 22.1792 80.9597 22.521L80.5028 23.9324C79.8587 23.601 79.1317 23.4353 78.3186 23.4353C77.6763 23.4353 77.1724 23.5856 76.8119 23.8845C76.5087 24.1516 76.3549 24.4773 76.3549 24.8638C76.3549 25.2902 76.5301 25.6443 76.8785 25.922C77.1809 26.1778 77.7327 26.4564 78.5305 26.7553C79.5092 27.1305 80.2284 27.5674 80.6888 28.0692C81.1527 28.5709 81.3832 29.197 81.3832 29.9433ZM87.4196 26.4814H85.4123V30.2649C85.4123 31.2272 85.766 31.7072 86.4749 31.7072C86.8002 31.7072 87.0702 31.6811 87.2838 31.6268L87.334 32.9415C86.9754 33.0692 86.503 33.1333 85.9179 33.1333C85.1987 33.1333 84.6367 32.9246 84.231 32.5071C83.8269 32.0897 83.6237 31.3905 83.6237 30.4063V26.4781H82.4278V25.1789H83.6237V23.7521L85.4123 23.2388V25.1789H87.4196V26.4814ZM96.4582 29.0143C96.4582 30.2121 96.0975 31.1955 95.3781 31.9647C94.6263 32.7564 93.6245 33.1511 92.3772 33.1511C91.1722 33.1511 90.2153 32.7718 89.501 32.0142C88.7869 31.2548 88.4299 30.2983 88.4299 29.1442C88.4299 27.9366 88.7989 26.9476 89.5343 26.1785C90.2711 25.4086 91.2639 25.0238 92.5121 25.0238C93.7144 25.0238 94.6803 25.4038 95.4114 26.1623C96.1101 26.8981 96.4582 27.8482 96.4582 29.0143ZM94.5706 29.0541C94.5706 28.3402 94.4078 27.7279 94.0822 27.2155C93.701 26.5966 93.1542 26.2873 92.4465 26.2873C91.7162 26.2873 91.1569 26.5966 90.7765 27.2155C90.4501 27.7279 90.2873 28.3508 90.2873 29.0866C90.2873 29.8012 90.4501 30.4151 90.7765 30.926C91.1704 31.5447 91.7189 31.8542 92.4312 31.8542C93.1272 31.8542 93.6731 31.5383 94.067 30.9105C94.4024 30.3859 94.5706 29.7696 94.5706 29.0541ZM102.38 26.7047C102.2 26.673 102.007 26.6567 101.806 26.6567C101.165 26.6567 100.669 26.8859 100.321 27.347C100.019 27.7531 99.8673 28.2663 99.8673 28.886V32.9748H98.0463V27.6362C98.0463 26.7389 98.0283 25.9203 97.9932 25.1829H99.5796L99.6461 26.6738H99.6965C99.8889 26.1614 100.192 25.748 100.607 25.4386C101.012 25.1602 101.451 25.0212 101.923 25.0212C102.091 25.0212 102.243 25.0326 102.378 25.053L102.38 26.7047ZM110.524 28.7098C110.524 29.02 110.503 29.2814 110.457 29.4951H104.994C105.015 30.2649 105.28 30.8545 105.787 31.2606C106.248 31.6228 106.843 31.8047 107.574 31.8047C108.383 31.8047 109.121 31.6829 109.785 31.4367L110.07 32.6379C109.294 32.9594 108.378 33.1194 107.321 33.1194C106.051 33.1194 105.053 32.7637 104.327 32.054C103.603 31.3434 103.24 30.3884 103.24 29.1922C103.24 28.0178 103.578 27.0393 104.253 26.259C104.96 25.4257 105.916 25.009 107.118 25.009C108.3 25.009 109.194 25.4256 109.802 26.259C110.282 26.9191 110.524 27.7377 110.524 28.7098ZM108.787 28.2607C108.801 27.7467 108.681 27.3041 108.434 26.9297C108.119 26.4473 107.634 26.207 106.983 26.207C106.388 26.207 105.903 26.4416 105.535 26.9126C105.231 27.287 105.051 27.7369 104.995 28.2591L108.787 28.2607Z" fill="#282A2D"/>
<path d="M47.8586 17.6719H46.8914L46.3622 15.924H44.5222L44.0174 17.6719H43.0762L44.8997 11.7205H46.0255L47.8586 17.6719ZM46.203 15.1907L45.7241 13.6367C45.6738 13.4775 45.5812 13.1072 45.4383 12.5157H45.421C45.3621 12.7714 45.2782 13.1426 45.1517 13.6367L44.6816 15.1907H46.203ZM52.4183 13.381L50.8719 17.6719H49.9895L48.4933 13.381H49.4683L50.1662 15.6502C50.2839 16.0296 50.3844 16.3917 50.4597 16.7357H50.4848C50.5524 16.4272 50.6528 16.0651 50.7783 15.6502L51.4676 13.381H52.4183ZM55.7105 17.6719L55.643 17.1777H55.6178C55.3407 17.5753 54.9372 17.7691 54.4247 17.7691C53.6938 17.7691 53.1725 17.2305 53.1725 16.5063C53.1725 15.4472 54.0462 14.8995 55.5589 14.8995V14.8203C55.5589 14.2553 55.2732 13.9723 54.7103 13.9723C54.3068 13.9723 53.9536 14.0788 53.6435 14.2908L53.4591 13.6639C53.8375 13.4164 54.3077 13.2927 54.8627 13.2927C55.9295 13.2927 56.4681 13.884 56.4681 15.0678V16.6482C56.4681 17.0813 56.4854 17.417 56.527 17.6727L55.7105 17.6719ZM55.5842 15.5346C54.5755 15.5346 54.0714 15.7912 54.0714 16.3999C54.0714 16.8503 54.332 17.0705 54.6931 17.0705C55.1554 17.0705 55.5842 16.7002 55.5842 16.197V15.5346ZM58.4892 12.6741C58.1871 12.6741 57.9515 12.4266 57.9515 12.0999C57.9515 11.7733 58.1949 11.5349 58.5066 11.5349C58.8174 11.5349 59.0694 11.7733 59.0608 12.0999C59.0608 12.4448 58.8262 12.6741 58.4892 12.6741ZM58.9603 17.6719H58.0528V13.381H58.9603V17.6719ZM61.48 17.6719H60.5726V11.4121H61.48V17.6719ZM65.3368 17.6719L65.2692 17.1777H65.2442C64.9671 17.5753 64.5636 17.7691 64.0509 17.7691C63.3201 17.7691 62.7988 17.2305 62.7988 16.5063C62.7988 15.4472 63.6725 14.8995 65.1852 14.8995V14.8203C65.1852 14.2553 64.8995 13.9723 64.3366 13.9723C63.9331 13.9723 63.5798 14.0788 63.2698 14.2908L63.0845 13.663C63.463 13.4155 63.9332 13.2917 64.4882 13.2917C65.555 13.2917 66.0935 13.8831 66.0935 15.0669V16.6473C66.0935 17.0804 66.1118 17.4161 66.1516 17.6718H65.3368V17.6719ZM65.2104 15.5346C64.2016 15.5346 63.6977 15.7912 63.6977 16.3999C63.6977 16.8503 63.9582 17.0705 64.3192 17.0705C64.7817 17.0705 65.2104 16.7002 65.2104 16.197V15.5346ZM69.7703 17.7692C69.191 17.7692 68.7631 17.5126 68.4861 17.0095H68.4679L68.4159 17.6719H67.6427C67.6678 17.328 67.6764 16.9385 67.6764 16.5154V11.4121H68.5848V14.0088H68.6021C68.8713 13.5321 69.307 13.2936 69.9044 13.2936C70.8881 13.2936 71.5773 14.1772 71.5773 15.4655C71.5773 16.7975 70.8119 17.7692 69.7703 17.7692ZM69.5858 14.0425C69.0637 14.0425 68.5857 14.5193 68.5857 15.1816V15.9322C68.5857 16.5236 69.0151 17.0095 69.5702 17.0095C70.25 17.0095 70.6544 16.4272 70.6544 15.5C70.6534 14.6348 70.2326 14.0425 69.5858 14.0425ZM73.8261 17.6719H72.9196V11.4121H73.8261V17.6719ZM78.7662 15.7557H76.042C76.0603 16.5682 76.571 17.0268 77.3278 17.0268C77.7313 17.0268 78.1011 16.9558 78.4284 16.8239L78.5695 17.4862C78.1834 17.6627 77.7296 17.7511 77.2005 17.7511C75.9225 17.7511 75.1666 16.9031 75.1666 15.5883C75.1666 14.2727 75.9407 13.2836 77.0984 13.2836C78.1401 13.2836 78.7964 14.0962 78.7964 15.3235C78.7998 15.491 78.7921 15.6411 78.7662 15.7557ZM77.934 15.076C77.934 14.4137 77.6144 13.946 77.0343 13.946C76.513 13.946 76.1025 14.4228 76.0419 15.076H77.934ZM84.2663 17.7692C83.0731 17.7692 82.2998 16.833 82.2998 15.5619C82.2998 14.2372 83.0896 13.2927 84.3347 13.2927C85.5096 13.2927 86.3012 14.1844 86.3012 15.4919C86.3013 16.833 85.4855 17.7692 84.2663 17.7692ZM84.3009 13.9897C83.6454 13.9897 83.2255 14.6339 83.2255 15.5346C83.2255 16.4181 83.6541 17.0622 84.2924 17.0622C84.9305 17.0622 85.3582 16.3735 85.3582 15.5165C85.3591 14.643 84.9391 13.9897 84.3009 13.9897ZM91.1792 17.6719H90.2728V15.208C90.2728 14.4492 89.9958 14.0689 89.4496 14.0689C88.912 14.0689 88.5414 14.5547 88.5414 15.1198V17.6719H87.6347V14.6075C87.6347 14.228 87.6252 13.8214 87.601 13.3801H88.3993L88.4417 14.0425H88.4669C88.7093 13.5839 89.2064 13.2918 89.7605 13.2918C90.6172 13.2918 91.1801 13.9806 91.1801 15.1015V17.6719H91.1792ZM97.1172 14.0962H96.119V16.1797C96.119 16.7102 96.2943 16.9749 96.6469 16.9749C96.8069 16.9749 96.9418 16.9568 97.0506 16.9304L97.0758 17.6546C96.8987 17.7257 96.6621 17.761 96.3708 17.761C95.6559 17.761 95.2287 17.3461 95.2287 16.2598V14.0962H94.6325V13.381H95.2287V12.5949L96.119 12.3119V13.3801H97.1172V14.0962ZM101.923 17.6719H101.015V15.2262C101.015 14.4583 100.738 14.0698 100.191 14.0698C99.7206 14.0698 99.2844 14.4055 99.2844 15.0852V17.6719H98.3762V11.4121H99.2844V13.9897H99.3015C99.5875 13.522 100 13.2918 100.529 13.2918C101.394 13.2918 101.923 13.9979 101.923 15.1198V17.6719ZM106.56 15.7557H103.837C103.854 16.5682 104.364 17.0268 105.122 17.0268C105.526 17.0268 105.895 16.9558 106.222 16.8239L106.364 17.4862C105.978 17.6627 105.524 17.7511 104.995 17.7511C103.716 17.7511 102.961 16.9031 102.961 15.5883C102.961 14.2727 103.735 13.2836 104.892 13.2836C105.934 13.2836 106.59 14.0962 106.59 15.3235C106.594 15.491 106.585 15.6411 106.56 15.7557ZM105.728 15.076C105.728 14.4137 105.409 13.946 104.829 13.946C104.307 13.946 103.896 14.4228 103.837 15.076H105.728Z" fill="#282A2D"/>
</g>
<defs>
<clipPath id="clip0_2025_3412">
<rect width="125" height="47" fill="white"/>
</clipPath>
</defs>
</svg>
