<svg width="133" height="47" viewBox="0 0 133 47" fill="none" xmlns="http://www.w3.org/2000/svg">
<g clip-path="url(#clip0_2025_3417)">
<path d="M0 14.4615C0 9.39955 0 6.86852 0.986829 4.93508C1.85488 3.23439 3.23997 1.85168 4.94359 0.985129C6.88037 0 9.41576 0 14.4865 0H118.514C123.585 0 126.12 0 128.056 0.985129C129.76 1.85168 131.145 3.23439 132.013 4.93508C133 6.86852 133 9.39955 133 14.4615V32.5385C133 37.6004 133 40.1315 132.013 42.0649C131.145 43.7656 129.76 45.1483 128.056 46.0149C126.12 47 123.585 47 118.514 47H14.4865C9.41576 47 6.88037 47 4.94359 46.0149C3.23997 45.1483 1.85488 43.7656 0.986829 42.0649C0 40.1315 0 37.6004 0 32.5385V14.4615Z" fill="white"/>
<path d="M15.7256 11.4141C15.4626 11.6859 15.375 12.1391 15.375 12.6829V32.7113C15.375 33.2551 15.5503 33.7082 15.8132 33.98L15.9009 34.0707L26.7695 22.833V22.6518L15.7256 11.4141Z" fill="url(#paint0_linear_2025_3417)"/>
<path d="M30.5639 26.9896L26.7734 23.2329V22.958L30.5639 19.2012L30.6564 19.2928L35.1865 21.8585C36.4807 22.5915 36.4807 23.7827 35.1865 24.5157L30.5639 26.9896Z" fill="url(#paint1_linear_2025_3417)"/>
<path d="M30.7928 26.6627L27.0842 22.7402L16.0469 34.414C16.4884 34.8811 17.1065 34.8811 17.9011 34.5075L30.7928 26.6627Z" fill="url(#paint2_linear_2025_3417)"/>
<path d="M30.7928 19.0338L17.9011 11.7043C17.1065 11.2628 16.4884 11.3511 16.0469 11.7927L27.0842 22.7427L30.7928 19.0338Z" fill="url(#paint3_linear_2025_3417)"/>
<path opacity="0.2" d="M30.7928 26.9902L17.9124 34.2986C17.2017 34.7443 16.5799 34.6552 16.1357 34.2986L16.0469 34.3879L16.1357 34.477C16.5799 34.8334 17.2017 34.9226 17.9124 34.477L30.7928 26.9902Z" fill="#282A2D"/>
<path opacity="0.12" d="M15.7363 33.9776C15.4654 33.7034 15.375 33.2466 15.375 32.6985V32.7898C15.375 33.338 15.5557 33.7948 15.8267 34.0689V33.9776H15.7363ZM35.2498 23.9279L30.7328 26.486L30.8231 26.5773L35.2498 24.0193C35.8822 23.6538 36.1531 23.197 36.1531 22.7402C36.1531 23.197 35.7918 23.5625 35.2498 23.9279Z" fill="#282A2D"/>
<path opacity="0.25" d="M17.6335 11.8132L35.2498 21.5969C35.7918 21.9494 36.1531 22.302 36.1531 22.7428C36.1531 22.302 35.8822 21.8613 35.2498 21.5087L17.6335 11.7251C16.3688 11.0199 15.375 11.5488 15.375 12.959V13.0472C15.375 11.7251 16.3688 11.1081 17.6335 11.8132Z" fill="white"/>
<path d="M67.0297 24.7524C64.881 24.7524 63.1801 26.336 63.1801 28.5356C63.1801 30.6471 64.881 32.3187 67.0297 32.3187C69.1784 32.3187 70.8794 30.7351 70.8794 28.5356C70.8794 26.2481 69.1784 24.7524 67.0297 24.7524ZM67.0297 30.7351C65.8659 30.7351 64.881 29.7673 64.881 28.4476C64.881 27.1279 65.8659 26.16 67.0297 26.16C68.1936 26.16 69.1784 27.0399 69.1784 28.4476C69.1784 29.7673 68.1936 30.7351 67.0297 30.7351ZM58.7037 24.7524C56.555 24.7524 54.854 26.336 54.854 28.5356C54.854 30.6471 56.555 32.3187 58.7037 32.3187C60.8524 32.3187 62.5533 30.7351 62.5533 28.5356C62.5533 26.2481 60.8524 24.7524 58.7037 24.7524ZM58.7037 30.7351C57.5398 30.7351 56.555 29.7673 56.555 28.4476C56.555 27.1279 57.5398 26.16 58.7037 26.16C59.8675 26.16 60.8524 27.0399 60.8524 28.4476C60.8524 29.7673 59.8675 30.7351 58.7037 30.7351ZM48.7662 25.8961V27.4798H52.6159C52.5263 28.3596 52.1682 29.0634 51.7206 29.5034C51.1834 30.0313 50.2882 30.6471 48.7662 30.6471C46.349 30.6471 44.5584 28.7995 44.5584 26.424C44.5584 24.0485 46.4385 22.2009 48.7662 22.2009C50.0196 22.2009 51.0043 22.7288 51.7206 23.3446L52.8844 22.2009C51.8996 21.3211 50.6463 20.6172 48.8557 20.6172C45.6328 20.6172 42.8574 23.2567 42.8574 26.424C42.8574 29.5913 45.6328 32.2308 48.8557 32.2308C50.6463 32.2308 51.8996 31.7029 52.974 30.5591C54.0483 29.5034 54.4064 28.0077 54.4064 26.8639C54.4064 26.512 54.4064 26.16 54.3169 25.8961H48.7662ZM89.4115 27.1279C89.0534 26.2481 88.1581 24.7524 86.1885 24.7524C84.2189 24.7524 82.6074 26.2481 82.6074 28.5356C82.6074 30.6471 84.2189 32.3187 86.3676 32.3187C88.0686 32.3187 89.1429 31.263 89.501 30.6471L88.2477 29.7673C87.8 30.3832 87.2628 30.8231 86.3676 30.8231C85.4723 30.8231 84.9351 30.4712 84.4875 29.6793L89.5905 27.5678L89.4115 27.1279ZM84.219 28.3596C84.219 26.9519 85.3828 26.16 86.1885 26.16C86.8152 26.16 87.4418 26.512 87.6209 26.9519L84.219 28.3596ZM80.0112 31.9669H81.7122V20.9691H80.0112V31.9669ZM77.3253 25.5442C76.8777 25.1042 76.1615 24.6643 75.2662 24.6643C73.3861 24.6643 71.5956 26.336 71.5956 28.4476C71.5956 30.5591 73.2966 32.1428 75.2662 32.1428C76.1615 32.1428 76.8777 31.7029 77.2358 31.263H77.3253V31.7909C77.3253 33.1985 76.5196 33.9904 75.2662 33.9904C74.2814 33.9904 73.5652 33.2866 73.3861 32.6707L71.9537 33.2866C72.4013 34.2543 73.4757 35.4861 75.3558 35.4861C77.3253 35.4861 78.9368 34.3424 78.9368 31.6149V24.9284H77.3253V25.5442ZM75.3558 30.7351C74.1919 30.7351 73.2071 29.7673 73.2071 28.4476C73.2071 27.1279 74.1919 26.16 75.3558 26.16C76.5196 26.16 77.4148 27.1279 77.4148 28.4476C77.4148 29.7673 76.5196 30.7351 75.3558 30.7351ZM97.2006 20.9691H93.1715V31.9669H94.8728V27.8317H97.2006C99.0802 27.8317 100.871 26.512 100.871 24.4004C100.871 22.2889 99.0802 20.9691 97.2006 20.9691ZM97.2902 26.2481H94.8728V22.4648H97.2902C98.5433 22.4648 99.2595 23.5206 99.2595 24.3125C99.1698 25.2802 98.4537 26.2481 97.2902 26.2481ZM107.586 24.6643C106.332 24.6643 105.079 25.1923 104.631 26.336L106.153 26.9519C106.511 26.336 107.049 26.16 107.675 26.16C108.571 26.16 109.376 26.688 109.465 27.5678V27.6557C109.197 27.4798 108.481 27.2158 107.765 27.2158C106.153 27.2158 104.542 28.0956 104.542 29.6793C104.542 31.175 105.884 32.1428 107.317 32.1428C108.481 32.1428 109.018 31.6149 109.465 31.087H109.555V31.9669H111.166V27.7437C110.987 25.8082 109.465 24.6643 107.586 24.6643ZM107.406 30.7351C106.869 30.7351 106.064 30.4712 106.064 29.7673C106.064 28.8875 107.049 28.6235 107.854 28.6235C108.571 28.6235 108.928 28.7995 109.376 28.9755C109.197 30.0313 108.302 30.7351 107.406 30.7351ZM116.807 24.9284L114.927 29.6793H114.837L112.868 24.9284H111.077L114.031 31.6149L112.331 35.3101H114.031L118.597 24.9284H116.807ZM101.767 31.9669H103.467V20.9691H101.767V31.9669Z" fill="#282A2D"/>
<path d="M49.0927 16.9799H48.1026L47.561 15.2278H45.6774L45.1607 16.9799H44.1973L46.0639 11.0142H47.2162L49.0927 16.9799ZM47.3979 14.4927L46.9078 12.935C46.8564 12.7753 46.7615 12.4041 46.6152 11.8113H46.5975C46.5372 12.0676 46.4513 12.4397 46.3219 12.935L45.8406 14.4927H47.3979ZM53.7602 12.6786L52.1771 16.9799H51.2739L49.7423 12.6786H50.7404L51.4548 14.9532C51.5753 15.3336 51.6782 15.6966 51.7552 16.0413H51.7809C51.8502 15.7322 51.9529 15.3692 52.0814 14.9532L52.787 12.6786H53.7602ZM57.1302 16.9799L57.061 16.4845H57.0353C56.7516 16.883 56.3386 17.0773 55.8139 17.0773C55.0658 17.0773 54.5322 16.5374 54.5322 15.8114C54.5322 14.7498 55.4265 14.2008 56.975 14.2008V14.1214C56.975 13.5551 56.6824 13.2715 56.1063 13.2715C55.6932 13.2715 55.3317 13.3781 55.0143 13.5906L54.8255 12.9623C55.2128 12.7141 55.6942 12.5901 56.2622 12.5901C57.3543 12.5901 57.9056 13.183 57.9056 14.3695V15.9537C57.9056 16.3878 57.9233 16.7243 57.9659 16.9807L57.1302 16.9799ZM57.0008 14.8375C55.9683 14.8375 55.4523 15.0946 55.4523 15.7048C55.4523 16.1563 55.7191 16.377 56.0887 16.377C56.5619 16.377 57.0008 16.0058 57.0008 15.5014V14.8375ZM59.9745 11.97C59.6652 11.97 59.4241 11.7219 59.4241 11.3945C59.4241 11.0671 59.6732 10.8282 59.9922 10.8282C60.3104 10.8282 60.5684 11.0671 60.5596 11.3945C60.5596 11.7402 60.3194 11.97 59.9745 11.97ZM60.4567 16.9799H59.5278V12.6786H60.4567V16.9799ZM63.036 16.9799H62.1071V10.7051H63.036V16.9799ZM66.9839 16.9799L66.9147 16.4845H66.8891C66.6054 16.883 66.1924 17.0773 65.6676 17.0773C64.9195 17.0773 64.3859 16.5374 64.3859 15.8114C64.3859 14.7498 65.2802 14.2008 66.8287 14.2008V14.1214C66.8287 13.5551 66.5362 13.2715 65.96 13.2715C65.547 13.2715 65.1854 13.3781 64.868 13.5906L64.6784 12.9614C65.0658 12.7132 65.5471 12.5892 66.1152 12.5892C67.2072 12.5892 67.7584 13.1821 67.7584 14.3685V15.9528C67.7584 16.3869 67.7772 16.7234 67.8179 16.9798H66.9839V16.9799ZM66.8545 14.8375C65.8219 14.8375 65.306 15.0946 65.306 15.7048C65.306 16.1563 65.5727 16.377 65.9423 16.377C66.4156 16.377 66.8545 16.0058 66.8545 15.5014V14.8375ZM71.5221 17.0774C70.9292 17.0774 70.4912 16.8202 70.2076 16.3159H70.189L70.1358 16.9799H69.3443C69.37 16.635 69.3789 16.2448 69.3789 15.8207V10.7051H70.3086V13.308H70.3264C70.602 12.8301 71.048 12.5911 71.6595 12.5911C72.6664 12.5911 73.3719 13.4767 73.3719 14.7681C73.3719 16.1034 72.5883 17.0774 71.5221 17.0774ZM71.3333 13.3417C70.7988 13.3417 70.3096 13.8196 70.3096 14.4836V15.236C70.3096 15.8288 70.7492 16.3159 71.3174 16.3159C72.0132 16.3159 72.4271 15.7322 72.4271 14.8028C72.4262 13.9354 71.9954 13.3417 71.3333 13.3417ZM75.6738 16.9799H74.7458V10.7051H75.6738V16.9799ZM80.7306 15.0591H77.9421C77.9606 15.8735 78.4835 16.3331 79.2583 16.3331C79.6713 16.3331 80.0498 16.262 80.3848 16.1298L80.5293 16.7937C80.134 16.9707 79.6695 17.0592 79.128 17.0592C77.8197 17.0592 77.0459 16.2091 77.0459 14.8912C77.0459 13.5724 77.8383 12.5811 79.0233 12.5811C80.0897 12.5811 80.7615 13.3956 80.7615 14.6259C80.7651 14.7937 80.7571 14.9441 80.7306 15.0591ZM79.8787 14.3778C79.8787 13.7138 79.5515 13.2451 78.9578 13.2451C78.4241 13.2451 78.004 13.7229 77.942 14.3778H79.8787ZM86.3606 17.0774C85.1392 17.0774 84.3477 16.1389 84.3477 14.8649C84.3477 13.5369 85.1561 12.5902 86.4307 12.5902C87.6335 12.5902 88.4436 13.484 88.4436 14.7946C88.4437 16.1389 87.6086 17.0774 86.3606 17.0774ZM86.3961 13.2888C85.7251 13.2888 85.2953 13.9345 85.2953 14.8375C85.2953 15.7231 85.7341 16.3688 86.3873 16.3688C87.0406 16.3688 87.4784 15.6783 87.4784 14.8192C87.4793 13.9436 87.0494 13.2888 86.3961 13.2888ZM93.4377 16.9799H92.5097V14.51C92.5097 13.7494 92.2254 13.3682 91.6668 13.3682C91.1163 13.3682 90.7369 13.8552 90.7369 14.4216V16.9799H89.8087V13.9081C89.8087 13.5278 89.7989 13.1201 89.7741 12.6777H90.5911L90.6346 13.3417H90.6609C90.9089 12.8821 91.4178 12.5893 91.9846 12.5893C92.861 12.5893 93.4377 13.2797 93.4377 14.4033V16.9799ZM99.5148 13.3956H98.4935V15.4841C98.4935 16.0158 98.6728 16.2812 99.034 16.2812C99.1979 16.2812 99.3364 16.2629 99.4469 16.2365L99.4732 16.9625C99.2921 17.0337 99.0494 17.0692 98.7516 17.0692C98.0191 17.0692 97.5818 16.6533 97.5818 15.5643V13.3956H96.9724V12.6786H97.5818V11.8907L98.4935 11.607V12.6777H99.5148V13.3956ZM104.435 16.9799H103.505V14.5283C103.505 13.7585 103.221 13.3691 102.662 13.3691C102.18 13.3691 101.734 13.7056 101.734 14.3869V16.9799H100.804V10.7051H101.734V13.2888H101.751C102.045 12.8201 102.466 12.5893 103.008 12.5893C103.893 12.5893 104.435 13.297 104.435 14.4216V16.9799ZM109.181 15.0591H106.393C106.411 15.8735 106.934 16.3331 107.709 16.3331C108.123 16.3331 108.5 16.262 108.835 16.1298L108.981 16.7937C108.585 16.9707 108.12 17.0592 107.578 17.0592C106.27 17.0592 105.497 16.2091 105.497 14.8912C105.497 13.5724 106.289 12.5811 107.474 12.5811C108.541 12.5811 109.213 13.3956 109.213 14.6259C109.215 14.7937 109.206 14.9441 109.181 15.0591ZM108.329 14.3778C108.329 13.7138 108.003 13.2451 107.409 13.2451C106.875 13.2451 106.455 13.7229 106.393 14.3778H108.329Z" fill="#282A2D"/>
</g>
<defs>
<linearGradient id="paint0_linear_2025_3417" x1="25.7177" y1="12.5107" x2="10.5164" y2="27.2118" gradientUnits="userSpaceOnUse">
<stop stop-color="#00A0FF"/>
<stop offset="0.007" stop-color="#00A1FF"/>
<stop offset="0.26" stop-color="#00BEFF"/>
<stop offset="0.512" stop-color="#00D2FF"/>
<stop offset="0.76" stop-color="#00DFFF"/>
<stop offset="1" stop-color="#00E3FF"/>
</linearGradient>
<linearGradient id="paint1_linear_2025_3417" x1="36.882" y1="23.0506" x2="14.5118" y2="23.0506" gradientUnits="userSpaceOnUse">
<stop stop-color="#FFE000"/>
<stop offset="0.409" stop-color="#FFBD00"/>
<stop offset="0.775" stop-color="#FFA500"/>
<stop offset="1" stop-color="#FF9C00"/>
</linearGradient>
<linearGradient id="paint2_linear_2025_3417" x1="28.7857" y1="24.8845" x2="7.56522" y2="44.9478" gradientUnits="userSpaceOnUse">
<stop stop-color="#FF3A44"/>
<stop offset="1" stop-color="#C31162"/>
</linearGradient>
<linearGradient id="paint3_linear_2025_3417" x1="13.307" y1="5.23676" x2="22.2816" y2="14.2105" gradientUnits="userSpaceOnUse">
<stop stop-color="#32A071"/>
<stop offset="0.069" stop-color="#2DA771"/>
<stop offset="0.476" stop-color="#15CF74"/>
<stop offset="0.801" stop-color="#06E775"/>
<stop offset="1" stop-color="#00F076"/>
</linearGradient>
<clipPath id="clip0_2025_3417">
<rect width="133" height="47" fill="white"/>
</clipPath>
</defs>
</svg>
