<svg width="35" height="34" viewBox="0 0 35 34" fill="none" xmlns="http://www.w3.org/2000/svg">
<path d="M24.2432 10.8392C24.2432 14.3446 21.1666 17.1961 17.3818 17.1961C13.5978 17.1961 10.5203 14.3446 10.5203 10.8392C10.5203 7.33266 13.5978 4.48047 17.3818 4.48047C21.1666 4.48047 24.2432 7.33266 24.2432 10.8392ZM20.2228 10.8392C20.2228 9.38742 18.9484 8.2069 17.3818 8.2069C15.8164 8.2069 14.5408 9.38742 14.5408 10.8392C14.5408 12.2898 15.8164 13.4711 17.3818 13.4711C18.9484 13.4711 20.2228 12.2898 20.2228 10.8392Z" fill="#434751"/>
<path d="M20.1754 22.3858C21.5721 22.091 22.9191 21.5789 24.1598 20.8568C25.0987 20.3082 25.3816 19.1582 24.79 18.2881C24.1988 17.4161 22.9585 17.1536 22.018 17.7022C19.2074 19.34 15.5888 19.3396 12.7798 17.7022C11.8393 17.1536 10.5986 17.4161 10.0086 18.2881C9.41704 19.1589 9.69909 20.3082 10.638 20.8568C11.8787 21.5782 13.2257 22.091 14.6224 22.3858L10.7862 25.9407C10.0021 26.6681 10.0021 27.8475 10.787 28.5749C11.1799 28.9382 11.6939 29.1201 12.2079 29.1201C12.7228 29.1201 13.2376 28.9382 13.6305 28.5749L17.3985 25.0817L21.1698 28.5749C21.9539 29.3023 23.2262 29.3023 24.0112 28.5749C24.797 27.8475 24.797 26.6674 24.0112 25.9407L20.1754 22.3858Z" fill="#434751"/>
</svg>
