<svg width="35" height="34" viewBox="0 0 35 34" fill="none" xmlns="http://www.w3.org/2000/svg">
<path fill-rule="evenodd" clip-rule="evenodd" d="M23.3647 3.9748H19.7505L23.3617 3.97484C23.5111 4.83318 23.9243 6.05504 25.017 7.26523C25.4553 7.72218 25.949 8.12617 26.4873 8.46843C26.6463 8.63473 27.4595 9.45689 28.5034 9.96162C29.0432 10.2225 29.6121 10.4224 30.199 10.5574V14.2982C30.199 14.2982 28.4456 14.2288 27.1469 13.895C25.3344 13.4282 24.1688 12.7123 24.1688 12.7123C24.1688 12.7123 23.3647 12.2017 23.2996 12.1655V22.028C23.2996 22.5771 23.1509 23.9489 22.6973 25.092C22.1542 26.4648 21.3405 27.4046 21.0798 27.7057C21.0563 27.7328 21.0373 27.7548 21.0233 27.7714C21.0233 27.7714 19.9114 29.0989 17.9513 29.9928C16.3312 30.7323 14.892 30.7765 14.3061 30.7945C14.2531 30.7961 14.2071 30.7976 14.1685 30.7993C14.1685 30.7993 11.4868 30.9066 9.0726 29.3212L9.06056 29.3125C8.80567 29.063 8.56573 28.7996 8.34195 28.5236C7.57276 27.5757 7.10079 26.4551 6.98119 26.1327C6.98105 26.1339 6.98107 26.1352 6.98125 26.1364C7.10172 26.4538 7.57216 27.5765 8.34258 28.5287C8.56636 28.8048 8.80629 29.0682 9.06119 29.3176C8.24451 28.7705 7.51616 28.109 6.89993 27.3547C6.18082 26.4686 5.72121 25.4319 5.56735 25.04C5.55793 25.016 5.54933 24.9936 5.54222 24.9746C5.54211 24.9728 5.54209 24.9709 5.54215 24.969C5.54214 24.969 5.54217 24.9691 5.54215 24.969C5.54216 24.9688 5.54221 24.9678 5.54222 24.9676V24.9635C5.35068 24.4074 4.9483 23.07 5.00432 21.7735C5.1013 19.4891 5.89641 18.0869 6.10663 17.7356C6.66253 16.7758 7.3865 15.9169 8.2462 15.1974C9.00431 14.5775 9.86381 14.0845 10.7893 13.7386C11.3666 13.5066 11.968 13.3354 12.5832 13.228C13.5102 13.0713 14.4569 13.0577 15.3883 13.1878V14.2672C14.3026 14.2845 13.2303 14.5023 12.229 14.9091C13.2294 14.5027 14.3006 14.2849 15.3853 14.2673V18.0543C15.3853 18.0543 13.4011 17.4183 11.8133 18.5444C10.7032 19.3777 10.1141 20.1905 9.9406 21.6423C9.93337 22.7107 10.2038 24.2225 11.6874 25.2308C11.8605 25.3417 12.0304 25.4401 12.197 25.5261C12.1981 25.5275 12.1992 25.5289 12.2003 25.5304C13.4334 26.1667 14.5375 26.1553 15.9051 25.6235C16.9393 25.2209 17.717 24.3135 18.0808 23.3081C18.3056 22.6884 18.3055 22.0646 18.3055 21.4206V2.80078H23.296C23.296 2.80078 23.24 3.26292 23.3647 3.9748ZM12.5608 25.9394C12.735 26.111 12.9257 26.2667 13.1307 26.4043C13.676 26.7532 14.1881 26.9799 14.6975 27.095C14.189 26.9795 13.6779 26.7526 13.1337 26.4042C12.9277 26.2669 12.736 26.1112 12.5608 25.9394ZM6.49342 24.0476C6.6015 24.9389 6.8441 25.7321 6.9805 26.1301C6.98043 26.1291 6.98047 26.1281 6.98062 26.1271C6.84463 25.7307 6.60201 24.9385 6.49342 24.0476Z" fill="#434751"/>
<path d="M5.56821 25.0424L5.62856 25.2077L5.62087 25.187C5.60926 25.1557 5.59109 25.1068 5.56821 25.0424Z" fill="#434751"/>
<path d="M30.199 9.52279L30.199 10.5574C29.6131 10.4222 29.0452 10.2223 28.5064 9.96158C27.4625 9.45685 26.6493 8.63469 26.4903 8.46839C26.6748 8.58575 26.8663 8.69252 27.0637 8.78815C28.3329 9.402 29.5828 9.58522 30.199 9.52279Z" fill="#434751"/>
</svg>
