<svg width="34" height="34" viewBox="0 0 34 34" fill="none" xmlns="http://www.w3.org/2000/svg">
<path d="M25.093 18.6681C24.7914 18.2589 24.7239 17.8447 24.8887 17.425C25.2999 16.3052 31.2895 9.19297 28.7944 9.19297C27.0798 9.21575 25.0178 9.19297 23.374 9.19297C23.0688 9.26724 22.8714 9.42739 22.7479 9.75322C21.7866 11.9696 20.6104 14.6744 18.8865 16.4128C18.6597 16.5956 18.5183 16.5879 18.2599 16.5202C17.0507 15.2472 18.3401 10.8855 17.6047 9.16206C17.4598 8.82471 17.1425 8.67234 16.818 8.58654C15.1762 8.19528 11.4267 8.42817 10.815 9.21575C10.6401 9.4409 10.6157 9.56377 10.7419 9.58397C11.3248 9.67594 11.7375 9.89592 11.9803 10.2437C12.4385 11.2527 12.7762 16.6274 11.4267 16.6274C10.0773 16.6274 7.90133 11.3527 7.30355 9.89049C7.14447 9.45022 6.73951 9.19782 6.31281 9.12331L2.3206 9.15384C1.61887 9.15384 1.22669 9.49999 1.47541 10.1974C3.55472 15.3588 8.10496 25.3633 15.0839 25.1129C15.783 25.1129 16.9857 25.3813 17.5317 24.7752C18.2821 23.7797 17.367 22.0068 18.6536 21.3306C18.9781 21.158 19.3145 21.3027 19.5932 21.515C21.0244 22.6047 21.7843 24.5175 23.5492 25.0981C23.8595 25.2004 24.1314 25.226 24.3649 25.1748L28.0947 25.1136C28.7872 25.1136 29.4693 24.8055 29.326 23.9776C28.7822 22.2023 26.6155 20.3774 25.093 18.6681Z" fill="#434751"/>
</svg>
