<svg width="34" height="34" viewBox="0 0 34 34" fill="none" xmlns="http://www.w3.org/2000/svg">
<path fill-rule="evenodd" clip-rule="evenodd" d="M5.9395 6.14557C3.76093 6.2535 2.01093 7.95935 1.86954 10.136C1.73409 12.2214 1.60059 14.7874 1.60059 16.8008C1.60059 18.8142 1.73409 21.3802 1.86954 23.4656C2.01093 25.6422 3.76093 27.3481 5.9395 27.456C9.09421 27.6123 13.6032 27.8008 17.0006 27.8008C20.398 27.8008 24.907 27.6123 28.0617 27.456C30.2402 27.3481 31.9902 25.6422 32.1316 23.4656C32.2671 21.3802 32.4006 18.8142 32.4006 16.8008C32.4006 14.7874 32.2671 12.2214 32.1316 10.136C31.9902 7.95935 30.2402 6.2535 28.0617 6.14557C24.907 5.98928 20.398 5.80078 17.0006 5.80078C13.6032 5.80078 9.09421 5.98928 5.9395 6.14557ZM22.5006 16.8007L13.7006 21.2007V12.4007L22.5006 16.8007Z" fill="#434751"/>
</svg>
