<svg width="603" height="370" viewBox="0 0 603 370" fill="none" xmlns="http://www.w3.org/2000/svg">
<path d="M494.41 -12.0897C537.909 26.2002 546.04 106.853 565.147 180.174C584.255 253.088 613.932 319.484 598.89 372.438C583.442 425.392 522.868 464.904 464.326 498.306C406.191 531.708 349.683 558.999 307.81 539.447C265.53 519.895 237.479 453.906 186.662 418.06C135.845 382.214 62.2614 376.512 26.4861 341.073C-9.69562 305.227 -8.47604 239.646 28.1123 202.985C64.294 166.732 135.438 159.4 185.442 123.147C235.446 86.4863 264.717 21.3121 318.38 -12.9044C372.449 -47.5281 450.911 -50.7868 494.41 -12.0897Z" fill="url(#paint0_linear_2103_5411)"/>
<defs>
<linearGradient id="paint0_linear_2103_5411" x1="301.5" y1="-40" x2="301.5" y2="546" gradientUnits="userSpaceOnUse">
<stop stop-color="#0DFFC5"/>
<stop offset="1" stop-color="#3354FF"/>
</linearGradient>
</defs>
</svg>
