<svg width="19" height="16" viewBox="0 0 19 16" fill="none" xmlns="http://www.w3.org/2000/svg">
<path d="M6.62012 13.249H12.0601" stroke="#434751" stroke-width="1.22414" stroke-linejoin="round"/>
<rect x="2.78027" y="1" width="13.44" height="10.4996" stroke="#434751" stroke-width="1.22414" stroke-linejoin="round"/>
<path d="M2.78 11.5H16.22L17.5 14.9999H1.5L2.78 11.5Z" stroke="#434751" stroke-width="1.22414" stroke-linejoin="round"/>
<path d="M5.73416 3.98377V6.55586H5.17952V4.46144H4.7002V3.98377H5.73416Z" fill="#434751"/>
<path d="M7.99245 3.98377V4.36958L7.10228 6.55586H6.49971L7.35906 4.46879H6.56476V4.88767H6.07174V3.98377H7.99245Z" fill="#434751"/>
<path d="M8.35293 6.58525C8.25935 6.58525 8.18061 6.55096 8.1167 6.48237C8.05279 6.41378 8.02083 6.32804 8.02083 6.22516C8.02083 6.11983 8.05279 6.03532 8.1167 5.97163C8.18061 5.90549 8.25935 5.87242 8.35293 5.87242C8.44652 5.87242 8.52526 5.90549 8.58917 5.97163C8.65308 6.03532 8.68503 6.11983 8.68503 6.22516C8.68503 6.32804 8.65308 6.41378 8.58917 6.48237C8.52526 6.55096 8.44652 6.58525 8.35293 6.58525Z" fill="#434751"/>
<path d="M10.0528 5.03098C10.2627 5.06772 10.4237 5.15223 10.5355 5.28451C10.6473 5.41434 10.7033 5.57601 10.7033 5.76953C10.7033 5.91896 10.6667 6.05736 10.5937 6.18474C10.5207 6.30967 10.4088 6.4101 10.2582 6.48604C10.1098 6.56198 9.92722 6.59995 9.71039 6.59995C9.54148 6.59995 9.37486 6.57668 9.21052 6.53014C9.04847 6.48114 8.91038 6.41255 8.79625 6.32437L9.01195 5.86874C9.10325 5.94223 9.20824 5.9998 9.32693 6.04144C9.4479 6.08063 9.57116 6.10023 9.69669 6.10023C9.83592 6.10023 9.94548 6.07206 10.0254 6.01572C10.1053 5.95693 10.1452 5.87487 10.1452 5.76953C10.1452 5.55887 9.9957 5.45353 9.69669 5.45353H9.44334V5.06037L9.93635 4.46144H8.91608V3.98377H10.5937V4.36958L10.0528 5.03098Z" fill="#434751"/>
<path d="M11.2435 3.80005C11.3394 3.80005 11.4181 3.83312 11.4798 3.89926C11.5414 3.96295 11.5722 4.04746 11.5722 4.15279C11.5722 4.20178 11.5665 4.25078 11.5551 4.29977C11.5437 4.34876 11.5197 4.42225 11.4832 4.52023L11.2846 5.04935H10.9457L11.0929 4.46879C11.0358 4.44185 10.9913 4.40143 10.9593 4.34754C10.9274 4.29364 10.9114 4.22873 10.9114 4.15279C10.9114 4.04746 10.9422 3.96295 11.0039 3.89926C11.0678 3.83312 11.1477 3.80005 11.2435 3.80005ZM12.0515 3.80005C12.1474 3.80005 12.2261 3.83312 12.2878 3.89926C12.3494 3.96295 12.3802 4.04746 12.3802 4.15279C12.3802 4.20178 12.3745 4.25078 12.3631 4.29977C12.3517 4.34876 12.3277 4.42225 12.2912 4.52023L12.0926 5.04935H11.7537L11.9009 4.46879C11.8438 4.44185 11.7993 4.40143 11.7673 4.34754C11.7354 4.29364 11.7194 4.22873 11.7194 4.15279C11.7194 4.04746 11.7502 3.96295 11.8119 3.89926C11.8758 3.83312 11.9557 3.80005 12.0515 3.80005Z" fill="#434751"/>
</svg>
