<svg width="24" height="24" viewBox="0 0 24 24" fill="none" xmlns="http://www.w3.org/2000/svg">
<path d="M17.5571 5.70612V4.5776C17.5571 3.6351 16.7956 2.87109 15.8633 2.87109H1.70561C0.773121 2.87109 0.0117188 3.6351 0.0117188 4.5776V6.31691C0.0117188 7.18158 0.65513 7.89774 1.48453 8.00837C1.37636 8.37531 1.40143 8.52347 1.40143 9.81289C1.40143 10.2905 1.5699 10.7303 1.85373 11.0696C1.57218 11.4088 1.40143 11.8486 1.40143 12.3238C1.40143 13.598 1.36882 13.7791 1.49697 14.1686C0.644955 14.377 0.0141557 15.1486 0.0141557 16.0735V17.3101C0.0141557 18.3907 0.886369 19.2629 1.957 19.2629H9.3538C10.8743 21.0976 13.159 22.2613 15.7026 22.2613C20.2742 22.2613 23.9966 18.5014 23.9966 13.8794C23.9964 9.90095 21.2419 6.5607 17.5571 5.70617L17.5571 5.70612ZM1.7057 6.61846C1.54739 6.61846 1.4166 6.48277 1.4166 6.31692V4.5776C1.4166 4.41176 1.54985 4.27606 1.7057 4.27606H15.8633C16.0217 4.27606 16.1524 4.41175 16.1524 4.5776V5.50749C14.4834 5.41457 12.9026 5.8292 11.5607 6.61847H1.70576L1.7057 6.61846ZM7.41588 14.1131H3.34434C3.04771 14.1131 2.80649 13.8668 2.80649 13.5602V12.3235C2.80649 12.0193 3.04772 11.773 3.34434 11.773H7.67727C7.48389 12.5197 7.39326 13.3063 7.41587 14.1131H7.41588ZM3.34434 10.3657C3.04771 10.3657 2.80649 10.117 2.80649 9.8128V8.57612C2.80649 8.26949 3.04772 8.02318 3.34434 8.02318H9.77845C9.11996 8.70183 8.57457 9.49357 8.17746 10.3657H3.34434ZM1.95708 17.8631C1.65799 17.8631 1.41676 17.6117 1.41676 17.3077L1.41658 16.0736C1.41658 15.7695 1.65782 15.5182 1.9569 15.5182H7.57194C7.73287 16.3527 8.01934 17.1394 8.40645 17.8657L1.95708 17.8655L1.95708 17.8631ZM15.705 20.8589C11.9073 20.8589 8.81845 17.7272 8.81845 13.8795C8.81845 10.0317 11.9073 6.90004 15.705 6.90004C19.5026 6.90004 22.5942 10.0317 22.5942 13.8795C22.5942 17.7274 19.5002 20.8589 15.705 20.8589Z" fill="#FFAC00"/>
</svg>
