<svg width="40" height="40" viewBox="0 0 40 40" fill="none" xmlns="http://www.w3.org/2000/svg">
<circle cx="20" cy="20" r="20" fill="#157FF8"/>
<path d="M10 19C10 15.2288 10 13.3431 11.1716 12.1716C12.3431 11 14.2288 11 18 11H22C25.7712 11 27.6569 11 28.8284 12.1716C30 13.3431 30 15.2288 30 19V19.5789C30 23.3502 30 25.2358 28.8284 26.4074C27.6569 27.5789 25.7712 27.5789 22 27.5789H16.9958C16.1095 27.5789 15.6664 27.5789 15.2474 27.6698C14.7827 27.7706 14.3397 27.9534 13.9392 28.2097C13.5781 28.4407 13.264 28.7532 12.6356 29.3782C11.8582 30.1516 11.4695 30.5383 11.1402 30.5849C10.7786 30.6361 10.4179 30.4861 10.1991 30.1936C10 29.9273 10 29.379 10 28.2824V19Z" fill="white" stroke="white" stroke-width="1.3" stroke-linejoin="round"/>
<circle cx="15.5" cy="19.5" r="0.75" stroke="#157FF8" stroke-width="1.5"/>
<circle cx="20" cy="19.5" r="0.75" stroke="#157FF8" stroke-width="1.5"/>
<circle cx="24.5" cy="19.5" r="0.75" stroke="#157FF8" stroke-width="1.5"/>
</svg>
