<svg width="40" height="40" viewBox="0 0 40 40" fill="none" xmlns="http://www.w3.org/2000/svg">
<circle cx="20" cy="20" r="20" fill="#157FF8"/>
<path d="M20 9C13.9247 9 9 13.9247 9 20C9 26.0753 13.9247 31 20 31C26.0753 31 31 26.0753 31 20C31 13.9247 26.0753 9 20 9ZM20 12.025C21.9745 12.025 23.575 13.6255 23.575 15.6C23.575 17.5745 21.9745 19.175 20 19.175C18.0255 19.175 16.425 17.5745 16.425 15.6C16.425 13.6255 18.0255 12.025 20 12.025ZM20 28.8C17.3182 28.8 14.9169 27.5999 13.3032 25.7068C12.8841 25.2151 12.9776 24.477 13.4935 24.0887C15.1622 22.8336 18.2026 22.2 20 22.2C21.7974 22.2 24.8378 22.8336 26.5076 24.0887C27.0235 24.477 27.117 25.2162 26.6979 25.7068C25.0831 27.5999 22.6818 28.8 20 28.8Z" fill="white"/>
</svg>
