<svg width="65" height="64" viewBox="0 0 65 64" fill="none" xmlns="http://www.w3.org/2000/svg">
<g clip-path="url(#clip0_872_93694)">
<path d="M44.5533 27.068C45.1431 26.4863 45.1497 25.5366 44.568 24.9467C43.9863 24.3569 43.0366 24.3503 42.4467 24.932L30.3182 36.8933L24.5533 31.2079C23.9634 30.6262 23.0137 30.6328 22.432 31.2226C21.8503 31.8124 21.8569 32.7622 22.4467 33.3439L29.2649 40.068C29.849 40.644 30.7874 40.644 31.3715 40.068L44.5533 27.068Z" fill="#49B737"/>
<path fill-rule="evenodd" clip-rule="evenodd" d="M64.5 32C64.5 49.6731 50.1731 64 32.5 64C14.8269 64 0.5 49.6731 0.5 32C0.5 14.3269 14.8269 0 32.5 0C50.1731 0 64.5 14.3269 64.5 32ZM61.5 32C61.5 48.0163 48.5163 61 32.5 61C16.4837 61 3.5 48.0163 3.5 32C3.5 15.9837 16.4837 3 32.5 3C48.5163 3 61.5 15.9837 61.5 32Z" fill="#49B737"/>
</g>
<defs>
<clipPath id="clip0_872_93694">
<rect width="64" height="64" fill="white" transform="translate(0.5)"/>
</clipPath>
</defs>
</svg>
