<svg width="16" height="16" viewBox="0 0 16 16" fill="none" xmlns="http://www.w3.org/2000/svg">
<path fill-rule="evenodd" clip-rule="evenodd" d="M8.89921 12.6757C8.52602 12.2686 8.55352 11.636 8.96064 11.2628L11.4292 8.99999L2 8.99999C1.44772 8.99999 1 8.55228 1 7.99999C1 7.44771 1.44772 6.99999 2 6.99999L11.4292 6.99999L8.96064 4.73715C8.55352 4.36396 8.52602 3.73139 8.89921 3.32427C9.2724 2.91715 9.90497 2.88965 10.3121 3.26284L14.6757 7.26284C14.8824 7.45225 15 7.71969 15 7.99999C15 8.2803 14.8824 8.54774 14.6757 8.73715L10.3121 12.7371C9.90497 13.1103 9.2724 13.0828 8.89921 12.6757Z" fill="white"/>
</svg>
