<svg width="16" height="16" viewBox="0 0 16 16" fill="none" xmlns="http://www.w3.org/2000/svg">
<path d="M4 13.3333L4 10.6667C4 10.3 4.3 10 4.66667 10C5.03333 10 5.33333 10.3 5.33333 10.6667L5.33333 13.3333C5.33333 13.7 5.03333 14 4.66667 14C4.3 14 4 13.7 4 13.3333ZM11.3333 14C10.9667 14 10.6667 13.7 10.6667 13.3333L10.6667 2.66667C10.6667 2.3 10.9667 2 11.3333 2C11.7 2 12 2.3 12 2.66667L12 13.3333C12 13.7 11.7 14 11.3333 14ZM7.33333 13.3333L7.33333 6.66667C7.33333 6.3 7.63333 6 8 6C8.36667 6 8.66667 6.3 8.66667 6.66667L8.66667 13.3333C8.66667 13.7 8.36667 14 8 14C7.63333 14 7.33333 13.7 7.33333 13.3333Z" fill="#B1B1BD"/>
</svg>
