<svg width="16" height="16" viewBox="0 0 16 16" fill="none" xmlns="http://www.w3.org/2000/svg">
<path fill-rule="evenodd" clip-rule="evenodd" d="M10.7671 11.7294C10.6554 11.8305 10.5578 11.9187 10.4782 11.9929C9.79223 12.6322 8.94556 13.3915 8.44023 13.8415C8.18756 14.0669 7.81089 14.0669 7.55823 13.8415C7.05289 13.3915 6.20623 12.6322 5.52023 11.9929C5.4407 11.9187 5.34323 11.8306 5.23157 11.7296C3.7332 10.3748 -0.322532 6.70752 2.07356 3.54086C2.81356 2.56286 3.93689 1.95286 5.16223 2.00286C5.9065 2.03327 6.51518 2.2695 6.97526 2.53884C7.64475 2.93079 7.99956 3.39286 7.99956 3.39286C7.99956 3.39286 8.35437 2.93079 9.02386 2.53884C9.48394 2.2695 10.0926 2.03327 10.8369 2.00286C12.0622 1.95286 13.1856 2.56286 13.9249 3.54086C16.3215 6.70735 12.2658 10.3744 10.7671 11.7294ZM6.95031 4.21568L6.94348 4.20766C6.93033 4.19244 6.90423 4.16319 6.86568 4.12425C6.80523 4.06319 6.71727 3.98146 6.60378 3.89368C6.57103 3.86835 6.53616 3.84252 6.49921 3.81654C6.16851 3.584 5.70195 3.35937 5.10787 3.33508C4.37832 3.30534 3.65114 3.66564 3.13682 4.34538C2.37675 5.34989 2.57285 6.50114 3.50944 7.90048C4.30385 9.08738 5.40192 10.0833 6.10569 10.7216C6.2263 10.831 6.33534 10.9299 6.42928 11.0175C6.93056 11.4846 7.52183 12.0195 7.99923 12.4475C8.47662 12.0195 9.06789 11.4846 9.56918 11.0175C9.66321 10.9298 9.77236 10.8308 9.89312 10.7213C10.597 10.083 11.6949 9.08718 12.4893 7.90044C13.4259 6.50113 13.622 5.34999 12.8617 4.34552L12.8613 4.34491C12.3478 3.66568 11.6209 3.30534 10.8913 3.33508C10.7335 3.34153 10.5848 3.36211 10.4452 3.3932C10.2896 3.42786 10.1453 3.47559 10.0127 3.5314C9.8161 3.6141 9.64494 3.71456 9.49991 3.81654C9.33492 3.93256 9.21133 4.04557 9.13344 4.12425C9.09489 4.16319 9.06879 4.19244 9.05565 4.20766L9.04882 4.21567L7.99956 5.58213L6.95031 4.21568Z" fill="#B1B1BD"/>
</svg>
