<svg width="151" height="28" viewBox="0 0 151 28" fill="none" xmlns="http://www.w3.org/2000/svg">
<g clip-path="url(#clip0_1762_11726)">
<path d="M103.415 14.3768C103.417 14.8504 103.277 15.3135 103.014 15.7078C102.751 16.1021 102.376 16.4097 101.937 16.5914C101.499 16.7733 101.016 16.8211 100.55 16.729C100.084 16.6368 99.6558 16.4091 99.3198 16.0741C98.984 15.7394 98.7553 15.3127 98.6631 14.8482C98.5706 14.3837 98.6186 13.9023 98.8011 13.4651C98.9834 13.0278 99.2918 12.6543 99.6873 12.3921C100.083 12.1298 100.548 11.9904 101.023 11.9917C101.657 11.9917 102.266 12.243 102.714 12.6903C103.163 13.1376 103.415 13.7442 103.415 14.3768Z" fill="#157FF8"/>
<path d="M21.3867 21.2949L28.1192 28H42.755L28.7046 14L21.3867 21.2949ZM42.755 0H28.1192L21.3867 6.70504L28.7046 14L42.755 0Z" fill="#E3EDFF"/>
<path d="M21.3619 6.70504L14.6295 0H0L14.044 14L0 28H14.6295L21.3619 21.2949L28.6799 14L21.3619 6.70504Z" fill="#157FF8"/>
<path d="M45.1463 8.77844H48.6715L50.2496 11.4173L50.8861 12.6861L51.6242 11.3539L53.1133 8.75941H56.4159L52.9796 14.2529L56.7977 20.0698H53.2531L51.3443 17.063L50.6696 15.7944L49.9442 17.1075L48.1498 20.0698H44.8535L48.6715 14.2529L45.1463 8.77844ZM65.3119 8.91165L65.1336 11.0494C64.8605 10.9345 64.5742 10.8535 64.2809 10.8083C63.9542 10.7626 63.6246 10.7414 63.2947 10.7449C62.8181 10.7273 62.3435 10.8135 61.904 10.9975C61.4643 11.1816 61.0703 11.4591 60.7493 11.8106C60.1029 12.5432 59.7594 13.4932 59.7885 14.4685C59.7397 15.4392 60.073 16.3907 60.7176 17.1201C61.0226 17.4454 61.394 17.7018 61.8066 17.8724C62.2191 18.0431 62.6636 18.1241 63.1102 18.1097C63.5075 18.1095 63.9038 18.0711 64.2939 17.9954C64.6686 17.925 65.0353 17.8163 65.3882 17.6719L65.4964 19.8097C65.0485 19.9455 64.5912 20.0496 64.1282 20.1204C63.6192 20.203 63.1037 20.2448 62.5883 20.2475C61.7261 20.2981 60.8643 20.1472 60.0709 19.8069C59.2777 19.4666 58.5751 18.9461 58.0195 18.2874C57.117 17.1627 56.6435 15.756 56.6831 14.3163C56.6508 12.8936 57.168 11.5129 58.1276 10.4595C58.7262 9.83002 59.4555 9.33825 60.2644 9.01833C61.0733 8.69845 61.9422 8.55814 62.8111 8.60716C63.6539 8.60698 64.4937 8.70924 65.3119 8.91165ZM65.7064 14.4241C65.669 13.6523 65.7871 12.8808 66.0538 12.1551C66.3205 11.4295 66.7304 10.7645 67.2592 10.1994C68.4529 9.17212 69.9774 8.60693 71.5544 8.60693C73.1314 8.60693 74.6559 9.17212 75.8498 10.1994C76.8525 11.3812 77.4029 12.8793 77.4029 14.4272C77.4029 15.9752 76.8525 17.4732 75.8498 18.6552C74.6559 19.6823 73.1314 20.2476 71.5544 20.2476C69.9774 20.2476 68.4529 19.6823 67.2592 18.6552C66.7299 18.089 66.3199 17.4229 66.0532 16.6964C65.7864 15.9696 65.6686 15.197 65.7064 14.4241ZM68.8053 14.4241C68.742 15.3943 69.0137 16.3569 69.5754 17.1518C69.8071 17.4518 70.105 17.695 70.4459 17.8621C70.7868 18.0294 71.1618 18.1163 71.5416 18.1163C71.9216 18.1163 72.2964 18.0294 72.6374 17.8621C72.9782 17.695 73.2761 17.4518 73.508 17.1518C74.0793 16.3657 74.3582 15.4057 74.2969 14.4368C74.3502 13.4747 74.0767 12.5227 73.5207 11.7345C73.2903 11.4322 72.9931 11.1871 72.6519 11.0183C72.3109 10.8496 71.9353 10.7618 71.5544 10.7618C71.1736 10.7618 70.7979 10.8496 70.4568 11.0183C70.1157 11.1871 69.8184 11.4322 69.588 11.7345C69.027 12.5158 68.7508 13.4648 68.8053 14.4241ZM81.4685 20.0698H78.4967V8.77844H81.3158V10.6815C81.614 10.0318 82.1078 9.49075 82.7286 9.13368C83.3767 8.76325 84.1134 8.57474 84.8603 8.58813C85.3983 8.57474 85.9333 8.67189 86.432 8.87358C86.8128 9.03777 87.1499 9.28849 87.4163 9.60571C87.6825 9.92292 87.8707 10.2979 87.9656 10.7005C88.3408 10.0517 88.8835 9.51497 89.5374 9.14636C90.2108 8.76875 90.9729 8.57611 91.7456 8.58813C93.2218 8.58813 94.2463 9.10195 94.8316 10.1359C95.2189 10.8747 95.4077 11.7008 95.3789 12.5338V20.0508H92.4009V13.7073C92.4264 13.1416 92.3686 12.5752 92.229 12.0263C92.135 11.708 91.9335 11.4319 91.6588 11.2447C91.3839 11.0574 91.0527 10.9705 90.7209 10.9986C90.4074 10.994 90.0969 11.0601 89.8127 11.1919C89.5284 11.3237 89.2776 11.5179 89.0792 11.7599C88.6239 12.3477 88.3978 13.0802 88.4429 13.8215V20.0634H85.4521V13.72C85.4829 13.1153 85.4075 12.51 85.2293 11.9311C85.1268 11.6438 84.9325 11.398 84.6761 11.2319C84.4194 11.0656 84.1154 10.9882 83.8103 11.0113C83.5052 11.0036 83.2022 11.0619 82.9221 11.1823C82.6417 11.3028 82.3914 11.4826 82.1876 11.7091C81.6854 12.3005 81.4284 13.0604 81.4685 13.8342V20.0698Z" fill="#1F1C34"/>
<path d="M114.264 9.08675L113.997 11.2182C113.582 11.0619 113.156 10.9327 112.724 10.8312C112.306 10.7331 111.88 10.6821 111.451 10.679C110.87 10.6264 110.289 10.7791 109.81 11.1103C109.7 11.2007 109.612 11.3141 109.552 11.4425C109.491 11.5708 109.46 11.7108 109.46 11.8525C109.467 12.0833 109.543 12.3066 109.68 12.4933C109.816 12.68 110.005 12.8215 110.224 12.8992C110.357 12.9562 110.675 13.0704 111.191 13.2481C111.931 13.4424 112.632 13.7599 113.265 14.1869C113.677 14.5119 114.005 14.9304 114.221 15.4076C114.438 15.8847 114.536 16.4067 114.509 16.9296C114.481 17.4524 114.329 17.9612 114.064 18.4134C113.798 18.8655 113.429 19.2477 112.985 19.5281C112.105 20.0237 111.107 20.2715 110.096 20.2448C109.456 20.238 108.817 20.1765 108.187 20.061C107.561 19.9527 106.944 19.7959 106.342 19.5914L106.469 17.2825C106.998 17.5044 107.542 17.6866 108.098 17.828C108.609 17.9639 109.135 18.0361 109.664 18.0438C110.163 18.0827 110.662 17.9556 111.082 17.6821C111.224 17.5866 111.34 17.4582 111.421 17.308C111.502 17.1576 111.545 16.9901 111.547 16.8194C111.543 16.6079 111.482 16.4011 111.37 16.2214C111.258 16.0415 111.099 15.8953 110.911 15.7982C110.471 15.5764 110.016 15.3877 109.548 15.2334C108.593 14.9602 107.726 14.4418 107.035 13.7301C106.67 13.2067 106.487 12.5785 106.514 11.9413C106.501 11.5258 106.575 11.1122 106.729 10.726C106.883 10.3398 107.115 9.98916 107.411 9.69573C107.849 9.30707 108.361 9.01017 108.916 8.82273C109.471 8.63529 110.059 8.56114 110.644 8.60465C111.281 8.60206 111.92 8.64233 112.552 8.72519C113.132 8.79651 113.705 8.91748 114.264 9.08675ZM115.683 20.0671V3.70117H118.655V8.77592L118.547 10.5267C119.052 9.81672 119.749 9.26455 120.558 8.93452C121.085 8.71003 121.651 8.59149 122.225 8.58562C122.759 8.55601 123.293 8.63213 123.798 8.8096C124.304 8.98707 124.768 9.26236 125.165 9.61961C125.534 10.0143 125.818 10.4802 126 10.9886C126.182 11.497 126.257 12.0372 126.222 12.5757V20.0482H123.262V13.5589C123.293 12.9842 123.195 12.4099 122.976 11.8779C122.823 11.5856 122.585 11.346 122.293 11.19C122.001 11.0339 121.669 10.9687 121.34 11.0025C121.018 10.9983 120.697 11.0603 120.4 11.1847C120.101 11.3091 119.833 11.4932 119.609 11.7256C119.279 12.0914 119.024 12.5194 118.863 12.9848C118.701 13.45 118.635 13.9429 118.668 14.4343V20.0671H115.683ZM127.316 14.4216C127.255 13.6401 127.365 12.8548 127.639 12.1199C127.912 11.385 128.342 10.7181 128.9 10.165C129.457 9.612 130.128 9.18608 130.866 8.91669C131.604 8.64728 132.392 8.54083 133.176 8.60465C133.963 8.56186 134.75 8.68115 135.487 8.95511C136.225 9.22906 136.898 9.65178 137.465 10.1969C138.468 11.3788 139.019 12.8768 139.019 14.4247C139.019 15.9728 138.468 17.4708 137.465 18.6527C136.27 19.6804 134.744 20.2459 133.167 20.2459C131.589 20.2459 130.063 19.6804 128.869 18.6527C128.339 18.0866 127.928 17.4206 127.662 16.6938C127.395 15.967 127.278 15.1944 127.316 14.4216ZM130.42 14.4216C130.359 15.3908 130.628 16.3522 131.184 17.1493C131.417 17.4494 131.715 17.6926 132.056 17.8596C132.399 18.0269 132.774 18.1139 133.154 18.1139C133.534 18.1139 133.91 18.0269 134.251 17.8596C134.593 17.6926 134.891 17.4494 135.123 17.1493C135.692 16.3616 135.971 15.4027 135.913 14.4343C135.966 13.4722 135.692 12.5202 135.136 11.732C134.905 11.4296 134.608 11.1845 134.265 11.0157C133.924 10.847 133.548 10.7592 133.167 10.7592C132.785 10.7592 132.41 10.847 132.068 11.0157C131.726 11.1845 131.428 11.4296 131.197 11.732C130.641 12.5155 130.368 13.4634 130.42 14.4216ZM142.645 24.736H139.673V8.77592H142.275V10.7424C142.643 10.1151 143.161 9.58942 143.784 9.21362C144.452 8.79823 145.224 8.57842 146.011 8.57928C146.669 8.5489 147.325 8.66853 147.929 8.92905C148.533 9.18958 149.07 9.58414 149.498 10.0827C150.351 11.085 150.771 12.5249 150.771 14.3962C150.771 16.4344 150.231 17.9612 149.148 18.9762C148.713 19.3935 148.2 19.7207 147.637 19.9383C147.075 20.1561 146.474 20.2603 145.871 20.2448C145.143 20.2615 144.424 20.0818 143.791 19.7247C143.316 19.4228 142.914 19.0199 142.613 18.5448V20.3971L142.645 24.736ZM142.645 14.4216C142.594 15.3246 142.849 16.2184 143.371 16.959C143.57 17.2487 143.836 17.4856 144.148 17.6493C144.459 17.813 144.806 17.8983 145.158 17.8977C145.51 17.898 145.856 17.814 146.168 17.6527C146.481 17.4916 146.75 17.258 146.952 16.9716C147.428 16.2102 147.68 15.3312 147.68 14.4343C147.68 13.5374 147.428 12.6584 146.952 11.8969C146.752 11.609 146.484 11.3739 146.172 11.2115C145.86 11.0491 145.514 10.9642 145.162 10.9642C144.809 10.9642 144.464 11.0491 144.151 11.2115C143.839 11.3739 143.571 11.609 143.371 11.8969C142.853 12.6342 142.597 13.5229 142.645 14.4216Z" fill="#157FF8"/>
</g>
<defs>
<clipPath id="clip0_1762_11726">
<rect width="151" height="28" fill="white"/>
</clipPath>
</defs>
</svg>
