<svg width="17" height="16" viewBox="0 0 17 16" fill="none" xmlns="http://www.w3.org/2000/svg">
<path d="M7.75 5.375C7.75 4.96079 8.08579 4.625 8.5 4.625C8.91421 4.625 9.25 4.96079 9.25 5.375C9.25 5.78921 8.91421 6.125 8.5 6.125C8.08579 6.125 7.75 5.78921 7.75 5.375Z" fill="#B1B1BD"/>
<path d="M9.0625 7.25C9.0625 6.93934 8.81066 6.6875 8.5 6.6875C8.18934 6.6875 7.9375 6.93934 7.9375 7.25V10.625C7.9375 10.9357 8.18934 11.1875 8.5 11.1875C8.81066 11.1875 9.0625 10.9357 9.0625 10.625V7.25Z" fill="#B1B1BD"/>
<path fill-rule="evenodd" clip-rule="evenodd" d="M8.5 14C11.8137 14 14.5 11.3137 14.5 8C14.5 4.68629 11.8137 2 8.5 2C5.18629 2 2.5 4.68629 2.5 8C2.5 11.3137 5.18629 14 8.5 14ZM8.5 12.875C11.1924 12.875 13.375 10.6924 13.375 8C13.375 5.30761 11.1924 3.125 8.5 3.125C5.80761 3.125 3.625 5.30761 3.625 8C3.625 10.6924 5.80761 12.875 8.5 12.875Z" fill="#B1B1BD"/>
</svg>
