<svg width="107" height="40" viewBox="0 0 107 40" fill="none" xmlns="http://www.w3.org/2000/svg">
<g clip-path="url(#clip0_1785_4079)">
<path d="M0 12.3077C0 7.99962 0 5.84555 0.839011 4.20007C1.57703 2.75267 2.75465 1.5759 4.20309 0.838408C5.84975 0 8.00537 0 12.3165 0H94.6834C98.995 0 101.15 0 102.797 0.838408C104.246 1.5759 105.423 2.75267 106.161 4.20007C107 5.84555 107 7.99962 107 12.3077V27.6923C107 32.0004 107 34.1545 106.161 35.7999C105.423 37.2473 104.246 38.4241 102.797 39.1616C101.15 40 98.995 40 94.6834 40H12.3165C8.00537 40 5.84975 40 4.20309 39.1616C2.75465 38.4241 1.57703 37.2473 0.839011 35.7999C0 34.1545 0 32.0004 0 27.6923V12.3077Z" fill="white"/>
<path d="M27.0025 19.9429C26.9807 17.5127 28.998 16.3304 29.0902 16.2753C27.9477 14.6141 26.1769 14.3872 25.5547 14.369C24.0674 14.213 22.6247 15.2566 21.8671 15.2566C21.0943 15.2566 19.9276 14.3841 18.6702 14.4098C17.0521 14.4347 15.5385 15.3689 14.7082 16.8197C12.9949 19.7778 14.2726 24.1248 15.9142 26.5159C16.7353 27.6877 17.6949 28.9944 18.9508 28.9484C20.1794 28.8987 20.6384 28.168 22.1211 28.168C23.5902 28.168 24.0212 28.9484 25.3021 28.919C26.6208 28.8987 27.4509 27.7427 28.2434 26.5611C29.1923 25.2197 29.5734 23.8971 29.5886 23.8293C29.5582 23.8187 27.0283 22.855 27.0025 19.9429ZM24.583 12.7961C25.2437 11.972 25.696 10.8507 25.5705 9.71289C24.6139 9.75512 23.4178 10.3727 22.7289 11.1787C22.1195 11.889 21.5751 13.0533 21.7157 14.1481C22.7902 14.228 23.8934 13.6075 24.583 12.7961Z" fill="#1F1C34"/>
<path d="M44.5269 28.0642H42.8665L41.9569 25.3625H38.7954L37.929 28.0642H36.3125L39.4454 18.8665H41.3801L44.5269 28.0642ZM41.6828 24.229L40.8603 21.8273C40.7733 21.5819 40.6095 21.0042 40.3696 20.0946H40.3405C40.2439 20.4859 40.0897 21.0636 39.8784 21.8273L39.0697 24.229H41.6828ZM52.5682 24.6665C52.5682 25.7945 52.2443 26.686 51.5956 27.3405C51.0152 27.9232 50.2936 28.2142 49.4329 28.2142C48.5036 28.2142 47.8354 27.901 47.4296 27.2735V30.7534H45.8708V23.6119C45.8708 22.9034 45.8511 22.177 45.8131 21.432H47.184L47.271 22.4832H47.3002C47.82 21.6912 48.609 21.2951 49.6676 21.2951C50.4953 21.2951 51.1863 21.604 51.739 22.2226C52.291 22.8426 52.5682 23.6568 52.5682 24.6665ZM50.98 24.7204C50.98 24.0749 50.8265 23.5427 50.5179 23.1232C50.1809 22.6871 49.7283 22.4688 49.161 22.4688C48.7764 22.4688 48.4269 22.5903 48.1147 22.8302C47.8018 23.0721 47.597 23.3879 47.5013 23.7791C47.453 23.9615 47.429 24.1102 47.429 24.2277V25.3342C47.429 25.8159 47.5854 26.223 47.8983 26.5562C48.2113 26.8879 48.6178 27.0544 49.1179 27.0544C49.7051 27.0544 50.162 26.8395 50.4888 26.413C50.8162 25.9852 50.98 25.4212 50.98 24.7204ZM60.6378 24.6665C60.6378 25.7945 60.3138 26.686 59.6654 27.3405C59.0841 27.9232 58.3632 28.2142 57.5019 28.2142C56.5726 28.2142 55.9044 27.901 55.4985 27.2735V30.7534H53.9397V23.6119C53.9397 22.9034 53.92 22.177 53.882 21.432H55.2529L55.3399 22.4832H55.3691C55.8883 21.6912 56.6771 21.2951 57.7365 21.2951C58.5634 21.2951 59.2544 21.604 59.8086 22.2226C60.36 22.8426 60.6378 23.6568 60.6378 24.6665ZM59.049 24.7204C59.049 24.0749 58.8947 23.5427 58.5861 23.1232C58.2491 22.6871 57.798 22.4688 57.2306 22.4688C56.846 22.4688 56.4965 22.5903 56.1829 22.8302C55.8699 23.0721 55.666 23.3879 55.5702 23.7791C55.5227 23.9615 55.4971 24.1102 55.4971 24.2277V25.3342C55.4971 25.8159 55.6543 26.223 55.9657 26.5562C56.2787 26.8872 56.6851 27.0544 57.1867 27.0544C57.7745 27.0544 58.2315 26.8395 58.5576 26.413C58.8852 25.9852 59.049 25.4212 59.049 24.7204ZM69.6601 25.4841C69.6601 26.2672 69.3706 26.9037 68.7952 27.3951C68.162 27.9315 67.2781 28.2003 66.1448 28.2003C65.0977 28.2003 64.2584 28.0095 63.6252 27.6273L63.9857 26.3992C64.6693 26.7821 65.4202 26.9729 66.2376 26.9729C66.8254 26.9729 67.2824 26.847 67.6085 26.5975C67.9352 26.3473 68.1006 26.0129 68.1006 25.5954C68.1006 25.2215 67.9639 24.9084 67.6955 24.6535C67.4257 24.3991 66.9797 24.162 66.3532 23.9443C64.6496 23.3437 63.797 22.4653 63.797 21.3097C63.797 20.555 64.0982 19.9371 64.6994 19.454C65.3003 18.9716 66.0973 18.7305 67.0887 18.7305C67.9741 18.7305 68.7119 18.8763 69.2975 19.1672L68.9064 20.3684C68.3551 20.0864 67.7328 19.9454 67.0367 19.9454C66.487 19.9454 66.0556 20.0732 65.747 20.3276C65.4875 20.555 65.3558 20.8322 65.3558 21.1611C65.3558 21.524 65.5058 21.8254 65.804 22.0617C66.0629 22.2794 66.5352 22.5165 67.2181 22.7709C68.0559 23.0902 68.6715 23.462 69.0657 23.8891C69.4627 24.3161 69.6601 24.8489 69.6601 25.4841ZM74.8272 22.5378H73.109V25.7578C73.109 26.5768 73.4117 26.9852 74.0185 26.9852C74.297 26.9852 74.5281 26.9631 74.7109 26.9169L74.754 28.0358C74.447 28.1444 74.0426 28.1989 73.5417 28.1989C72.9261 28.1989 72.445 28.0213 72.0978 27.666C71.7519 27.3108 71.5779 26.7157 71.5779 25.8781V22.535H70.5543V21.4292H71.5779V20.2149L73.109 19.7781V21.4292H74.8272V22.5378ZM82.5642 24.6935C82.5642 25.7129 82.2555 26.5498 81.6397 27.2044C80.9962 27.8782 80.1386 28.2141 79.0709 28.2141C78.0394 28.2141 77.2204 27.8913 76.6089 27.2465C75.9976 26.6002 75.692 25.7862 75.692 24.804C75.692 23.7762 76.0079 22.9345 76.6374 22.28C77.2681 21.6248 78.1179 21.2972 79.1864 21.2972C80.2156 21.2972 81.0424 21.6207 81.6682 22.2662C82.2663 22.8924 82.5642 23.701 82.5642 24.6935ZM80.9484 24.7273C80.9484 24.1198 80.8091 23.5986 80.5304 23.1625C80.2041 22.6359 79.736 22.3726 79.1302 22.3726C78.5051 22.3726 78.0263 22.6359 77.7007 23.1625C77.4213 23.5986 77.282 24.1288 77.282 24.7549C77.282 25.3632 77.4213 25.8856 77.7007 26.3204C78.0379 26.847 78.5074 27.1104 79.1171 27.1104C79.7129 27.1104 80.1802 26.8415 80.5174 26.3072C80.8045 25.8608 80.9484 25.3362 80.9484 24.7273ZM87.6332 22.7279C87.4793 22.7009 87.3138 22.687 87.1421 22.687C86.5933 22.687 86.1691 22.882 85.8712 23.2745C85.6126 23.6201 85.4825 24.0569 85.4825 24.5842V28.0641H83.9237V23.5206C83.9237 22.7569 83.9083 22.0602 83.8782 21.4327H85.2361L85.2931 22.7015H85.3362C85.5009 22.2655 85.7604 21.9136 86.1152 21.6503C86.4624 21.4133 86.8381 21.2951 87.2422 21.2951C87.3861 21.2951 87.5162 21.3048 87.6317 21.3221L87.6332 22.7279ZM94.6044 24.4343C94.6044 24.6983 94.5867 24.9208 94.5474 25.1026H89.871C89.8887 25.7578 90.1158 26.2595 90.55 26.6052C90.9441 26.9135 91.4537 27.0682 92.0795 27.0682C92.7716 27.0682 93.4035 26.9645 93.9716 26.7551L94.2157 27.7773C93.5521 28.051 92.7677 28.1872 91.8632 28.1872C90.7755 28.1872 89.9218 27.8844 89.2998 27.2804C88.6801 26.6756 88.3692 25.8629 88.3692 24.8449C88.3692 23.8454 88.6586 23.0126 89.2367 22.3485C89.8418 21.6393 90.66 21.2847 91.6892 21.2847C92.7007 21.2847 93.4659 21.6392 93.9863 22.3485C94.3973 22.9103 94.6044 23.607 94.6044 24.4343ZM93.118 24.0521C93.1295 23.6146 93.0271 23.2379 92.8154 22.9193C92.546 22.5088 92.1303 22.3042 91.5738 22.3042C91.0642 22.3042 90.6493 22.5039 90.3336 22.9048C90.0735 23.2234 89.9195 23.6063 89.8718 24.0507L93.118 24.0521Z" fill="#1F1C34"/>
<path d="M40.9688 15.0404H40.1408L39.6879 13.5528H38.1128L37.6807 15.0404H36.875L38.436 9.97535H39.3996L40.9688 15.0404ZM39.5515 12.9287L39.1416 11.6061C39.0986 11.4707 39.0193 11.1555 38.897 10.6521H38.8822C38.8318 10.8697 38.7599 11.1857 38.6517 11.6061L38.2492 12.9287H39.5515ZM44.8719 11.3886L43.5481 15.0404H42.7928L41.512 11.3886H42.3466L42.9441 13.3197C43.0448 13.6427 43.1308 13.9508 43.1953 14.2436H43.2168C43.2747 13.981 43.3606 13.6729 43.468 13.3197L44.0581 11.3886H44.8719ZM47.69 15.0404L47.6322 14.6198H47.6106C47.3735 14.9582 47.0281 15.1231 46.5894 15.1231C45.9637 15.1231 45.5174 14.6647 45.5174 14.0484C45.5174 13.147 46.2654 12.6809 47.5602 12.6809V12.6135C47.5602 12.1327 47.3157 11.8918 46.8339 11.8918C46.4884 11.8918 46.1861 11.9824 45.9207 12.1628L45.7628 11.6293C46.0867 11.4187 46.4892 11.3134 46.9643 11.3134C47.8774 11.3134 48.3385 11.8167 48.3385 12.8241V14.1691C48.3385 14.5377 48.3533 14.8234 48.3889 15.041L47.69 15.0404ZM47.5819 13.2214C46.7184 13.2214 46.2869 13.4398 46.2869 13.9578C46.2869 14.3411 46.51 14.5285 46.8191 14.5285C47.2148 14.5285 47.5819 14.2134 47.5819 13.7851V13.2214ZM50.0686 10.7869C49.8099 10.7869 49.6083 10.5763 49.6083 10.2983C49.6083 10.0203 49.8166 9.81743 50.0834 9.81743C50.3495 9.81743 50.5652 10.0203 50.5578 10.2983C50.5578 10.5917 50.357 10.7869 50.0686 10.7869ZM50.4718 15.0404H49.695V11.3886H50.4718V15.0404ZM52.6287 15.0404H51.8519V9.71289H52.6287V15.0404ZM55.9301 15.0404L55.8722 14.6198H55.8508C55.6136 14.9582 55.2682 15.1231 54.8294 15.1231C54.2038 15.1231 53.7576 14.6647 53.7576 14.0484C53.7576 13.147 54.5054 12.6809 55.8003 12.6809V12.6135C55.8003 12.1327 55.5557 11.8918 55.0739 11.8918C54.7285 11.8918 54.4261 11.9824 54.1607 12.1628L54.0022 11.6285C54.3261 11.4179 54.7286 11.3126 55.2037 11.3126C56.1169 11.3126 56.5779 11.8159 56.5779 12.8234V14.1684C56.5779 14.537 56.5935 14.8227 56.6276 15.0403H55.9301V15.0404ZM55.8219 13.2214C54.9584 13.2214 54.527 13.4398 54.527 13.9578C54.527 14.3411 54.75 14.5285 55.0591 14.5285C55.4549 14.5285 55.8219 14.2134 55.8219 13.7851V13.2214ZM59.7252 15.1232C59.2293 15.1232 58.863 14.9048 58.6259 14.4767H58.6103L58.5658 15.0404H57.904C57.9254 14.7477 57.9328 14.4162 57.9328 14.0561V9.71289H58.7104V11.9228H58.7252C58.9556 11.5171 59.3286 11.3142 59.84 11.3142C60.682 11.3142 61.272 12.0661 61.272 13.1626C61.272 14.2962 60.6168 15.1232 59.7252 15.1232ZM59.5672 11.9515C59.1203 11.9515 58.7112 12.3573 58.7112 12.921V13.5598C58.7112 14.0631 59.0787 14.4767 59.5539 14.4767C60.1358 14.4767 60.482 13.981 60.482 13.192C60.4811 12.4556 60.1209 11.9515 59.5672 11.9515ZM63.1969 15.0404H62.421V9.71289H63.1969V15.0404ZM67.4257 13.4096H65.0938C65.1094 14.101 65.5466 14.4914 66.1944 14.4914C66.5398 14.4914 66.8563 14.431 67.1365 14.3187L67.2573 14.8824C66.9268 15.0326 66.5383 15.1077 66.0855 15.1077C64.9914 15.1077 64.3444 14.386 64.3444 13.2671C64.3444 12.1474 65.0071 11.3057 65.998 11.3057C66.8897 11.3057 67.4515 11.9972 67.4515 13.0417C67.4544 13.1843 67.4478 13.312 67.4257 13.4096ZM66.7133 12.8311C66.7133 12.2674 66.4397 11.8694 65.9431 11.8694C65.4969 11.8694 65.1456 12.2752 65.0937 12.8311H66.7133ZM72.1337 15.1232C71.1124 15.1232 70.4504 14.3264 70.4504 13.2447C70.4504 12.1172 71.1265 11.3134 72.1923 11.3134C73.198 11.3134 73.8756 12.0723 73.8756 13.185C73.8757 14.3264 73.1774 15.1232 72.1337 15.1232ZM72.1634 11.9066C71.6023 11.9066 71.2429 12.4548 71.2429 13.2214C71.2429 13.9733 71.6097 14.5215 72.1561 14.5215C72.7023 14.5215 73.0684 13.9354 73.0684 13.206C73.0692 12.4626 72.7097 11.9066 72.1634 11.9066ZM78.0512 15.0404H77.2753V12.9434C77.2753 12.2977 77.0382 11.974 76.5707 11.974C76.1104 11.974 75.7932 12.3874 75.7932 12.8684V15.0404H75.0171V12.4324C75.0171 12.1094 75.009 11.7634 74.9883 11.3877H75.6716L75.7079 11.9515H75.7295C75.9369 11.5612 76.3625 11.3127 76.8368 11.3127C77.5701 11.3127 78.052 11.8988 78.052 12.8528V15.0404H78.0512ZM83.1341 11.9972H82.2796V13.7704C82.2796 14.2219 82.4298 14.4472 82.7315 14.4472C82.8685 14.4472 82.984 14.4317 83.0771 14.4093L83.0987 15.0257C82.947 15.0861 82.7446 15.1162 82.4952 15.1162C81.8832 15.1162 81.5176 14.7631 81.5176 13.8386V11.9972H81.0072V11.3886H81.5176V10.7195L82.2796 10.4787V11.3877H83.1341V11.9972ZM87.2478 15.0404H86.4704V12.9589C86.4704 12.3054 86.2333 11.9747 85.7652 11.9747C85.3626 11.9747 84.9893 12.2604 84.9893 12.8389V15.0404H84.2118V9.71289H84.9893V11.9066H85.0039C85.2487 11.5086 85.602 11.3127 86.0547 11.3127C86.7952 11.3127 87.2478 11.9136 87.2478 12.8684V15.0404ZM91.2168 13.4096H88.8859C88.9006 14.101 89.3378 14.4914 89.986 14.4914C90.3324 14.4914 90.648 14.431 90.9282 14.3187L91.0498 14.8824C90.7188 15.0326 90.33 15.1077 89.8774 15.1077C88.7828 15.1077 88.1362 14.386 88.1362 13.2671C88.1362 12.1474 88.7989 11.3057 89.7897 11.3057C90.6811 11.3057 91.243 11.9972 91.243 13.0417C91.2461 13.1843 91.2384 13.312 91.2168 13.4096ZM90.5048 12.8311C90.5048 12.2674 90.2323 11.8694 89.735 11.8694C89.2885 11.8694 88.9367 12.2752 88.8859 12.8311H90.5048Z" fill="#1F1C34"/>
</g>
<defs>
<clipPath id="clip0_1785_4079">
<rect width="107" height="40" fill="white"/>
</clipPath>
</defs>
</svg>
