<svg width="113" height="40" viewBox="0 0 113 40" fill="none" xmlns="http://www.w3.org/2000/svg">
<g clip-path="url(#clip0_1785_4084)">
<path d="M0 12.3077C0 7.99962 0 5.84555 0.839541 4.20007C1.57803 2.75267 2.75639 1.5759 4.20574 0.838408C5.85345 0 8.01043 0 12.3243 0H100.825C105.139 0 107.296 0 108.944 0.838408C110.393 1.5759 111.571 2.75267 112.31 4.20007C113.149 5.84555 113.149 7.99962 113.149 12.3077V27.6923C113.149 32.0004 113.149 34.1545 112.31 35.7999C111.571 37.2473 110.393 38.4241 108.944 39.1616C107.296 40 105.139 40 100.825 40H12.3243C8.01043 40 5.85345 40 4.20574 39.1616C2.75639 38.4241 1.57803 37.2473 0.839541 35.7999C0 34.1545 0 32.0004 0 27.6923V12.3077Z" fill="white"/>
<path d="M13.3764 9.71289C13.1527 9.94428 13.0781 10.33 13.0781 10.7927V27.8382C13.0781 28.301 13.2273 28.6866 13.4509 28.918L13.5255 28.9951L22.772 19.4311V19.2769L13.3764 9.71289Z" fill="url(#paint0_linear_1785_4084)"/>
<path d="M25.9982 22.9703L22.7734 19.773V19.5391L25.9982 16.3418L26.0768 16.4198L29.9308 18.6033C31.0319 19.2272 31.0319 20.241 29.9308 20.8648L25.9982 22.9703Z" fill="url(#paint1_linear_1785_4084)"/>
<path d="M26.1974 22.6917L23.0423 19.3535L13.6523 29.2887C14.028 29.6861 14.5538 29.6861 15.2299 29.3682L26.1974 22.6917Z" fill="url(#paint2_linear_1785_4084)"/>
<path d="M26.1974 16.1978L15.2299 9.95994C14.5538 9.58417 14.028 9.65933 13.6523 10.0351L23.0423 19.3543L26.1974 16.1978Z" fill="url(#paint3_linear_1785_4084)"/>
<path opacity="0.2" d="M26.1974 22.9707L15.2394 29.1906C14.6348 29.5699 14.1058 29.4941 13.7279 29.1906L13.6523 29.2666L13.7279 29.3424C14.1058 29.6458 14.6348 29.7216 15.2394 29.3424L26.1974 22.9707Z" fill="#1F1C34"/>
<path opacity="0.12" d="M13.3855 28.9172C13.155 28.6839 13.0781 28.2951 13.0781 27.8286V27.9064C13.0781 28.3729 13.2319 28.7617 13.4624 28.9949V28.9172H13.3855ZM29.9866 20.3643L26.1437 22.5414L26.2206 22.6191L29.9866 20.4421C30.5245 20.1311 30.7551 19.7423 30.7551 19.3535C30.7551 19.7423 30.4476 20.0533 29.9866 20.3643Z" fill="#1F1C34"/>
<path opacity="0.25" d="M14.9996 10.0526L29.9866 18.3791C30.4476 18.6792 30.7551 18.9793 30.7551 19.3543C30.7551 18.9793 30.5245 18.6042 29.9866 18.3041L14.9996 9.97756C13.9236 9.37741 13.0781 9.82756 13.0781 11.0277V11.1028C13.0781 9.97756 13.9236 9.45248 14.9996 10.0526Z" fill="white"/>
<path d="M57.0255 21.0662C55.1974 21.0662 53.7503 22.414 53.7503 24.286C53.7503 26.083 55.1974 27.5056 57.0255 27.5056C58.8534 27.5056 60.3005 26.1579 60.3005 24.286C60.3005 22.3391 58.8534 21.0662 57.0255 21.0662ZM57.0255 26.1579C56.0353 26.1579 55.1975 25.3342 55.1975 24.211C55.1975 23.0879 56.0353 22.2642 57.0255 22.2642C58.0156 22.2642 58.8534 23.013 58.8534 24.211C58.8534 25.3342 58.0156 26.1579 57.0255 26.1579ZM49.9421 21.0662C48.1141 21.0662 46.667 22.414 46.667 24.286C46.667 26.083 48.1141 27.5056 49.9421 27.5056C51.7701 27.5056 53.2172 26.1579 53.2172 24.286C53.2172 22.3391 51.7701 21.0662 49.9421 21.0662ZM49.9421 26.1579C48.9519 26.1579 48.1141 25.3342 48.1141 24.211C48.1141 23.0879 48.9519 22.2642 49.9421 22.2642C50.9322 22.2642 51.7701 23.013 51.7701 24.211C51.7701 25.3342 50.9322 26.1579 49.9421 26.1579ZM41.4878 22.0396V23.3874H44.7629C44.6867 24.1362 44.3821 24.7352 44.0013 25.1096C43.5443 25.5589 42.7826 26.083 41.4878 26.083C39.4314 26.083 37.908 24.5106 37.908 22.4889C37.908 20.4672 39.5075 18.8947 41.4878 18.8947C42.5542 18.8947 43.3919 19.344 44.0013 19.8681L44.9914 18.8947C44.1535 18.146 43.0873 17.5469 41.564 17.5469C38.822 17.5469 36.4609 19.7933 36.4609 22.4889C36.4609 25.1844 38.822 27.4308 41.564 27.4308C43.0873 27.4308 44.1535 26.9815 45.0676 26.0081C45.9816 25.1096 46.2862 23.8366 46.2862 22.8633C46.2862 22.5637 46.2862 22.2642 46.21 22.0396H41.4878ZM76.0666 23.0879C75.762 22.3391 75.0003 21.0662 73.3247 21.0662C71.649 21.0662 70.2781 22.3391 70.2781 24.286C70.2781 26.083 71.649 27.5056 73.477 27.5056C74.9241 27.5056 75.8382 26.6071 76.1428 26.083L75.0765 25.3342C74.6957 25.8583 74.2387 26.2327 73.477 26.2327C72.7154 26.2327 72.2584 25.9333 71.8776 25.2593L76.219 23.4623L76.0666 23.0879ZM71.6491 24.1362C71.6491 22.9381 72.6392 22.2642 73.3247 22.2642C73.8579 22.2642 74.391 22.5637 74.5433 22.9381L71.6491 24.1362ZM68.0694 27.2062H69.5165V17.8464H68.0694V27.2062ZM65.7844 21.7401C65.4035 21.3656 64.7942 20.9913 64.0326 20.9913C62.4331 20.9913 60.9099 22.414 60.9099 24.211C60.9099 26.0081 62.357 27.3559 64.0326 27.3559C64.7942 27.3559 65.4035 26.9815 65.7082 26.6071H65.7844V27.0564C65.7844 28.2544 65.0989 28.9283 64.0326 28.9283C63.1948 28.9283 62.5855 28.3293 62.4331 27.8052L61.2145 28.3293C61.5953 29.153 62.5093 30.2013 64.1088 30.2013C65.7844 30.2013 67.1554 29.2279 67.1554 26.9066V21.216H65.7844V21.7401ZM64.1088 26.1579C63.1186 26.1579 62.2808 25.3342 62.2808 24.211C62.2808 23.0879 63.1186 22.2642 64.1088 22.2642C65.0989 22.2642 65.8605 23.0879 65.8605 24.211C65.8605 25.3342 65.0989 26.1579 64.1088 26.1579ZM82.6932 17.8464H79.2655V27.2062H80.7128V23.6869H82.6932C84.2923 23.6869 85.8158 22.5637 85.8158 20.7666C85.8158 18.9696 84.2923 17.8464 82.6932 17.8464ZM82.7694 22.3391H80.7128V19.1193H82.7694C83.8355 19.1193 84.4448 20.0179 84.4448 20.6918C84.3685 21.5154 83.7592 22.3391 82.7694 22.3391ZM91.5282 20.9913C90.4621 20.9913 89.3953 21.4406 89.0148 22.414L90.3096 22.9381C90.6139 22.414 91.0714 22.2642 91.6044 22.2642C92.3662 22.2642 93.051 22.7135 93.1273 23.4623V23.5371C92.8993 23.3874 92.29 23.1627 91.6807 23.1627C90.3096 23.1627 88.9385 23.9115 88.9385 25.2593C88.9385 26.5323 90.0808 27.3559 91.2994 27.3559C92.29 27.3559 92.7467 26.9066 93.1273 26.4573H93.2035V27.2062H94.5746V23.612C94.4221 21.9647 93.1273 20.9913 91.5282 20.9913ZM91.3757 26.1579C90.9189 26.1579 90.2333 25.9333 90.2333 25.3342C90.2333 24.5854 91.0714 24.3608 91.7569 24.3608C92.3662 24.3608 92.6705 24.5106 93.051 24.6603C92.8993 25.5589 92.1375 26.1579 91.3757 26.1579ZM99.3734 21.216L97.7735 25.2593H97.6973L96.0219 21.216H94.4983L97.0117 26.9066L95.5652 30.0515H97.0117L100.896 21.216H99.3734ZM86.5776 27.2062H88.0242V17.8464H86.5776V27.2062Z" fill="#1F1C34"/>
<path d="M41.7663 14.4516H40.924L40.4633 12.9605H38.8608L38.4212 14.4516H37.6016L39.1896 9.37441H40.1699L41.7663 14.4516ZM40.3245 12.3349L39.9075 11.0091C39.8638 10.8733 39.783 10.5573 39.6586 10.0528H39.6435C39.5922 10.2709 39.5191 10.5876 39.4091 11.0091L38.9996 12.3349H40.3245ZM45.7372 10.7909L44.3904 14.4516H43.622L42.319 10.7909H43.1681L43.7759 12.7268C43.8784 13.0505 43.9659 13.3594 44.0315 13.6528H44.0533C44.1123 13.3897 44.1996 13.0808 44.309 12.7268L44.9093 10.7909H45.7372ZM48.6042 14.4516L48.5453 14.03H48.5235C48.2821 14.3692 47.9307 14.5345 47.4844 14.5345C46.8479 14.5345 46.394 14.075 46.394 13.4572C46.394 12.5536 47.1548 12.0864 48.4722 12.0864V12.0189C48.4722 11.5369 48.2233 11.2955 47.7332 11.2955C47.3817 11.2955 47.0741 11.3863 46.8041 11.5671L46.6435 11.0323C46.973 10.8212 47.3825 10.7156 47.8658 10.7156C48.7948 10.7156 49.2638 11.2202 49.2638 12.23V13.5783C49.2638 13.9477 49.2789 14.2341 49.3151 14.4523L48.6042 14.4516ZM48.4941 12.6283C47.6157 12.6283 47.1767 12.8471 47.1767 13.3664C47.1767 13.7506 47.4037 13.9385 47.7181 13.9385C48.1208 13.9385 48.4941 13.6226 48.4941 13.1933V12.6283ZM51.024 10.1879C50.7609 10.1879 50.5557 9.97671 50.5557 9.6981C50.5557 9.41941 50.7676 9.2161 51.0391 9.2161C51.3098 9.2161 51.5292 9.41941 51.5217 9.6981C51.5217 9.99225 51.3174 10.1879 51.024 10.1879ZM51.4342 14.4516H50.6439V10.7909H51.4342V14.4516ZM53.6286 14.4516H52.8383V9.11133H53.6286V14.4516ZM56.9872 14.4516L56.9283 14.03H56.9065C56.6652 14.3692 56.3138 14.5345 55.8674 14.5345C55.231 14.5345 54.777 14.075 54.777 13.4572C54.777 12.5536 55.5378 12.0864 56.8552 12.0864V12.0189C56.8552 11.5369 56.6063 11.2955 56.1162 11.2955C55.7648 11.2955 55.4571 11.3863 55.1871 11.5671L55.0258 11.0316C55.3554 10.8204 55.7648 10.7149 56.2482 10.7149C57.1772 10.7149 57.6462 11.2194 57.6462 12.2292V13.5775C57.6462 13.9469 57.6621 14.2333 57.6968 14.4515H56.9872V14.4516ZM56.8771 12.6283C55.9986 12.6283 55.5597 12.8471 55.5597 13.3664C55.5597 13.7506 55.7866 13.9385 56.1011 13.9385C56.5038 13.9385 56.8771 13.6226 56.8771 13.1933V12.6283ZM60.8481 14.5346C60.3436 14.5346 59.9711 14.3157 59.7297 13.8865H59.7139L59.6687 14.4516H58.9953C59.0172 14.1581 59.0247 13.8259 59.0247 13.465V9.11133H59.8157V11.3266H59.8308C60.0653 10.9199 60.4447 10.7165 60.9649 10.7165C61.8216 10.7165 62.4217 11.4702 62.4217 12.5693C62.4217 13.7056 61.7552 14.5346 60.8481 14.5346ZM60.6874 11.3553C60.2327 11.3553 59.8165 11.762 59.8165 12.3271V12.9674C59.8165 13.4719 60.1905 13.8865 60.6739 13.8865C61.2659 13.8865 61.618 13.3897 61.618 12.5987C61.6172 11.8606 61.2507 11.3553 60.6874 11.3553ZM64.3801 14.4516H63.5906V9.11133H64.3801V14.4516ZM68.6821 12.8169H66.3098C66.3256 13.51 66.7705 13.9012 67.4296 13.9012C67.781 13.9012 68.103 13.8406 68.388 13.7281L68.5109 14.2932C68.1746 14.4438 67.7794 14.5191 67.3187 14.5191C66.2057 14.5191 65.5474 13.7956 65.5474 12.674C65.5474 11.5516 66.2216 10.7079 67.2297 10.7079C68.1369 10.7079 68.7085 11.4011 68.7085 12.4482C68.7115 12.591 68.7047 12.719 68.6821 12.8169ZM67.9574 12.237C67.9574 11.6719 67.6791 11.273 67.1739 11.273C66.7199 11.273 66.3625 11.6797 66.3098 12.237H67.9574ZM73.4719 14.5346C72.4328 14.5346 71.7594 13.7359 71.7594 12.6516C71.7594 11.5214 72.4471 10.7157 73.5315 10.7157C74.5547 10.7157 75.244 11.4763 75.244 12.5918C75.2441 13.7359 74.5336 14.5346 73.4719 14.5346ZM73.5021 11.3103C72.9312 11.3103 72.5656 11.8598 72.5656 12.6283C72.5656 13.3819 72.9389 13.9315 73.4946 13.9315C74.0504 13.9315 74.4228 13.3439 74.4228 12.6127C74.4236 11.8676 74.0578 11.3103 73.5021 11.3103ZM79.4927 14.4516H78.7032V12.3496C78.7032 11.7023 78.4613 11.3778 77.9861 11.3778C77.5177 11.3778 77.195 11.7923 77.195 12.2743V14.4516H76.4053V11.8373C76.4053 11.5136 76.397 11.1666 76.3759 10.7902H77.071L77.108 11.3553H77.1303C77.3413 10.9641 77.7742 10.7149 78.2564 10.7149C79.002 10.7149 79.4927 11.3025 79.4927 12.2588V14.4516ZM84.6628 11.4011H83.7939V13.1786C83.7939 13.6311 83.9464 13.8569 84.2537 13.8569C84.3932 13.8569 84.511 13.8414 84.605 13.8189L84.6273 14.4368C84.4733 14.4974 84.2668 14.5276 84.0134 14.5276C83.3903 14.5276 83.0182 14.1736 83.0182 13.2469V11.4011H82.4998V10.7909H83.0182V10.1203L83.7939 9.87894V10.7902H84.6628V11.4011ZM88.8484 14.4516H88.0573V12.3651C88.0573 11.71 87.8155 11.3786 87.3402 11.3786C86.9304 11.3786 86.5507 11.6649 86.5507 12.2448V14.4516H85.7596V9.11133H86.5507V11.3103H86.5653C86.8149 10.9113 87.1731 10.7149 87.6345 10.7149C88.3878 10.7149 88.8484 11.3173 88.8484 12.2743V14.4516ZM92.8862 12.8169H90.5145C90.5299 13.51 90.9744 13.9012 91.6337 13.9012C91.9857 13.9012 92.3069 13.8406 92.5919 13.7281L92.7159 14.2932C92.3793 14.4438 91.9834 14.5191 91.5228 14.5191C90.4098 14.5191 89.7519 13.7956 89.7519 12.674C89.7519 11.5516 90.4259 10.7079 91.4342 10.7079C92.3416 10.7079 92.9131 11.4011 92.9131 12.4482C92.9154 12.591 92.9077 12.719 92.8862 12.8169ZM92.1613 12.237C92.1613 11.6719 91.884 11.273 91.3787 11.273C90.9243 11.273 90.5669 11.6797 90.5145 12.237H92.1613Z" fill="#1F1C34"/>
</g>
<defs>
<linearGradient id="paint0_linear_1785_4084" x1="21.8772" y1="10.6462" x2="8.94001" y2="23.153" gradientUnits="userSpaceOnUse">
<stop stop-color="#00A0FF"/>
<stop offset="0.007" stop-color="#00A1FF"/>
<stop offset="0.26" stop-color="#00BEFF"/>
<stop offset="0.512" stop-color="#00D2FF"/>
<stop offset="0.76" stop-color="#00DFFF"/>
<stop offset="1" stop-color="#00E3FF"/>
</linearGradient>
<linearGradient id="paint1_linear_1785_4084" x1="31.3733" y1="19.6179" x2="12.3419" y2="19.6179" gradientUnits="userSpaceOnUse">
<stop stop-color="#FFE000"/>
<stop offset="0.409" stop-color="#FFBD00"/>
<stop offset="0.775" stop-color="#FFA500"/>
<stop offset="1" stop-color="#FF9C00"/>
</linearGradient>
<linearGradient id="paint2_linear_1785_4084" x1="24.4898" y1="21.1784" x2="6.43025" y2="38.2469" gradientUnits="userSpaceOnUse">
<stop stop-color="#FF3A44"/>
<stop offset="1" stop-color="#C31162"/>
</linearGradient>
<linearGradient id="paint3_linear_1785_4084" x1="11.3214" y1="4.45561" x2="18.9594" y2="12.09" gradientUnits="userSpaceOnUse">
<stop stop-color="#32A071"/>
<stop offset="0.069" stop-color="#2DA771"/>
<stop offset="0.476" stop-color="#15CF74"/>
<stop offset="0.801" stop-color="#06E775"/>
<stop offset="1" stop-color="#00F076"/>
</linearGradient>
<clipPath id="clip0_1785_4084">
<rect width="113" height="40" fill="white"/>
</clipPath>
</defs>
</svg>
