<svg width="24" height="24" viewBox="0 0 24 24" fill="none" xmlns="http://www.w3.org/2000/svg">
<path d="M16.8886 7.74118C16.8886 10.245 14.691 12.2818 11.9875 12.2818C9.28467 12.2818 7.08648 10.245 7.08648 7.74118C7.08648 5.2365 9.28467 3.19922 11.9875 3.19922C14.691 3.19922 16.8886 5.2365 16.8886 7.74118ZM14.0168 7.74116C14.0168 6.70418 13.1066 5.86095 11.9875 5.86095C10.8694 5.86095 9.95827 6.70418 9.95827 7.74116C9.95827 8.77733 10.8694 9.6211 11.9875 9.6211C13.1066 9.6211 14.0168 8.77733 14.0168 7.74116Z" fill="#157FF8"/>
<path d="M13.983 15.9888C14.9806 15.7782 15.9428 15.4124 16.829 14.8966C17.4996 14.5048 17.7017 13.6833 17.2791 13.0618C16.8568 12.439 15.9709 12.2514 15.2991 12.6433C13.2915 13.8132 10.7068 13.8129 8.70044 12.6433C8.02861 12.2514 7.14241 12.439 6.72101 13.0618C6.29844 13.6838 6.49991 14.5048 7.17056 14.8966C8.05676 15.4119 9.01891 15.7782 10.0165 15.9888L7.27643 18.528C6.71632 19.0475 6.71632 19.89 7.27701 20.4095C7.55765 20.669 7.9248 20.7989 8.29194 20.7989C8.65968 20.7989 9.02741 20.669 9.30805 20.4095L11.9995 17.9144L14.6933 20.4095C15.2534 20.9291 16.1621 20.9291 16.7228 20.4095C17.2841 19.89 17.2841 19.047 16.7228 18.528L13.983 15.9888Z" fill="#157FF8"/>
</svg>
