<svg width="16" height="16" viewBox="0 0 16 16" fill="none" xmlns="http://www.w3.org/2000/svg">
<path d="M11.7001 9.42752C11.2971 9.34083 10.9782 9.52794 10.6959 9.69136C10.4068 9.85976 9.85709 10.3057 9.54198 10.1916C7.92865 9.52732 6.41128 8.11522 5.75443 6.49542C5.63866 6.17359 6.08255 5.62035 6.2497 5.32782C6.4119 5.04466 6.59515 4.72282 6.51157 4.31678C6.43604 3.9519 5.45913 2.70883 5.11368 2.36891C4.88586 2.14437 4.65247 2.02087 4.41288 2.00091C3.51212 1.96224 2.50611 3.16415 2.32967 3.45168C1.88765 4.0648 1.89012 4.88062 2.3371 5.86984C3.4143 8.52687 7.48848 12.5368 10.1555 13.6545C10.6477 13.8846 11.0977 14 11.502 14C11.8976 14 12.2498 13.8896 12.5526 13.6707C12.781 13.5391 14.0322 12.4831 13.9994 11.5581C13.9796 11.3224 13.8564 11.0866 13.6347 10.8583C13.2973 10.5097 12.0623 9.50362 11.7001 9.42752Z" fill="#1F1C34"/>
</svg>
