<svg width="24" height="24" viewBox="0 0 24 24" fill="none" xmlns="http://www.w3.org/2000/svg">
<path fill-rule="evenodd" clip-rule="evenodd" d="M16.1183 2.83858H13.5368L16.1162 2.83861C16.2229 3.45171 16.518 4.32447 17.2985 5.18889C17.6116 5.51529 17.9642 5.80385 18.3488 6.04832C18.4624 6.1671 19.0432 6.75436 19.7888 7.11489C20.1744 7.30124 20.5808 7.44403 21 7.54043V10.2125C21 10.2125 19.7475 10.1629 18.8199 9.92447C17.5253 9.59104 16.6927 9.07964 16.6927 9.07964C16.6927 9.07964 16.1183 8.71495 16.0719 8.68911V15.7337C16.0719 16.1259 15.9656 17.1058 15.6416 17.9223C15.2537 18.9028 14.6725 19.5741 14.4863 19.7892C14.4695 19.8086 14.4559 19.8243 14.4459 19.8362C14.4459 19.8362 13.6517 20.7844 12.2516 21.4229C11.0944 21.9511 10.0664 21.9827 9.64793 21.9955C9.61006 21.9967 9.57718 21.9977 9.54965 21.9989C9.54965 21.9989 7.63416 22.0756 5.9097 20.9432L5.9011 20.9369C5.71903 20.7587 5.54765 20.5706 5.3878 20.3734C4.83838 19.6964 4.50126 18.8959 4.41583 18.6657C4.41573 18.6665 4.41575 18.6674 4.41588 18.6683C4.50193 18.895 4.83796 19.6969 5.38825 20.3771C5.5481 20.5743 5.71948 20.7624 5.90154 20.9406C5.3182 20.5498 4.79795 20.0773 4.35779 19.5385C3.84414 18.9056 3.51585 18.1651 3.40595 17.8852C3.39922 17.868 3.39307 17.852 3.388 17.8384C3.38792 17.8371 3.3879 17.8358 3.38795 17.8345C3.38794 17.8344 3.38796 17.8345 3.38795 17.8345C3.38796 17.8343 3.38799 17.8336 3.388 17.8334V17.8305C3.25118 17.4333 2.96377 16.478 3.00378 15.5519C3.07306 13.9202 3.64099 12.9186 3.79115 12.6677C4.18822 11.9821 4.70534 11.3687 5.31941 10.8547C5.86092 10.412 6.47485 10.0598 7.13594 9.81272C7.5483 9.64698 7.97787 9.52471 8.41724 9.44803C9.07938 9.33606 9.75565 9.32635 10.4209 9.41927V10.1903C9.64544 10.2026 8.8795 10.3582 8.16425 10.6488C8.87883 10.3585 9.64399 10.2029 10.4188 10.1904V12.8954C10.4188 12.8954 9.00151 12.4411 7.86736 13.2455C7.0744 13.8406 6.65361 14.4212 6.5297 15.4582C6.52453 16.2214 6.71772 17.3013 7.77743 18.0215C7.90106 18.1007 8.02239 18.171 8.14143 18.2324C8.1422 18.2334 8.14298 18.2344 8.14375 18.2354C9.02457 18.69 9.81322 18.6818 10.7901 18.3019C11.5288 18.0144 12.0843 17.3662 12.3441 16.6481C12.5047 16.2054 12.5046 15.7599 12.5046 15.2999V2H16.0693C16.0693 2 16.0293 2.3301 16.1183 2.83858ZM8.40128 18.5276C8.5257 18.6502 8.66194 18.7614 8.80832 18.8596C9.19786 19.1089 9.56363 19.2708 9.92747 19.353C9.56428 19.2705 9.19918 19.1084 8.81046 18.8596C8.66334 18.7615 8.52638 18.6503 8.40128 18.5276ZM4.06743 17.1763C4.14462 17.813 4.31791 18.3795 4.41534 18.6638C4.41529 18.6631 4.41532 18.6624 4.41543 18.6617C4.31829 18.3785 4.14499 17.8126 4.06743 17.1763Z" fill="#157FF8"/>
<path d="M3.40656 17.8869L3.44967 18.005L3.44418 17.9901C3.43588 17.9678 3.4229 17.9329 3.40656 17.8869Z" fill="#157FF8"/>
<path d="M21 6.80143L21 7.54043C20.5815 7.44387 20.1758 7.30106 19.791 7.11486C19.0453 6.75433 18.4645 6.16708 18.3509 6.04829C18.4827 6.13212 18.6195 6.20838 18.7605 6.27669C19.6671 6.71516 20.5598 6.84603 21 6.80143Z" fill="#157FF8"/>
</svg>
