<svg width="32" height="32" viewBox="0 0 32 32" fill="none" xmlns="http://www.w3.org/2000/svg">
<path fill-rule="evenodd" clip-rule="evenodd" d="M14.0246 24.3954C14.6406 24.4445 15.2982 24.4689 15.9996 24.4689C23.8628 24.4689 26.2218 21.4078 26.2218 14.7344C26.2218 8.0611 23.8628 5 15.9996 5C8.13632 5 5.77734 8.0611 5.77734 14.7344C5.77734 19.4514 6.95592 22.3636 10.4238 23.6657V27.6284C10.4238 27.9739 10.8556 28.1317 11.0793 27.868L14.0246 24.3954ZM15.8073 7.99521C15.8073 7.75239 16.0165 7.55554 16.2745 7.55554C19.8864 7.55554 22.8145 10.3114 22.8145 13.7109C22.8145 13.9537 22.6053 14.1505 22.3473 14.1505C22.0893 14.1505 21.8802 13.9537 21.8802 13.7109C21.8802 10.797 19.3704 8.43487 16.2745 8.43487C16.0165 8.43487 15.8073 8.23803 15.8073 7.99521ZM11.2931 9.0313C11.0258 8.79691 10.5594 8.86183 10.2946 8.98993C9.38262 9.43113 8.95806 9.90267 8.58068 10.3549C8.2033 10.8071 8.33958 11.4074 8.45489 11.651C8.75889 12.6758 10.5313 15.7168 12.5903 17.4694C15.8138 20.2131 19.4618 21.1852 19.8391 21.1852C20.8612 21.1852 22.0012 19.9236 22.2685 19.3514C22.4824 18.8937 22.2109 18.5448 22.0484 18.4276C21.7811 18.2346 21.1788 17.803 20.9084 17.621C20.5703 17.3935 19.8234 16.911 19.1709 16.6904C18.6488 16.5139 18.23 16.7639 18.0859 16.911C17.9942 17.0213 17.7415 17.3108 17.4648 17.5866C17.1944 17.856 16.8808 17.8011 16.6704 17.7643C16.6116 17.754 16.5609 17.7451 16.5214 17.7451C15.9003 17.6142 14.9096 17.2005 13.9741 16.4146C13.0385 15.6287 12.496 14.574 12.2444 14.0362C12.0431 13.6061 12.2706 13.2687 12.4095 13.1538C12.5589 13.0711 12.9284 12.8408 13.2114 12.5816C13.5652 12.2576 13.4866 11.7199 13.4158 11.5682C13.3451 11.4166 12.8498 10.7341 12.496 10.286C12.1422 9.83787 11.6272 9.32428 11.2931 9.0313ZM16.2745 11.0729C16.0165 11.0729 15.8073 11.2697 15.8073 11.5125C15.8073 11.7554 16.0165 11.9522 16.2745 11.9522C17.3065 11.9522 18.143 12.7396 18.143 13.7109C18.143 13.9537 18.3522 14.1505 18.6102 14.1505C18.8682 14.1505 19.0773 13.9537 19.0773 13.7109C19.0773 12.2539 17.8224 11.0729 16.2745 11.0729ZM16.2745 9.3142C16.0165 9.3142 15.8073 9.51105 15.8073 9.75387C15.8073 9.99669 16.0165 10.1935 16.2745 10.1935C18.3384 10.1935 20.0116 11.7683 20.0116 13.7109C20.0116 13.9537 20.2208 14.1505 20.4788 14.1505C20.7368 14.1505 20.9459 13.9537 20.9459 13.7109C20.9459 11.2827 18.8544 9.3142 16.2745 9.3142Z" fill="#157FF8"/>
</svg>
