<svg width="24" height="24" viewBox="0 0 24 24" fill="none" xmlns="http://www.w3.org/2000/svg">
<path d="M17.9233 13.3341C17.7079 13.0418 17.6596 12.7459 17.7774 12.4461C18.0711 11.6463 22.3494 6.56612 20.5671 6.56612C19.3424 6.5824 17.8696 6.56612 16.6954 6.56612C16.4775 6.61918 16.3364 6.73357 16.2482 6.96631C15.5616 8.54946 14.7214 10.4815 13.4901 11.7231C13.3281 11.8538 13.2271 11.8482 13.0425 11.7999C12.1788 10.8905 13.0998 7.77508 12.5745 6.54405C12.471 6.30309 12.2444 6.19425 12.0125 6.13296C10.8399 5.85349 8.16168 6.01984 7.7247 6.5824C7.59978 6.74322 7.58236 6.83098 7.67254 6.84542C8.08889 6.9111 8.38364 7.06824 8.55711 7.31666C8.88438 8.03737 9.12556 11.8764 8.16168 11.8764C7.19781 11.8764 5.64353 8.1088 5.21654 7.06436C5.10291 6.74988 4.81365 6.56959 4.50887 6.51637L1.65729 6.53818C1.15606 6.53818 0.875925 6.78543 1.05358 7.28357C2.53881 10.9703 5.78898 18.1164 10.7739 17.9375C11.2733 17.9375 12.1324 18.1292 12.5224 17.6963C13.0584 16.9852 12.4047 15.7188 13.3237 15.2359C13.5555 15.1126 13.7958 15.2159 13.9949 15.3676C15.0172 16.146 15.5599 17.5122 16.8206 17.927C17.0422 18 17.2365 18.0183 17.4032 17.9818L20.0674 17.938C20.562 17.938 21.0492 17.7179 20.9469 17.1266C20.5585 15.8585 19.0108 14.555 17.9233 13.3341Z" fill="#157FF8"/>
</svg>
