<svg width="32" height="32" viewBox="0 0 32 32" fill="none" xmlns="http://www.w3.org/2000/svg">
<path d="M28 15.6909C28 22.1477 22.7256 27.3819 16.2181 27.3819C14.1523 27.3819 12.2115 26.8539 10.5229 25.9272L4 28L6.12667 21.7275C5.05387 19.9659 4.436 17.8997 4.436 15.6909C4.436 9.23413 9.71093 4 16.2181 4C22.7261 4 28 9.23413 28 15.6909ZM16.2181 5.86187C10.7557 5.86187 6.31253 10.2712 6.31253 15.6909C6.31253 17.8416 7.0136 19.8333 8.19947 21.4536L6.96187 25.104L10.7685 23.8941C12.3325 24.9211 14.2061 25.52 16.2184 25.52C21.68 25.52 26.124 21.1112 26.124 15.6915C26.124 10.2717 21.6803 5.86187 16.2181 5.86187ZM22.1677 18.3835C22.0949 18.2643 21.9027 18.1923 21.6141 18.0491C21.3251 17.9059 19.9048 17.2123 19.6408 17.1171C19.376 17.0216 19.1829 16.9736 18.9907 17.2603C18.7984 17.5472 18.2448 18.1923 18.076 18.3835C17.9075 18.5752 17.7392 18.5992 17.4501 18.4557C17.1616 18.3125 16.2312 18.0096 15.128 17.0336C14.2696 16.2741 13.6899 15.3365 13.5213 15.0493C13.3531 14.7627 13.5037 14.6077 13.648 14.4651C13.7781 14.3365 13.9371 14.1304 14.0813 13.9632C14.2261 13.7957 14.2741 13.6765 14.3699 13.4851C14.4667 13.2939 14.4184 13.1267 14.3459 12.9829C14.2739 12.8397 13.6957 11.4296 13.4552 10.8557C13.2147 10.2824 12.9744 10.3779 12.8056 10.3779C12.6373 10.3779 12.4445 10.3539 12.252 10.3539C12.0595 10.3539 11.7464 10.4256 11.4816 10.7123C11.2171 10.9992 10.4712 11.6925 10.4712 13.1024C10.4712 14.5125 11.5056 15.8749 11.6504 16.0659C11.7947 16.2568 13.6477 19.2445 16.5837 20.392C19.52 21.5389 19.52 21.1563 20.0496 21.1083C20.5787 21.0605 21.7579 20.4152 21.9995 19.7464C22.2395 19.0765 22.2395 18.5029 22.1677 18.3835Z" fill="#157FF8"/>
</svg>
