<svg width="24" height="24" viewBox="0 0 24 24" fill="none" xmlns="http://www.w3.org/2000/svg">
<path fill-rule="evenodd" clip-rule="evenodd" d="M4.09922 4.38886C2.5431 4.46595 1.2931 5.68441 1.19211 7.23916C1.09536 8.72873 1 10.5616 1 11.9997C1 13.4378 1.09536 15.2707 1.19211 16.7603C1.2931 18.315 2.5431 19.5335 4.09922 19.6106C6.35259 19.7222 9.5733 19.8569 12 19.8569C14.4267 19.8569 17.6474 19.7222 19.9008 19.6106C21.4569 19.5335 22.7069 18.315 22.8079 16.7603C22.9046 15.2707 23 13.4378 23 11.9997C23 10.5616 22.9046 8.72873 22.8079 7.23916C22.7069 5.68441 21.4569 4.46595 19.9008 4.38886C17.6474 4.27722 14.4267 4.14258 12 4.14258C9.5733 4.14258 6.35259 4.27722 4.09922 4.38886ZM15.9286 11.9997L9.64285 15.1425V8.85681L15.9286 11.9997Z" fill="#157FF8"/>
</svg>
