<svg width="24" height="24" viewBox="0 0 24 24" fill="none" xmlns="http://www.w3.org/2000/svg">
<path d="M3.44297 5.59453L5.93906 3.10078C6.24375 2.79609 6.65156 2.625 7.08281 2.625C7.51406 2.625 7.92188 2.79375 8.22656 3.10078L10.9148 5.78437C11.2195 6.08906 11.3906 6.49922 11.3906 6.93047C11.3906 7.36406 11.2219 7.76953 10.9148 8.07656L8.81484 10.1789C9.29324 11.2936 9.98061 12.3063 10.8398 13.1625C11.7 14.0273 12.7055 14.7094 13.8211 15.1922L15.9211 13.0898C16.2258 12.7852 16.6336 12.6141 17.0648 12.6141C17.2776 12.6133 17.4883 12.655 17.6847 12.7366C17.8811 12.8183 18.0592 12.9384 18.2086 13.0898L20.8992 15.7734C21.2039 16.0781 21.375 16.4883 21.375 16.9195C21.375 17.3531 21.2062 17.7586 20.8992 18.0656L18.4055 20.5594C17.8852 21.0797 17.168 21.3773 16.432 21.3773C16.2797 21.3773 16.132 21.3656 15.982 21.3398C12.8789 20.8289 9.79922 19.1766 7.3125 16.6922C4.82812 14.2031 3.17812 11.1234 2.6625 8.01797C2.51484 7.13672 2.81016 6.22969 3.44297 5.59453ZM4.32422 7.73906C4.78125 10.5023 6.26719 13.2586 8.50547 15.4969C10.7438 17.7352 13.4977 19.2211 16.2609 19.6781C16.6078 19.7367 16.9641 19.6195 17.2172 19.3687L19.6664 16.9195L17.0695 14.3203L14.2617 17.1328L14.2406 17.1539L13.7344 16.9664C12.1994 16.402 10.8055 15.5107 9.64924 14.354C8.49301 13.1974 7.60211 11.8032 7.03828 10.268L6.85078 9.76172L9.68203 6.93281L7.08516 4.33359L4.63594 6.78281C4.38281 7.03594 4.26562 7.39219 4.32422 7.73906Z" fill="#157FF8"/>
</svg>
