<svg width="16" height="16" viewBox="0 0 16 16" fill="none" xmlns="http://www.w3.org/2000/svg">
<path d="M13.9987 7.99967H14.6654V5.33301H7.9987M13.9987 7.99967V12.9997C13.9987 13.552 13.551 13.9997 12.9987 13.9997H7.9987M13.9987 7.99967H7.9987M1.9987 7.99967H1.33203V5.33301H7.9987M1.9987 7.99967V12.9997C1.9987 13.552 2.44641 13.9997 2.9987 13.9997H7.9987M1.9987 7.99967H7.9987M7.9987 13.9997V7.99967M7.9987 7.99967V5.33301" stroke="#5694F2" stroke-width="1.5" stroke-linejoin="round"/>
<path d="M9.74072 1.23632C10.517 0.741751 11.5473 0.970154 12.0419 1.74647C12.5364 2.52279 12.308 3.55306 11.5317 4.04763C10.7554 4.5422 8.60062 5.03019 8.10605 4.25387C7.61147 3.47755 8.9644 1.73089 9.74072 1.23632Z" stroke="#5694F2" stroke-width="1.5"/>
<path d="M6.25928 1.23632C5.48296 0.741751 4.4527 0.970154 3.95813 1.74647C3.46356 2.52279 3.69196 3.55306 4.46828 4.04763C5.2446 4.5422 7.39938 5.03019 7.89395 4.25387C8.38853 3.47755 7.0356 1.73089 6.25928 1.23632Z" stroke="#5694F2" stroke-width="1.5"/>
</svg>
