<svg width="24" height="24" viewBox="0 0 24 24" fill="none" xmlns="http://www.w3.org/2000/svg">
<path fill-rule="evenodd" clip-rule="evenodd" d="M4.08111 1.60608C4.23869 1.2384 4.60023 1 5.00026 1H19.0003C19.4003 1 19.7618 1.2384 19.9194 1.60608L22.917 8.6005C22.9257 8.62031 22.9337 8.64046 22.941 8.66091C22.9851 8.78282 23.004 8.90835 23 9.03145V22C23 22.5523 22.5523 23 22 23H2C1.44772 23 1 22.5523 1 22L1 8.99741C1.00003 8.9859 1.00025 8.97437 1.00068 8.96284C1.00569 8.82566 1.03833 8.69553 1.09321 8.57786L4.08111 1.60608ZM13.6327 3H10.3673L9.65301 8H14.347L13.6327 3ZM16.3673 8L15.653 3H18.3409L20.4837 8H16.3673ZM14.5 10H9.5V12.5H14.5V10ZM7.5 10V13.5C7.5 14.0523 7.94772 14.5 8.5 14.5H15.5C16.0523 14.5 16.5 14.0523 16.5 13.5V10H21V21H3V10H7.5ZM7.6327 8L8.34699 3H5.65965L3.5168 8H7.6327Z" fill="#1F1C34"/>
</svg>
