<svg width="24" height="24" viewBox="0 0 24 24" fill="none" xmlns="http://www.w3.org/2000/svg">
<path d="M12 8C13.1046 8 14 7.10457 14 6C14 4.89543 13.1046 4 12 4C10.8954 4 10 4.89543 10 6C10 7.10457 10.8954 8 12 8Z" fill="#1F1C34"/>
<path fill-rule="evenodd" clip-rule="evenodd" d="M12.0004 0C7.3554 0 4.31433 4.8282 6.26684 9H4.80189C3.39579 9 2.17835 9.9766 1.87333 11.3492L0.317774 18.3492C-0.0985691 20.2228 1.32709 22 3.24634 22H20.7531C22.6723 22 24.098 20.2228 23.6817 18.3492L22.1261 11.3492C21.8211 9.9766 20.6036 9 19.1975 9H17.734C19.6865 4.82819 16.6454 0 12.0004 0ZM12.0004 18C11.2429 18 10.5503 17.572 10.2116 16.8944L7.26435 11H4.80189C4.33319 11 3.92738 11.3255 3.8257 11.7831L2.27015 18.7831C2.13137 19.4076 2.60659 20 3.24634 20H20.7531C21.3929 20 21.8681 19.4076 21.7293 18.7831L20.1737 11.7831C20.0721 11.3255 19.6662 11 19.1975 11H16.7365L13.7893 16.8944C13.4505 17.572 12.758 18 12.0004 18ZM8.13091 8.261C6.69265 5.38448 8.78437 2 12.0004 2C15.2165 2 17.3082 5.38447 15.8699 8.26099L12.0004 16L8.13091 8.261Z" fill="#1F1C34"/>
</svg>
