<svg width="25" height="24" viewBox="0 0 25 24" fill="none" xmlns="http://www.w3.org/2000/svg">
<path d="M12.5 1.5C6.70156 1.5 2 6.20156 2 12C2 17.7984 6.70156 22.5 12.5 22.5C18.2984 22.5 23 17.7984 23 12C23 6.20156 18.2984 1.5 12.5 1.5ZM12.5 20.7188C7.68594 20.7188 3.78125 16.8141 3.78125 12C3.78125 7.18594 7.68594 3.28125 12.5 3.28125C17.3141 3.28125 21.2188 7.18594 21.2188 12C21.2188 16.8141 17.3141 20.7188 12.5 20.7188Z" fill="#157FF8"/>
<path d="M17.3609 11.6978L10.4211 6.65877C10.3654 6.61797 10.2995 6.59343 10.2308 6.58788C10.162 6.58233 10.093 6.59599 10.0315 6.62733C9.97002 6.65868 9.91846 6.70649 9.88255 6.76542C9.84664 6.82436 9.8278 6.8921 9.82813 6.96112V17.0393C9.82813 17.3463 10.175 17.5197 10.4211 17.3416L17.3609 12.3025C17.4089 12.268 17.4479 12.2226 17.4748 12.17C17.5017 12.1175 17.5157 12.0592 17.5157 12.0002C17.5157 11.9411 17.5017 11.8829 17.4748 11.8304C17.4479 11.7778 17.4089 11.7324 17.3609 11.6978ZM11.3234 14.8385V9.1619L15.2305 12.0002L11.3234 14.8385Z" fill="#157FF8"/>
</svg>
