<svg width="24" height="24" viewBox="0 0 24 24" fill="none" xmlns="http://www.w3.org/2000/svg">
<path d="M11.9992 11.578C14.8962 11.578 17.2206 9.25233 17.2206 6.35615H15.9206C15.9206 8.53464 14.178 10.278 11.9992 10.278V11.578ZM6.77773 6.35615C6.77773 9.25241 9.10303 11.578 11.9992 11.578V10.278C9.82112 10.278 8.07773 8.53456 8.07773 6.35615H6.77773ZM11.9992 1.13516C9.10319 1.13516 6.77773 3.45973 6.77773 6.35615H8.07773C8.07773 4.17791 9.82095 2.43516 11.9992 2.43516V1.13516ZM17.2206 6.35615C17.2206 3.45981 14.8961 1.13516 11.9992 1.13516V2.43516C14.1782 2.43516 15.9206 4.17783 15.9206 6.35615H17.2206ZM3.35 17.7719C3.35 18.6164 3.63897 19.3294 4.15983 19.9003C4.66745 20.4567 5.36753 20.8489 6.15553 21.1293C7.72265 21.6868 9.81528 21.8625 12 21.8625V20.5625C9.84709 20.5625 7.93972 20.3842 6.59125 19.9045C5.92145 19.6662 5.43484 19.369 5.12021 19.0241C4.81883 18.6938 4.65 18.2936 4.65 17.7719H3.35ZM9.44577 13.8015C7.84478 13.9355 6.36331 14.2292 5.26348 14.8171C4.12768 15.4242 3.35 16.3813 3.35 17.7719H4.65C4.65 16.9784 5.04885 16.4059 5.87632 15.9636C6.73976 15.502 8.00829 15.2264 9.55423 15.097L9.44577 13.8015Z" fill="#157FF8"/>
<path d="M17.5 12L19.2845 15.0438L22.7308 15.8004L20.3874 18.4382L20.7328 21.9496L17.5 20.536L14.2672 21.9496L14.6126 18.4382L12.2692 15.8004L15.7155 15.0438L17.5 12Z" stroke="#157FF8" stroke-width="1.3" stroke-linejoin="round"/>
</svg>
