<svg width="24" height="24" viewBox="0 0 24 24" fill="none" xmlns="http://www.w3.org/2000/svg">
<g clip-path="url(#clip0_1296_133314)">
<path d="M0.425061 6.74143L0.425229 6.84143H0.425061L0.424877 6.78654V6.74143H0.425061ZM0.425061 6.74143H7.2617C6.75635 6.5484 6.30632 6.32123 5.97824 5.99299L5.97823 5.99298C4.66541 4.67918 4.66541 2.53671 5.97823 1.22291L5.97824 1.2229C6.63474 0.566035 7.49644 0.238003 8.35968 0.237895V0.237891C9.22299 0.237891 10.0874 0.565895 10.7439 1.22291L10.7439 1.22292C11.1281 1.60747 11.3744 2.15952 11.589 2.77199C11.7514 3.23535 11.8894 3.74279 12.0057 4.24312C12.1213 3.74285 12.258 3.23549 12.4204 2.77199L12.4204 2.77196C12.6353 2.15922 12.8839 1.60732 13.2681 1.2229C13.9247 0.565923 14.7866 0.237891 15.65 0.237891C16.5131 0.237891 17.3785 0.565877 18.035 1.2229C19.3478 2.5367 19.3478 4.67918 18.035 5.99298L18.0349 5.99299C17.7068 6.32125 17.2561 6.54841 16.7506 6.74142L23.5846 6.74143C23.5847 6.74143 23.5847 6.74142 23.5848 6.74142H23.585V6.84142M0.425061 6.74143L23.5846 11.1024M23.5846 11.1024C23.5847 11.1024 23.5847 11.1024 23.5848 11.1024C23.8683 11.1034 24.0991 10.8744 24.1002 10.5909V10.5905V7.25701M23.5846 11.1024L23.585 11.0024L23.5846 11.1024ZM24.1002 7.25701V7.25668H24.0002L24.1002 7.25701ZM24.1002 7.25701C24.1007 7.12022 24.0466 6.98887 23.9499 6.8921C23.9499 6.89208 23.9499 6.89205 23.9498 6.89202L23.8791 6.96273C23.8012 6.88463 23.6952 6.84106 23.585 6.84142M23.585 6.84142H16.4764H23.585ZM7.55949 6.74376C7.55728 6.74298 7.55507 6.74221 7.55287 6.74143L7.53584 6.84143H7.85436C7.75465 6.80986 7.65569 6.77755 7.55949 6.74376ZM7.55949 6.74376L7.52635 6.83811C7.52636 6.83811 7.52637 6.83811 7.52638 6.83812L7.55949 6.74376ZM15.6368 1.25935C15.0423 1.26272 14.4491 1.4909 13.9931 1.94733L13.993 1.94736C13.9084 2.03201 13.8062 2.1829 13.6996 2.38702C13.5938 2.58934 13.4868 2.83782 13.3906 3.11244C13.1975 3.66351 13.0336 4.31828 12.903 4.94397C12.903 4.94398 12.903 4.94398 12.903 4.94399L12.8051 4.92355C12.6237 5.79258 12.5626 6.29101 12.5195 6.64213L15.6368 1.25935ZM15.6368 1.25935H15.6502C16.2491 1.25935 16.8478 1.48753 17.3073 1.94737L17.378 1.87668L17.3073 1.94737C18.226 2.86676 18.226 4.34634 17.3073 5.26573L17.378 5.33642L17.3073 5.26574C17.2224 5.35067 17.072 5.45341 16.8688 5.56055C16.6672 5.66678 16.4196 5.77429 16.1453 5.87058C15.5946 6.06388 14.9389 6.22826 14.3138 6.35891C13.4613 6.53702 12.9696 6.59783 12.6204 6.64072L15.6368 1.25935ZM16.4594 6.74142C17.067 6.52784 17.5983 6.28839 17.9642 5.92229C19.238 4.64754 19.238 2.56834 17.9642 1.29359C17.3274 0.656236 16.4879 0.337891 15.65 0.337891C14.8119 0.337891 13.9758 0.656208 13.3388 1.29359L16.4594 6.74142ZM23.0962 11.1024H23.1962V11.0024H23.0962V11.1024ZM0.0617163 6.89293C0.0616882 6.89296 0.0616603 6.89299 0.0616322 6.89302L0.132592 6.96347L0.0617163 6.89293ZM11.1104 4.944L11.1105 4.94402C11.2886 5.79753 11.3494 6.29106 11.3923 6.64079C11.0434 6.59805 10.5502 6.53734 9.69649 6.35895C9.07147 6.22832 8.41885 6.06374 7.86812 5.8706C7.59376 5.77429 7.34508 5.66676 7.14248 5.5605C6.93808 5.45328 6.78681 5.35057 6.70211 5.26578L6.7021 5.26577C5.78338 4.34638 5.78338 2.8668 6.7021 1.94741L6.63136 1.87672L6.7021 1.9474C7.16156 1.48758 7.76113 1.25939 8.35993 1.25939H8.37032L8.37039 1.25938C8.96591 1.26197 9.56037 1.49016 10.0172 1.94737C10.102 2.03226 10.2048 2.18331 10.312 2.38734C10.4183 2.58961 10.5259 2.83798 10.6221 3.11248C10.8152 3.66357 10.98 4.31857 11.1104 4.944ZM0.940342 7.76854H9.88705V10.0752H0.940342V7.76854ZM10.9142 7.76854H13.0955L13.0957 22.7243H10.9144L10.9142 7.76854ZM14.1236 7.76854H23.0736V10.0752H14.1236V7.76854ZM1.84353 11.1024H9.88696L9.88714 22.7244H1.84371L1.84353 11.1024ZM14.1236 11.1024H22.1694V22.7244H14.1236V11.1024Z" fill="#157FF8" stroke="#157FF8" stroke-width="0.2"/>
</g>
<defs>
<clipPath id="clip0_1296_133314">
<rect width="24" height="24" fill="white"/>
</clipPath>
</defs>
</svg>
