<svg width="24" height="24" viewBox="0 0 24 24" fill="none" xmlns="http://www.w3.org/2000/svg">
<path d="M19.5625 3C20.4742 3 21.3485 3.3647 21.9932 4.01386C22.6378 4.66303 23 5.54348 23 6.46154V17.5385C23 18.4565 22.6378 19.337 21.9932 19.9861C21.3485 20.6353 20.4742 21 19.5625 21H4.4375C3.52582 21 2.65148 20.6353 2.00682 19.9861C1.36216 19.337 1 18.4565 1 17.5385V6.46154C1 5.54348 1.36216 4.66303 2.00682 4.01386C2.65148 3.3647 3.52582 3 4.4375 3H19.5625ZM21.625 8.48446L12.3492 13.9814C12.2616 14.0332 12.1635 14.0648 12.0622 14.0739C11.961 14.083 11.8589 14.0694 11.7635 14.034L11.6508 13.9814L2.375 8.48723V17.5385C2.375 18.0893 2.5923 18.6176 2.97909 19.0071C3.36589 19.3966 3.89049 19.6154 4.4375 19.6154H19.5625C20.1095 19.6154 20.6341 19.3966 21.0209 19.0071C21.4077 18.6176 21.625 18.0893 21.625 17.5385V8.48446ZM19.5625 4.38462H4.4375C3.89049 4.38462 3.36589 4.60343 2.97909 4.99293C2.5923 5.38243 2.375 5.9107 2.375 6.46154V6.87969L12 12.5815L21.625 6.87692V6.46154C21.625 5.9107 21.4077 5.38243 21.0209 4.99293C20.6341 4.60343 20.1095 4.38462 19.5625 4.38462Z" fill="#157FF8"/>
</svg>
