<svg width="24" height="24" viewBox="0 0 24 24" fill="none" xmlns="http://www.w3.org/2000/svg">
<g clip-path="url(#clip0_1296_133269)">
<path d="M16.197 6.74706L7.91977 15.0243C7.5389 15.4051 7.14808 15.781 6.77219 16.1719L6.75725 16.1868C6.48093 16.4631 6.46102 16.9709 6.75725 17.2423C7.05597 17.5161 7.51897 17.5385 7.81275 17.2423L16.09 8.96508C16.4708 8.58421 16.8616 8.20832 17.2375 7.81749L17.2525 7.80256C17.5288 7.52624 17.5487 7.0184 17.2525 6.74706C16.9563 6.47323 16.4932 6.45083 16.197 6.74706Z" fill="#157FF8"/>
<path d="M9.22996 9.21687C9.19013 9.25421 9.1503 9.29155 9.11047 9.3264C9.01339 9.40855 9.14781 9.31146 9.16274 9.28657C9.1503 9.30649 9.10798 9.32391 9.09056 9.33636C8.99845 9.39859 8.90137 9.44838 8.79931 9.49568C8.85905 9.47078 8.91879 9.44589 8.97854 9.421C8.81922 9.48821 8.65492 9.53302 8.48566 9.55791C8.55287 9.54795 8.61759 9.54049 8.6848 9.53053C8.51553 9.55293 8.34625 9.55293 8.17699 9.53053C8.2442 9.54049 8.30892 9.54795 8.37614 9.55791C8.20437 9.53302 8.04257 9.48821 7.88325 9.421C7.943 9.44589 8.00274 9.47079 8.06249 9.49568C7.96042 9.45087 7.86334 9.39859 7.77124 9.33636C7.75381 9.32391 7.71647 9.28906 7.69905 9.28657C7.71149 9.28906 7.84094 9.40357 7.76626 9.33636C7.72145 9.29653 7.67416 9.2567 7.63184 9.21438C7.5945 9.17704 7.55716 9.13472 7.52231 9.09489C7.48497 9.05009 7.44763 8.97043 7.56214 9.14717C7.54969 9.12725 7.53476 9.10983 7.52231 9.08991C7.45759 8.99283 7.40282 8.89077 7.35552 8.78373L7.4302 8.96296C7.36299 8.80364 7.31818 8.63934 7.29329 8.47008C7.30325 8.53729 7.31071 8.60201 7.32067 8.66922C7.29827 8.49995 7.29827 8.33067 7.32067 8.16141C7.31071 8.22862 7.30325 8.29334 7.29329 8.36056C7.31818 8.18879 7.36299 8.02699 7.4302 7.86767L7.35552 8.04691C7.40033 7.94484 7.45261 7.84776 7.51484 7.75566C7.52729 7.73823 7.56214 7.70089 7.56463 7.68347C7.56214 7.69591 7.44763 7.82536 7.51484 7.75068C7.55467 7.70587 7.5945 7.65858 7.63682 7.61626C7.67416 7.57892 7.71648 7.54158 7.75631 7.50673C7.80111 7.46939 7.88077 7.43205 7.70403 7.54656C7.72395 7.53411 7.74137 7.51918 7.76129 7.50673C7.85837 7.44201 7.96043 7.38724 8.06747 7.33994C8.00773 7.36484 7.94799 7.38973 7.88824 7.41462C8.04756 7.34741 8.21186 7.3026 8.38112 7.27771C8.31391 7.28767 8.24919 7.29513 8.18198 7.30509C8.35126 7.28269 8.52053 7.28269 8.68979 7.30509C8.62258 7.29513 8.55786 7.28767 8.49064 7.27771C8.66241 7.3026 8.82421 7.34741 8.98353 7.41462C8.92378 7.38973 8.86404 7.36483 8.80429 7.33994C8.90636 7.38475 9.00344 7.43703 9.09555 7.49926C9.11297 7.51171 9.15031 7.54656 9.16773 7.54905C9.15529 7.54656 9.02584 7.43205 9.10052 7.49926C9.14533 7.53909 9.19262 7.57892 9.23494 7.62124C9.27228 7.65858 9.30962 7.7009 9.34447 7.74073C9.38181 7.78553 9.41915 7.86519 9.30464 7.68845C9.31709 7.70837 9.33202 7.72579 9.34447 7.74571C9.40919 7.84279 9.46396 7.94485 9.51126 8.05189L9.43658 7.87266C9.50379 8.03198 9.5486 8.19628 9.57349 8.36555C9.56353 8.29833 9.55607 8.23361 9.54611 8.1664C9.56851 8.33568 9.56851 8.50495 9.54611 8.67421C9.55607 8.607 9.56353 8.54228 9.57349 8.47506C9.5486 8.64683 9.50379 8.80863 9.43658 8.96795L9.51126 8.78871C9.46645 8.89078 9.41417 8.98786 9.35194 9.07996C9.33949 9.09988 9.32456 9.11979 9.31211 9.13722C9.26232 9.20941 9.4316 8.99284 9.35194 9.08494C9.31211 9.12975 9.27228 9.17456 9.22996 9.21688C8.95614 9.49568 8.93124 9.99853 9.22996 10.2724C9.52619 10.5437 9.99418 10.5711 10.2855 10.2724C10.6489 9.90147 10.9227 9.41607 11.0074 8.90075C11.0995 8.32821 11.0298 7.78553 10.7858 7.25778C10.3527 6.31931 9.26978 5.69201 8.23923 5.79406C7.65176 5.8538 7.13894 6.06291 6.68839 6.44376C6.29508 6.77484 6.00383 7.26274 5.87938 7.76063C5.7574 8.25351 5.76487 8.80365 5.94659 9.28161C6.1557 9.83671 6.5042 10.2873 6.99708 10.6209C8.01521 11.3104 9.42667 11.1212 10.288 10.2749C10.5668 10.001 10.5842 9.49069 10.288 9.21935C9.98677 8.94055 9.52872 8.92561 9.23003 9.21686L9.22996 9.21687Z" fill="#157FF8"/>
<path d="M16.3916 16.3731C16.3517 16.4105 16.3119 16.4478 16.2721 16.4827C16.175 16.5648 16.3094 16.4677 16.3244 16.4428C16.3119 16.4627 16.2696 16.4802 16.2522 16.4926C16.1601 16.5548 16.063 16.6046 15.9609 16.6519C16.0207 16.627 16.0804 16.6021 16.1402 16.5772C15.9808 16.6445 15.8165 16.6893 15.6473 16.7142C15.7145 16.7042 15.7792 16.6967 15.8464 16.6868C15.6771 16.7092 15.5079 16.7092 15.3386 16.6868C15.4058 16.6967 15.4705 16.7042 15.5378 16.7142C15.366 16.6893 15.2042 16.6445 15.0449 16.5772C15.1046 16.6021 15.1644 16.627 15.2241 16.6519C15.122 16.6071 15.025 16.5548 14.9329 16.4926C14.9154 16.4802 14.8781 16.4453 14.8607 16.4428C14.8731 16.4453 15.0026 16.5598 14.9279 16.4926C14.8831 16.4528 14.8358 16.413 14.7935 16.3706C14.7561 16.3333 14.7188 16.291 14.6839 16.2511C14.6466 16.2063 14.6093 16.1267 14.7238 16.3034C14.7113 16.2835 14.6964 16.2661 14.6839 16.2462C14.6192 16.1491 14.5644 16.047 14.5171 15.94C14.542 15.9997 14.5669 16.0595 14.5918 16.1192C14.5246 15.9599 14.4798 15.7956 14.4549 15.6263C14.4649 15.6935 14.4723 15.7583 14.4823 15.8255C14.4599 15.6562 14.4599 15.4869 14.4823 15.3177C14.4723 15.3849 14.4649 15.4496 14.4549 15.5168C14.4798 15.345 14.5246 15.1832 14.5918 15.0239C14.5669 15.0837 14.542 15.1434 14.5171 15.2032C14.562 15.1011 14.6142 15.004 14.6765 14.9119C14.6889 14.8945 14.7238 14.8571 14.7263 14.8397C14.7238 14.8522 14.6093 14.9816 14.6765 14.9069C14.7163 14.8621 14.7561 14.8148 14.7984 14.7725C14.8358 14.7352 14.8781 14.6978 14.9179 14.663C14.9627 14.6256 15.0424 14.5883 14.8657 14.7028C14.8856 14.6904 14.903 14.6754 14.9229 14.663C15.02 14.5983 15.1221 14.5435 15.2291 14.4962C15.1694 14.5211 15.1096 14.546 15.0499 14.5709C15.2092 14.5037 15.3735 14.4589 15.5427 14.434C15.4755 14.4439 15.4108 14.4514 15.3436 14.4613C15.5129 14.4389 15.6821 14.4389 15.8514 14.4613C15.7842 14.4514 15.7195 14.4439 15.6523 14.434C15.824 14.4589 15.9858 14.5037 16.1451 14.5709C16.0854 14.546 16.0257 14.5211 15.9659 14.4962C16.068 14.541 16.1651 14.5933 16.2572 14.6555C16.2746 14.668 16.3119 14.7028 16.3294 14.7053C16.3169 14.7028 16.1875 14.5883 16.2621 14.6555C16.3069 14.6953 16.3542 14.7352 16.3966 14.7775C16.4339 14.8148 16.4712 14.8571 16.5061 14.897C16.5434 14.9418 16.5808 15.0214 16.4663 14.8447C16.4787 14.8646 16.4936 14.882 16.5061 14.902C16.5708 14.999 16.6256 15.1011 16.6729 15.2081C16.648 15.1484 16.6231 15.0887 16.5982 15.0289C16.6654 15.1882 16.7102 15.3525 16.7351 15.5218C16.7252 15.4546 16.7177 15.3899 16.7077 15.3226C16.7301 15.4919 16.7301 15.6612 16.7077 15.8305C16.7177 15.7632 16.7252 15.6985 16.7351 15.6313C16.7102 15.8031 16.6654 15.9649 16.5982 16.1242C16.6231 16.0645 16.648 16.0047 16.6729 15.945C16.6281 16.047 16.5758 16.1441 16.5136 16.2362C16.5011 16.2561 16.4862 16.276 16.4737 16.2935C16.4239 16.3657 16.5932 16.1491 16.5136 16.2412C16.4737 16.286 16.4339 16.3308 16.3916 16.3731C16.1178 16.6519 16.0929 17.1548 16.3916 17.4286C16.6878 17.7 17.1558 17.7273 17.4471 17.4286C17.8105 17.0577 18.0844 16.5723 18.169 16.057C18.2611 15.4845 18.1914 14.9418 17.9474 14.414C17.5143 13.4756 16.4314 12.8483 15.4009 12.9503C14.8134 13.0101 14.3006 13.2192 13.85 13.6C13.4567 13.9311 13.1654 14.419 13.041 14.9169C12.919 15.4098 12.9265 15.9599 13.1082 16.4379C13.3173 16.993 13.6658 17.4436 14.1587 17.7771C15.1768 18.4666 16.5883 18.2775 17.4496 17.4311C17.7284 17.1573 17.7458 16.6469 17.4496 16.3756C17.1459 16.0968 16.6879 16.0819 16.3916 16.3731L16.3916 16.3731Z" fill="#157FF8"/>
<path d="M22.5105 11.9937C22.5105 12.5015 22.4757 13.0093 22.4085 13.5146C22.4184 13.4474 22.4259 13.3827 22.4359 13.3155C22.3014 14.2938 22.0426 15.2497 21.6592 16.1583L21.7339 15.9791C21.5148 16.4994 21.2559 17.0047 20.9597 17.4851C20.8153 17.7216 20.661 17.9531 20.4967 18.1797C20.4544 18.2369 20.4145 18.2942 20.3722 18.3514C20.3523 18.3788 20.3324 18.4037 20.3125 18.4286C20.2229 18.5456 20.4071 18.3066 20.3399 18.3937C20.2527 18.5058 20.1631 18.6153 20.071 18.7223C19.7101 19.1505 19.3168 19.5513 18.8961 19.9197C18.789 20.0118 18.682 20.1039 18.5725 20.1935C18.5227 20.2359 18.4704 20.2757 18.4206 20.3155C18.3161 20.4002 18.5077 20.2508 18.4679 20.2782C18.438 20.3006 18.4082 20.3255 18.3758 20.3479C18.1493 20.5172 17.9153 20.679 17.6763 20.8333C17.1411 21.1768 16.576 21.4731 15.9885 21.7195C16.0483 21.6946 16.108 21.6697 16.1678 21.6448C15.2592 22.0257 14.3008 22.2871 13.325 22.4215C13.3922 22.4115 13.4569 22.4041 13.5241 22.3941C12.516 22.5285 11.4903 22.5285 10.4822 22.3941C10.5494 22.4041 10.6141 22.4115 10.6813 22.4215C9.703 22.2871 8.7471 22.0282 7.83849 21.6448C7.89824 21.6697 7.95798 21.6946 8.01772 21.7195C7.49744 21.5004 6.99213 21.2416 6.51168 20.9453C6.27519 20.8009 6.04369 20.6466 5.81714 20.4823C5.75989 20.44 5.70264 20.4001 5.64538 20.3578C5.618 20.3379 5.59311 20.318 5.56821 20.2981C5.45122 20.2085 5.69019 20.3927 5.60306 20.3255C5.49105 20.2383 5.38151 20.1487 5.27447 20.0566C4.84631 19.6957 4.44552 19.3024 4.07709 18.8817C3.98498 18.7746 3.89288 18.6676 3.80326 18.5581C3.76094 18.5083 3.72111 18.456 3.68128 18.4062C3.59665 18.3017 3.74601 18.4933 3.71862 18.4535C3.69622 18.4236 3.67133 18.3938 3.64893 18.3614C3.47965 18.1349 3.31785 17.9009 3.16351 17.6619C2.81998 17.1267 2.52374 16.5616 2.27729 15.9742L2.35197 16.1534C1.97111 15.2448 1.70974 14.2864 1.57532 13.3106C1.58528 13.3778 1.59275 13.4425 1.60271 13.5097C1.46828 12.5016 1.46828 11.4759 1.60271 10.4678C1.59275 10.535 1.58528 10.5997 1.57532 10.6669C1.70975 9.68862 1.96864 8.73271 2.35197 7.8241L2.27729 8.00333C2.49636 7.48305 2.75525 6.97774 3.05149 6.49729C3.19587 6.2608 3.35021 6.0293 3.51451 5.80275C3.55683 5.7455 3.59666 5.68825 3.63897 5.63099C3.65889 5.60361 3.6788 5.57872 3.69872 5.55382C3.78834 5.43683 3.60413 5.6758 3.67134 5.58867C3.75846 5.47666 3.84808 5.36712 3.94018 5.26008C4.30114 4.83192 4.69443 4.43113 5.11512 4.0627C5.22217 3.97059 5.3292 3.87849 5.43874 3.78887C5.48853 3.74655 5.5408 3.70672 5.59059 3.66689C5.69514 3.58226 5.50346 3.73162 5.54329 3.70423C5.57316 3.68183 5.60303 3.65694 5.63539 3.63454C5.86192 3.46526 6.09591 3.30346 6.33488 3.14912C6.8701 2.80559 7.43517 2.50935 8.02264 2.2629C7.9629 2.2878 7.90316 2.31269 7.84341 2.33758C8.75202 1.95672 9.71043 1.69535 10.6862 1.56094C10.619 1.57089 10.5543 1.57836 10.4871 1.58832C11.4952 1.45389 12.5209 1.45389 13.529 1.58832C13.4618 1.57836 13.3971 1.57089 13.3299 1.56094C14.3082 1.69536 15.2641 1.95425 16.1727 2.33758C16.113 2.31269 16.0532 2.28779 15.9935 2.2629C16.5138 2.48197 17.0191 2.74086 17.4995 3.0371C17.736 3.18148 17.9675 3.33582 18.194 3.50012C18.2513 3.54244 18.3086 3.58227 18.3658 3.62458C18.3932 3.6445 18.4181 3.66441 18.443 3.68433C18.56 3.77395 18.321 3.58974 18.4081 3.65695C18.5201 3.74407 18.6297 3.83369 18.7367 3.92579C19.1649 4.28675 19.5657 4.68005 19.9341 5.10073C20.0262 5.20778 20.1183 5.31481 20.2079 5.42435C20.2502 5.47414 20.2901 5.52641 20.3299 5.5762C20.4145 5.68075 20.2652 5.48907 20.2926 5.5289C20.315 5.55877 20.3399 5.58864 20.3623 5.621C20.5315 5.84753 20.6933 6.08152 20.8477 6.32049C21.1912 6.85571 21.4875 7.42078 21.7339 8.00826L21.6592 7.82902C22.0401 8.73763 22.3014 9.69604 22.4359 10.6718C22.4259 10.6046 22.4184 10.5399 22.4085 10.4727C22.4757 10.978 22.5105 11.4859 22.5105 11.9937C22.5105 12.3845 22.8541 12.7579 23.2573 12.7405C23.6606 12.723 24.0041 12.4119 24.0041 11.9937C24.0016 10.7515 23.8124 9.49935 23.4291 8.31694C23.0557 7.16936 22.518 6.07157 21.816 5.09077C21.0891 4.07014 20.2278 3.18643 19.2345 2.42471C18.2811 1.69285 17.2157 1.12527 16.088 0.709546C14.923 0.281383 13.6808 0.0498813 12.4412 0.00258685C11.194 -0.0447122 9.92695 0.10714 8.72706 0.445689C7.57201 0.774283 6.45429 1.2796 5.45109 1.93927C4.45285 2.59397 3.54424 3.39306 2.78503 4.3166C1.98348 5.28993 1.35117 6.35536 0.870717 7.52037C0.405192 8.663 0.136356 9.87777 0.0417667 11.105C-0.0553167 12.3596 0.0542135 13.6392 0.352931 14.8639C0.636716 16.0339 1.10969 17.1715 1.73453 18.1996C2.3494 19.2128 3.12109 20.1487 4.0073 20.9354C4.90349 21.732 5.91165 22.4066 7.00693 22.8994C8.18437 23.4297 9.40666 23.7657 10.6887 23.9151C11.9408 24.0619 13.2128 23.9898 14.4475 23.7408C15.6375 23.4994 16.7975 23.0612 17.8579 22.4688C18.8935 21.8912 19.8544 21.147 20.6734 20.2881C21.4949 19.4293 22.1993 18.4411 22.7296 17.3756C23.2748 16.2804 23.6655 15.1054 23.8498 13.8956C23.9468 13.2633 24.0041 12.6285 24.0041 11.9887C24.0041 11.5979 23.6606 11.2245 23.2573 11.2419C22.8515 11.2643 22.5105 11.5755 22.5105 11.9937L22.5105 11.9937Z" fill="#157FF8"/>
</g>
<defs>
<clipPath id="clip0_1296_133269">
<rect width="24" height="24" fill="white"/>
</clipPath>
</defs>
</svg>
