<svg width="24" height="24" viewBox="0 0 24 24" fill="none" xmlns="http://www.w3.org/2000/svg">
<path d="M21.6748 14.6645L20.1397 13.352C20.2123 12.9066 20.2498 12.452 20.2498 11.9973C20.2498 11.5426 20.2123 11.0879 20.1397 10.6426L21.6748 9.33008C21.7906 9.23095 21.8735 9.09893 21.9124 8.95156C21.9513 8.80419 21.9445 8.64846 21.8928 8.50508L21.8717 8.44414C21.4491 7.26295 20.8162 6.16797 20.0037 5.21211L19.9615 5.16289C19.863 5.047 19.7316 4.96369 19.5847 4.92394C19.4379 4.88419 19.2824 4.88987 19.1389 4.94023L17.2334 5.61758C16.5303 5.04102 15.7451 4.58633 14.8967 4.26758L14.5287 2.27539C14.501 2.12549 14.4282 1.98758 14.3202 1.87999C14.2122 1.77241 14.074 1.70023 13.924 1.67305L13.8607 1.66133C12.6397 1.44102 11.3553 1.44102 10.1342 1.66133L10.0709 1.67305C9.9209 1.70023 9.78271 1.77241 9.6747 1.87999C9.56669 1.98758 9.49398 2.12549 9.46622 2.27539L9.0959 4.27695C8.25424 4.59577 7.47043 5.05022 6.77559 5.62227L4.85606 4.94023C4.71254 4.88947 4.55698 4.88359 4.41003 4.92336C4.26309 4.96313 4.13173 5.04667 4.0334 5.16289L3.99122 5.21211C3.17968 6.16865 2.54694 7.26345 2.12325 8.44414L2.10215 8.50508C1.99668 8.79805 2.0834 9.12617 2.32012 9.33008L3.87403 10.6566C3.80137 11.0973 3.76622 11.5473 3.76622 11.9949C3.76622 12.4449 3.80137 12.8949 3.87403 13.3332L2.32012 14.6598C2.20433 14.7589 2.12146 14.8909 2.08252 15.0383C2.04359 15.1857 2.05043 15.3414 2.10215 15.4848L2.12325 15.5457C2.54747 16.727 3.17559 17.8168 3.99122 18.7777L4.0334 18.827C4.13197 18.9428 4.26333 19.0262 4.41019 19.0659C4.55704 19.1057 4.7125 19.1 4.85606 19.0496L6.77559 18.3676C7.47403 18.9418 8.2545 19.3965 9.0959 19.7129L9.46622 21.7145C9.49398 21.8644 9.56669 22.0023 9.6747 22.1098C9.78271 22.2174 9.9209 22.2896 10.0709 22.3168L10.1342 22.3285C11.3665 22.55 12.6284 22.55 13.8607 22.3285L13.924 22.3168C14.074 22.2896 14.2122 22.2174 14.3202 22.1098C14.4282 22.0023 14.501 21.8644 14.5287 21.7145L14.8967 19.7223C15.7448 19.4044 16.5344 18.9482 17.2334 18.3723L19.1389 19.0496C19.2824 19.1004 19.438 19.1063 19.5849 19.0665C19.7318 19.0267 19.8632 18.9432 19.9615 18.827L20.0037 18.7777C20.8193 17.8145 21.4475 16.727 21.8717 15.5457L21.8928 15.4848C21.9982 15.1965 21.9115 14.8684 21.6748 14.6645ZM18.4756 10.9191C18.5342 11.273 18.5647 11.6363 18.5647 11.9996C18.5647 12.3629 18.5342 12.7262 18.4756 13.0801L18.3209 14.0199L20.0717 15.5176C19.8063 16.129 19.4712 16.7079 19.0732 17.2426L16.8982 16.4715L16.1623 17.0762C15.6022 17.5355 14.9787 17.8965 14.3037 18.1496L13.4107 18.4848L12.9912 20.7582C12.3293 20.8332 11.661 20.8332 10.999 20.7582L10.5795 18.4801L9.69356 18.1402C9.02559 17.8871 8.4045 17.5262 7.84903 17.0691L7.11309 16.4621L4.92403 17.2402C4.52559 16.7035 4.19278 16.1246 3.92559 15.5152L5.69512 14.0035L5.54278 13.066C5.48653 12.7168 5.45606 12.3559 5.45606 11.9996C5.45606 11.641 5.48418 11.2824 5.54278 10.9332L5.69512 9.9957L3.92559 8.48398C4.19043 7.87227 4.52559 7.2957 4.92403 6.75898L7.11309 7.53711L7.84903 6.93008C8.4045 6.47305 9.02559 6.11211 9.69356 5.85898L10.5818 5.52383L11.0014 3.2457C11.66 3.1707 12.3326 3.1707 12.9936 3.2457L13.4131 5.51914L14.3061 5.8543C14.9787 6.10742 15.6045 6.46836 16.1647 6.92773L16.9006 7.53242L19.0756 6.76133C19.474 7.29805 19.8068 7.87695 20.074 8.48633L18.3232 9.98398L18.4756 10.9191ZM11.9998 7.64023C9.72168 7.64023 7.87481 9.48711 7.87481 11.7652C7.87481 14.0434 9.72168 15.8902 11.9998 15.8902C14.2779 15.8902 16.1248 14.0434 16.1248 11.7652C16.1248 9.48711 14.2779 7.64023 11.9998 7.64023ZM13.8561 13.6215C13.6126 13.8656 13.3233 14.0593 13.0047 14.1912C12.6861 14.3231 12.3446 14.3908 11.9998 14.3902C11.299 14.3902 10.6404 14.116 10.1436 13.6215C9.8994 13.378 9.70578 13.0887 9.57385 12.7701C9.44192 12.4515 9.37427 12.11 9.37481 11.7652C9.37481 11.0645 9.64903 10.4059 10.1436 9.90898C10.6404 9.41211 11.299 9.14023 11.9998 9.14023C12.7006 9.14023 13.3592 9.41211 13.8561 9.90898C14.1002 10.1524 14.2938 10.4418 14.4258 10.7604C14.5577 11.0789 14.6253 11.4204 14.6248 11.7652C14.6248 12.466 14.3506 13.1246 13.8561 13.6215Z" fill="white"/>
</svg>
