<svg width="64" height="64" viewBox="0 0 64 64" fill="none" xmlns="http://www.w3.org/2000/svg">
<g clip-path="url(#clip0_873_92408)">
<path d="M25.0607 22.9393C24.4749 22.3536 23.5251 22.3536 22.9393 22.9393C22.3536 23.5251 22.3536 24.4749 22.9393 25.0607L29.8787 32L22.9393 38.9393C22.3536 39.5251 22.3536 40.4749 22.9393 41.0607C23.5251 41.6464 24.4749 41.6464 25.0607 41.0607L32 34.1213L38.9393 41.0607C39.5251 41.6464 40.4749 41.6464 41.0607 41.0607C41.6464 40.4749 41.6464 39.5251 41.0607 38.9393L34.1213 32L41.0607 25.0607C41.6464 24.4749 41.6464 23.5251 41.0607 22.9393C40.4749 22.3536 39.5251 22.3536 38.9393 22.9393L32 29.8787L25.0607 22.9393Z" fill="#F35C5C"/>
<path fill-rule="evenodd" clip-rule="evenodd" d="M64 32C64 49.6731 49.6731 64 32 64C14.3269 64 0 49.6731 0 32C0 14.3269 14.3269 0 32 0C49.6731 0 64 14.3269 64 32ZM61 32C61 48.0163 48.0163 61 32 61C15.9837 61 3 48.0163 3 32C3 15.9837 15.9837 3 32 3C48.0163 3 61 15.9837 61 32Z" fill="#F35C5C"/>
</g>
<defs>
<clipPath id="clip0_873_92408">
<rect width="64" height="64" fill="white"/>
</clipPath>
</defs>
</svg>
