<svg width="24" height="15" viewBox="0 0 24 15" fill="none" xmlns="http://www.w3.org/2000/svg">
    <path d="M5 9C4.44772 9 4 9.44771 4 10C4 10.5523 4.44772 11 5 11H8.5C9.05228 11 9.5 10.5523 9.5 10C9.5 9.44771 9.05228 9 8.5 9H5Z"
          fill="#1F1C34"/>
    <path fill-rule="evenodd" clip-rule="evenodd"
          d="M0 3C0 1.34314 1.34315 0 3 0H21C22.6569 0 24 1.34315 24 3V12.0001C24 13.657 22.6569 15.0001 21 15.0001H3C1.34314 15.0001 0 13.657 0 12.0001V3ZM3 2C2.44771 2 2 2.44772 2 3V4.5H22V3C22 2.44771 21.5523 2 21 2H3ZM2 12.0001V6.5H22V12.0001C22 12.5524 21.5523 13.0001 21 13.0001H3C2.44772 13.0001 2 12.5524 2 12.0001Z"
          fill="#1F1C34"/>
</svg>
