<svg width="24" height="17" viewBox="0 0 24 17" fill="none" xmlns="http://www.w3.org/2000/svg">
    <path d="M23.464 5.41739H21.9265L20.7166 0.900379C20.6791 0.760215 20.5874 0.640506 20.4617 0.567868C20.3356 0.495229 20.1861 0.475835 20.0462 0.513215L0.405652 5.77629C0.265312 5.81402 0.14578 5.90587 0.0733171 6.0314C0.000678403 6.15728 -0.0188917 6.30661 0.0186643 6.44695L2.60277 16.088H2.60294C2.66553 16.3214 2.87851 16.4933 3.13169 16.4933H23.4636C23.766 16.4933 24.0111 16.2481 24.0111 15.9457V5.96481C24.0111 5.66244 23.766 5.41738 23.4636 5.41738L23.464 5.41739ZM2.58411 11.7899L1.2179 6.69242L2.58411 6.32624V11.7899ZM19.8005 1.71279L20.7927 5.41748H19.8863L19.634 4.47513C19.5559 4.18316 19.2567 4.01056 18.9648 4.08743C18.6099 4.18211 18.2569 3.9783 18.1613 3.62409C18.0825 3.33283 17.7832 3.16056 17.491 3.23816L9.35968 5.41745L5.97603 5.41763L19.8005 1.71279ZM18.753 5.41766H13.5897L17.3314 4.41483C17.6352 4.87551 18.1438 5.16906 18.695 5.20169L18.753 5.41766ZM22.9163 15.3986H3.67883V6.51261H22.9163V15.3986Z"
          fill="black"/>
    <path d="M5.10358 13.3217C5.4636 13.3217 5.75627 13.6144 5.75627 13.9744C5.75627 14.2768 6.00133 14.522 6.3037 14.522L20.2925 14.5218C20.5949 14.5218 20.84 14.2766 20.84 13.9742C20.84 13.6142 21.1328 13.3215 21.4926 13.3215C21.795 13.3215 22.0401 13.0763 22.0401 12.7739V9.1364C22.0401 8.83403 21.795 8.58879 21.4926 8.58879C21.1326 8.58879 20.84 8.29612 20.84 7.93628C20.84 7.63392 20.5949 7.38867 20.2925 7.38867L6.3037 7.38885C6.00133 7.38885 5.75627 7.63409 5.75627 7.93646C5.75627 8.2963 5.46342 8.58896 5.10358 8.58896C4.80122 8.58896 4.55615 8.8342 4.55615 9.13657V12.7743C4.55598 13.0765 4.80122 13.3217 5.10358 13.3217ZM5.65101 9.59622C6.17497 9.42291 6.59003 9.00789 6.76334 8.48389H19.8328C20.0061 9.00785 20.4211 9.4229 20.9451 9.59622V12.3145C20.4212 12.4878 20.0059 12.9028 19.8328 13.4268H6.76334C6.59021 12.9029 6.17502 12.4878 5.65101 12.3145V9.59622Z"
          fill="black"/>
    <path d="M13.2976 12.9207C14.3808 12.9207 15.2621 12.0392 15.2621 10.9559C15.2621 9.87272 14.381 8.99121 13.2976 8.99121C12.2143 8.99121 11.333 9.87272 11.333 10.9559C11.3332 12.0392 12.2143 12.9207 13.2976 12.9207ZM13.2976 10.0864C13.7771 10.0864 14.1673 10.4765 14.1673 10.9559C14.1673 11.4353 13.7771 11.8255 13.2976 11.8255C12.818 11.8255 12.4278 11.4353 12.4278 10.9559C12.428 10.4766 12.818 10.0864 13.2976 10.0864Z"
          fill="black"/>
</svg>
