<svg width="22" height="22" viewBox="0 0 22 22" fill="none" xmlns="http://www.w3.org/2000/svg">
    <path fill-rule="evenodd" clip-rule="evenodd"
          d="M3.08111 0.606081C3.23869 0.238397 3.60023 0 4.00026 0H18.0003C18.4003 0 18.7618 0.238397 18.9194 0.606081L21.917 7.6005C21.9257 7.62031 21.9337 7.64046 21.941 7.66091C21.9851 7.78282 22.004 7.90835 22 8.03145V21C22 21.5523 21.5523 22 21 22H1C0.447715 22 0 21.5523 0 21L2.26186e-06 7.99741C2.68317e-05 7.9859 0.0002513 7.97437 0.000677627 7.96284C0.00568915 7.82566 0.0383321 7.69553 0.0932059 7.57786L3.08111 0.606081ZM12.6327 2H9.3673L8.65301 7H13.347L12.6327 2ZM15.3673 7L14.653 2H17.3409L19.4837 7H15.3673ZM13.5 9H8.5V11.5H13.5V9ZM6.5 9V12.5C6.5 13.0523 6.94772 13.5 7.5 13.5H14.5C15.0523 13.5 15.5 13.0523 15.5 12.5V9H20V20H2V9H6.5ZM6.6327 7L7.34699 2H4.65965L2.5168 7H6.6327Z"
          fill="#B1B1BD"/>
</svg>
