<svg width="16" height="16" viewBox="0 0 16 16" fill="none" xmlns="http://www.w3.org/2000/svg">
    <path fill-rule="evenodd" clip-rule="evenodd"
          d="M4.60349 3C4.60349 1.34315 5.94664 0 7.60349 0H8.5C10.1569 0 11.5 1.34315 11.5 3H14.5C15.0523 3 15.5 3.44772 15.5 4C15.5 4.55228 15.0523 5 14.5 5H14.4341L13.8748 13.2041C13.7675 14.7781 12.4594 16 10.8817 16H5.11828C3.54063 16 2.23255 14.7781 2.12523 13.2041L1.56586 5H1.5C0.947715 5 0.5 4.55228 0.5 4C0.5 3.44772 0.947715 3 1.5 3H4.60349ZM6.60349 3H9.5C9.5 2.44772 9.05228 2 8.5 2H7.60349C7.05121 2 6.60349 2.44772 6.60349 3ZM3.5705 5L4.1206 13.068C4.15637 13.5927 4.5924 14 5.11828 14H10.8817C11.4076 14 11.8436 13.5927 11.8794 13.068L12.4295 5H3.5705ZM6.44944 6.55683C7.00102 6.52891 7.4708 6.95342 7.49872 7.50499L7.72372 11.9494C7.75165 12.501 7.32714 12.9708 6.77556 12.9987C6.22398 13.0266 5.7542 12.6021 5.72628 12.0506L5.50128 7.60612C5.47336 7.05454 5.89786 6.58476 6.44944 6.55683ZM9.55056 6.55683C10.1021 6.58476 10.5266 7.05454 10.4987 7.60612L10.2737 12.0506C10.2458 12.6021 9.77602 13.0266 9.22444 12.9987C8.67286 12.9708 8.24835 12.501 8.27628 11.9494L8.50128 7.50499C8.5292 6.95342 8.99898 6.52891 9.55056 6.55683Z"
          fill="#B1B1BD"/>
</svg>
