<svg width="33" height="32" viewBox="0 0 33 32" fill="none" xmlns="http://www.w3.org/2000/svg">
<path d="M12.8158 9.36842C12.8158 8.55453 13.4756 7.89474 14.2895 7.89474C15.1034 7.89474 15.7632 8.55453 15.7632 9.36842V12.3158H18.7105C19.5244 12.3158 20.1842 12.9756 20.1842 13.7895C20.1842 14.6034 19.5244 15.2632 18.7105 15.2632H15.7632V18.2105C15.7632 19.0244 15.1034 19.6842 14.2895 19.6842C13.4756 19.6842 12.8158 19.0244 12.8158 18.2105V15.2632H9.86842C9.05453 15.2632 8.39474 14.6034 8.39474 13.7895C8.39474 12.9756 9.05453 12.3158 9.86842 12.3158H12.8158V9.36842Z" fill="#E2E2EA"/>
<path fill-rule="evenodd" clip-rule="evenodd" d="M21.5188 23.1029C19.5225 24.6548 17.0139 25.5789 14.2895 25.5789C7.77833 25.5789 2.5 20.3006 2.5 13.7895C2.5 7.27833 7.77833 2 14.2895 2C20.8006 2 26.0789 7.27833 26.0789 13.7895C26.0789 16.5139 25.1548 19.0225 23.6029 21.0188L30.0684 27.4843C30.6439 28.0598 30.6439 28.9929 30.0684 29.5684C29.4929 30.1439 28.5598 30.1439 27.9843 29.5684L21.5188 23.1029ZM23.1316 13.7895C23.1316 18.6728 19.1728 22.6316 14.2895 22.6316C9.40611 22.6316 5.44737 18.6728 5.44737 13.7895C5.44737 8.90611 9.40611 4.94737 14.2895 4.94737C19.1728 4.94737 23.1316 8.90611 23.1316 13.7895Z" fill="#E2E2EA"/>
</svg>
