<svg width="16" height="16" viewBox="0 0 16 16" fill="none" xmlns="http://www.w3.org/2000/svg">
<path fill-rule="evenodd" clip-rule="evenodd" d="M7.10079 3.32428C7.47398 3.7314 7.44648 4.36397 7.03936 4.73716L4.5708 7.00001H14C14.5523 7.00001 15 7.44772 15 8.00001C15 8.55229 14.5523 9.00001 14 9.00001H4.5708L7.03936 11.2629C7.44648 11.636 7.47398 12.2686 7.10079 12.6757C6.7276 13.0828 6.09503 13.1104 5.68791 12.7372L1.32428 8.73716C1.11765 8.54775 1 8.28031 1 8.00001C1 7.7197 1.11765 7.45226 1.32428 7.26285L5.68791 3.26285C6.09503 2.88966 6.7276 2.91716 7.10079 3.32428Z" fill="#B1B1BD"/>
</svg>
