<svg width="24" height="24" viewBox="0 0 24 24" fill="none" xmlns="http://www.w3.org/2000/svg">
<path d="M2 1C1.44772 1 1 1.44772 1 2C1 2.55228 1.44772 3 2 3H2.62169C3.03663 3 3.40847 3.25625 3.55618 3.644L6.8539 12.3005L5.65571 13.6984C4.5437 14.9958 5.46551 17 7.17422 17H20C20.5523 17 21 16.5523 21 16C21 15.4477 20.5523 15 20 15H7.17422L8.37242 13.6021C8.45999 13.4999 8.53602 13.3905 8.60017 13.2756L8.67682 13.2169C8.78707 13.2387 8.90047 13.25 9.01576 13.25H17.6697C18.3978 13.25 19.0498 12.7992 19.307 12.118L22.2295 4.37598C22.3164 4.14558 22.2847 3.88716 22.1447 3.68459C22.0046 3.48202 21.7741 3.36111 21.5278 3.36111H5.58862L5.42516 2.93201C4.98201 1.76875 3.86651 1 2.62169 1H2Z" fill="#1F1C34"/>
<path d="M9.91656 19.8885C9.91656 21.0544 8.97138 21.9996 7.80545 21.9996C6.63951 21.9996 5.69434 21.0544 5.69434 19.8885C5.69434 18.7225 6.63951 17.7773 7.80545 17.7773C8.97138 17.7773 9.91656 18.7225 9.91656 19.8885Z" fill="#1F1C34"/>
<path d="M20.4722 19.8885C20.4722 21.0544 19.527 21.9996 18.3611 21.9996C17.1952 21.9996 16.25 21.0544 16.25 19.8885C16.25 18.7225 17.1952 17.7773 18.3611 17.7773C19.527 17.7773 20.4722 18.7225 20.4722 19.8885Z" fill="#1F1C34"/>
</svg>
