<svg width="16" height="16" viewBox="0 0 16 16" fill="none" xmlns="http://www.w3.org/2000/svg">
<path d="M1.33301 8.66667C1.33301 5.52397 1.33301 3.95262 2.30932 2.97631C3.28563 2 4.85698 2 7.99968 2H9.14003C11.1893 2 12.2139 2 12.9797 2.43517C13.502 2.73193 13.9344 3.16431 14.2312 3.68659C14.6663 4.45246 14.6663 5.47708 14.6663 7.52632V7.52632C14.6663 9.57555 14.6663 10.6002 14.2312 11.366C13.9344 11.8883 13.502 12.3207 12.9797 12.6175C12.2139 13.0526 11.1893 13.0526 9.14002 13.0526H5.99685C5.67705 13.0526 5.51716 13.0526 5.36345 13.0669C4.69728 13.1287 4.06513 13.3896 3.54923 13.8156C3.43018 13.9139 3.31682 14.0266 3.0901 14.2522V14.2522C2.8109 14.5299 2.67129 14.6688 2.56912 14.7252C2.10016 14.9841 1.51224 14.7396 1.36507 14.2246C1.33301 14.1124 1.33301 13.9154 1.33301 13.5216V8.66667Z" stroke="#157FF8" stroke-width="1.08333" stroke-linejoin="round"/>
<mask id="path-2-inside-1_1762_11719" fill="white">
<ellipse cx="5" cy="7.66663" rx="1" ry="1"/>
</mask>
<path d="M4.75 7.66663C4.75 7.52856 4.86193 7.41663 5 7.41663V9.91663C6.24264 9.91663 7.25 8.90927 7.25 7.66663H4.75ZM5 7.41663C5.13807 7.41663 5.25 7.52856 5.25 7.66663H2.75C2.75 8.90927 3.75736 9.91663 5 9.91663V7.41663ZM5.25 7.66663C5.25 7.8047 5.13807 7.91663 5 7.91663V5.41663C3.75736 5.41663 2.75 6.42399 2.75 7.66663H5.25ZM5 7.91663C4.86193 7.91663 4.75 7.8047 4.75 7.66663H7.25C7.25 6.42399 6.24264 5.41663 5 5.41663V7.91663Z" fill="#157FF8" mask="url(#path-2-inside-1_1762_11719)"/>
<mask id="path-4-inside-2_1762_11719" fill="white">
<ellipse cx="8" cy="7.66663" rx="1" ry="1"/>
</mask>
<path d="M7.75 7.66663C7.75 7.52856 7.86193 7.41663 8 7.41663V9.91663C9.24264 9.91663 10.25 8.90927 10.25 7.66663H7.75ZM8 7.41663C8.13807 7.41663 8.25 7.52856 8.25 7.66663H5.75C5.75 8.90927 6.75736 9.91663 8 9.91663V7.41663ZM8.25 7.66663C8.25 7.8047 8.13807 7.91663 8 7.91663V5.41663C6.75736 5.41663 5.75 6.42399 5.75 7.66663H8.25ZM8 7.91663C7.86193 7.91663 7.75 7.8047 7.75 7.66663H10.25C10.25 6.42399 9.24264 5.41663 8 5.41663V7.91663Z" fill="#157FF8" mask="url(#path-4-inside-2_1762_11719)"/>
<circle cx="11" cy="7.66663" r="0.625" stroke="#157FF8" stroke-width="0.75"/>
</svg>
