<svg width="16" height="16" viewBox="0 0 16 16" fill="none" xmlns="http://www.w3.org/2000/svg">
<path d="M7.33264 4.33301C7.73047 4.33301 8.112 4.17497 8.3933 3.89367C8.67461 3.61236 8.83264 3.23083 8.83264 2.83301C8.83264 2.43518 8.67461 2.05365 8.3933 1.77235C8.112 1.49104 7.73047 1.33301 7.33264 1.33301C6.93482 1.33301 6.55329 1.49104 6.27198 1.77235C5.99068 2.05365 5.83264 2.43518 5.83264 2.83301C5.83264 3.23083 5.99068 3.61236 6.27198 3.89367C6.55329 4.17497 6.93482 4.33301 7.33264 4.33301ZM11.666 8.33301C11.4008 8.33301 11.1464 8.43836 10.9589 8.6259C10.7713 8.81344 10.666 9.06779 10.666 9.33301V9.44734C10.666 9.53575 10.7011 9.62053 10.7636 9.68304C10.8261 9.74556 10.9109 9.78067 10.9993 9.78067C11.0877 9.78067 11.1725 9.74556 11.235 9.68304C11.2975 9.62053 11.3326 9.53575 11.3326 9.44734V9.33301C11.3326 9.2446 11.3678 9.15982 11.4303 9.09731C11.4928 9.03479 11.5776 8.99967 11.666 8.99967C11.7544 8.99967 11.8392 9.03479 11.9017 9.09731C11.9642 9.15982 11.9993 9.2446 11.9993 9.33301V14.315C11.9993 14.4034 12.0344 14.4882 12.0969 14.5507C12.1595 14.6132 12.2442 14.6483 12.3326 14.6483C12.421 14.6483 12.5058 14.6132 12.5683 14.5507C12.6309 14.4882 12.666 14.4034 12.666 14.315V9.33301C12.666 9.06779 12.5606 8.81344 12.3731 8.6259C12.1855 8.43836 11.9312 8.33301 11.666 8.33301ZM9.90231 6.72601L9.33264 6.47734L9.86431 6.70301L9.90231 6.72601ZM10.311 7.08001C10.1951 6.94041 10.057 6.82081 9.90231 6.72601L11.9993 7.64234V7.61034V7.61101C12.031 7.97767 11.7476 8.30001 11.3663 8.33101C10.9883 8.36101 10.6556 8.09301 10.6193 7.73067V7.73001C10.6093 7.6712 10.5948 7.61326 10.576 7.55667C10.5176 7.3829 10.4277 7.22133 10.311 7.08001Z" fill="#B1B1BD"/>
<path fill-rule="evenodd" clip-rule="evenodd" d="M11.9995 7.61033L9.86446 6.70367C9.69734 6.6064 9.51874 6.53037 9.33279 6.47733V14C9.33273 14.171 9.26694 14.3355 9.14904 14.4594C9.03114 14.5832 8.87014 14.6571 8.69933 14.6656C8.52853 14.6741 8.36098 14.6167 8.23134 14.5051C8.10169 14.3936 8.01987 14.2365 8.00279 14.0663L7.66946 10.733C7.66725 10.711 7.66614 10.6888 7.66613 10.6667H6.99946C6.99946 10.6887 6.99846 10.711 6.99613 10.733L6.66279 14.0663C6.64571 14.2365 6.56389 14.3936 6.43425 14.5051C6.30461 14.6167 6.13706 14.6741 5.96625 14.6656C5.79544 14.6571 5.63444 14.5832 5.51654 14.4594C5.39864 14.3355 5.33286 14.171 5.33279 14V9.30633C4.77313 9.232 4.30279 9.007 3.95413 8.66467C3.75435 8.46887 3.5963 8.23463 3.48951 7.97609C3.38272 7.71754 3.32941 7.44004 3.33279 7.16033C3.33556 6.88144 3.39354 6.60585 3.50339 6.34948C3.61323 6.09312 3.77277 5.86104 3.97279 5.66667C4.40279 5.247 5.01579 5 5.75113 5H8.19113C9.84879 5 10.8391 5.574 11.3978 6.253C11.6175 6.51936 11.7863 6.82388 11.8958 7.15133C11.9445 7.298 11.9825 7.449 11.9988 7.60233V7.60733L11.9995 7.60933V7.61033ZM4.94313 7.731C5.02879 7.815 5.15346 7.89633 5.33279 7.947V6.39C5.16613 6.44067 5.04479 6.51967 4.95846 6.60367C4.8829 6.67806 4.8228 6.76666 4.78161 6.86437C4.74042 6.96208 4.71896 7.06697 4.71846 7.173C4.71646 7.38633 4.79579 7.58633 4.94313 7.731Z" fill="#B1B1BD"/>
</svg>
