<svg width="16" height="16" viewBox="0 0 16 16" fill="none" xmlns="http://www.w3.org/2000/svg">
<path d="M2.29531 3.72969L3.95938 2.06719C4.1625 1.86406 4.43437 1.75 4.72188 1.75C5.00938 1.75 5.28125 1.8625 5.48438 2.06719L7.27656 3.85625C7.47969 4.05938 7.59375 4.33281 7.59375 4.62031C7.59375 4.90938 7.48125 5.17969 7.27656 5.38438L5.87656 6.78594C6.19549 7.52904 6.65374 8.20421 7.22656 8.775C7.8 9.35156 8.47031 9.80625 9.21406 10.1281L10.6141 8.72656C10.8172 8.52344 11.0891 8.40938 11.3766 8.40938C11.5184 8.40885 11.6589 8.43663 11.7898 8.4911C11.9207 8.54557 12.0395 8.62562 12.1391 8.72656L13.9328 10.5156C14.1359 10.7188 14.25 10.9922 14.25 11.2797C14.25 11.5688 14.1375 11.8391 13.9328 12.0437L12.2703 13.7063C11.9234 14.0531 11.4453 14.2516 10.9547 14.2516C10.8531 14.2516 10.7547 14.2437 10.6547 14.2266C8.58594 13.8859 6.53281 12.7844 4.875 11.1281C3.21875 9.46875 2.11875 7.41563 1.775 5.34531C1.67656 4.75781 1.87344 4.15313 2.29531 3.72969ZM2.88281 5.15938C3.1875 7.00156 4.17813 8.83906 5.67031 10.3313C7.1625 11.8234 8.99844 12.8141 10.8406 13.1187C11.0719 13.1578 11.3094 13.0797 11.4781 12.9125L13.1109 11.2797L11.3797 9.54688L9.50781 11.4219L9.49375 11.4359L9.15625 11.3109C8.13293 10.9347 7.20365 10.3404 6.43283 9.56934C5.662 8.79825 5.06807 7.86877 4.69219 6.84531L4.56719 6.50781L6.45469 4.62187L4.72344 2.88906L3.09062 4.52187C2.92188 4.69062 2.84375 4.92813 2.88281 5.15938Z" fill="#B1B1BD"/>
</svg>
