<svg width="16" height="16" viewBox="0 0 16 16" fill="none" xmlns="http://www.w3.org/2000/svg">
<path d="M14.6663 9.33333V6C14.6663 5.26362 14.0694 4.66667 13.333 4.66667H10.6663M14.6663 9.33333V12.6667C14.6663 13.403 14.0694 14 13.333 14H2.66634C1.92996 14 1.33301 13.403 1.33301 12.6667V9.33333M14.6663 9.33333H10.6663M1.33301 9.33333V6C1.33301 5.26362 1.92996 4.66667 2.66634 4.66667H5.33301M1.33301 9.33333H5.33301M5.33301 9.33333V8M5.33301 9.33333V10.6667M5.33301 9.33333H10.6663M10.6663 9.33333V8M10.6663 9.33333V10.6667M10.6663 4.66667V3.33333C10.6663 2.59695 10.0694 2 9.33301 2H6.66634C5.92996 2 5.33301 2.59695 5.33301 3.33333V4.66667M10.6663 4.66667H5.33301" stroke="#157FF8" stroke-width="0.866667" stroke-linecap="round" stroke-linejoin="round"/>
</svg>
