<svg width="20" height="20" viewBox="0 0 20 20" fill="none" xmlns="http://www.w3.org/2000/svg">
<path d="M12.2486 5.25206C12.0959 5.40779 12.0104 5.61717 12.0104 5.83524C12.0104 6.05331 12.0959 6.26269 12.2486 6.41842L13.5815 7.75141C13.7373 7.90405 13.9466 7.98956 14.1647 7.98956C14.3828 7.98956 14.5922 7.90405 14.7479 7.75141L17.8887 4.61056C18.3077 5.53631 18.4345 6.56774 18.2524 7.56741C18.0702 8.56707 17.5878 9.48749 16.8692 10.206C16.1507 10.9245 15.2303 11.407 14.2307 11.5891C13.231 11.7713 12.1996 11.6444 11.2738 11.2255L5.51698 16.9823C5.18554 17.3138 4.73602 17.5 4.26731 17.5C3.79859 17.5 3.34907 17.3138 3.01763 16.9823C2.6862 16.6509 2.5 16.2014 2.5 15.7327C2.5 15.2639 2.6862 14.8144 3.01763 14.483L8.77446 8.72615C8.35554 7.8004 8.2287 6.76897 8.41084 5.7693C8.59298 4.76964 9.07545 3.84922 9.79396 3.13071C10.5125 2.41221 11.4329 1.92973 12.4326 1.74759C13.4322 1.56545 14.4636 1.69229 15.3894 2.11121L12.2569 5.24373L12.2486 5.25206Z" stroke="#1F1C34" stroke-width="1.5" stroke-linecap="round" stroke-linejoin="round"/>
</svg>
