<svg width="24" height="24" viewBox="0 0 24 24" fill="none" xmlns="http://www.w3.org/2000/svg">
<g clip-path="url(#clip0_1762_11774)">
<path d="M6.84085 4.50018C8.13822 4.57113 9.38148 3.97241 10.1349 2.91384C11.0477 1.63145 12.9523 1.63145 13.8651 2.91384C14.6185 3.97241 15.8618 4.57113 17.1592 4.50018C18.7309 4.41423 19.9184 5.90338 19.4849 7.41654C19.127 8.6656 19.4341 10.0109 20.2984 10.981C21.3456 12.1562 20.9217 14.0132 19.4684 14.6177C18.2687 15.1167 17.4084 16.1955 17.1888 17.4761C16.9229 19.0276 15.2068 19.854 13.8281 19.0946C12.69 18.4678 11.31 18.4678 10.1719 19.0946C8.79317 19.854 7.0771 19.0276 6.81116 17.4761C6.59164 16.1955 5.73128 15.1167 4.5316 14.6177C3.07825 14.0132 2.65442 12.1562 3.70156 10.981C4.56593 10.0109 4.87299 8.6656 4.51512 7.41654C4.08159 5.90338 5.26915 4.41423 6.84085 4.50018Z" stroke="#157FF8" stroke-width="1.5"/>
<path d="M12.75 8V7.25H11.25V8H12.75ZM11.25 11V11.75H12.75V11H11.25ZM11.25 8V11H12.75V8H11.25Z" fill="#157FF8"/>
<circle cx="12" cy="14" r="0.5" fill="#157FF8" stroke="#157FF8"/>
</g>
<defs>
<clipPath id="clip0_1762_11774">
<rect width="24" height="24" fill="white"/>
</clipPath>
</defs>
</svg>
