<svg width="16" height="16" viewBox="0 0 16 16" fill="none" xmlns="http://www.w3.org/2000/svg">
<g clip-path="url(#clip0_2413_28644)">
<path d="M12.7927 5.79274L10.207 3.20696C9.81643 2.81643 9.81643 2.18327 10.207 1.79274L11.2927 0.706956C11.6833 0.316432 12.3164 0.316431 12.707 0.706955L15.2927 3.29274C15.6833 3.68327 15.6833 4.31643 15.2927 4.70696L14.207 5.79274C13.8164 6.18327 13.1833 6.18327 12.7927 5.79274Z" fill="#6B6B7B"/>
<path d="M0 14.9998V12.4141C0 12.1488 0.105356 11.8945 0.292893 11.707L7.79289 4.20696C8.18342 3.81643 8.81658 3.81643 9.20711 4.20696L11.7929 6.79274C12.1834 7.18327 12.1834 7.81643 11.7929 8.20696L4.29289 15.707C4.10536 15.8945 3.851 15.9998 3.58579 15.9998H1C0.447715 15.9998 0 15.5521 0 14.9998Z" fill="#6B6B7B"/>
</g>
<defs>
<clipPath id="clip0_2413_28644">
<rect width="16" height="16" fill="white"/>
</clipPath>
</defs>
</svg>
