<svg width="24" height="24" viewBox="0 0 24 24" fill="none" xmlns="http://www.w3.org/2000/svg">
<path d="M2 11C2 7.22876 2 5.34315 3.17157 4.17157C4.34315 3 6.22876 3 10 3H14C17.7712 3 19.6569 3 20.8284 4.17157C22 5.34315 22 7.22876 22 11V11.5789C22 15.3502 22 17.2358 20.8284 18.4074C19.6569 19.5789 17.7712 19.5789 14 19.5789H8.99576C8.10952 19.5789 7.6664 19.5789 7.24743 19.6698C6.78274 19.7706 6.33974 19.9534 5.93923 20.2097C5.57811 20.4407 5.26396 20.7532 4.63564 21.3782V21.3782C3.8582 22.1516 3.46948 22.5383 3.14023 22.5849C2.77862 22.6361 2.41785 22.4861 2.19914 22.1936C2 21.9273 2 21.379 2 20.2824V11Z" stroke="white" stroke-width="1.3" stroke-linejoin="round"/>
<circle cx="7.5" cy="11.5" r="0.75" stroke="white" stroke-width="1.5"/>
<circle cx="12" cy="11.5" r="0.75" stroke="white" stroke-width="1.5"/>
<circle cx="16.5" cy="11.5" r="0.75" stroke="white" stroke-width="1.5"/>
</svg>
