<svg width="17" height="16" viewBox="0 0 17 16" fill="none" xmlns="http://www.w3.org/2000/svg">
<g clip-path="url(#clip0_1894_59349)">
<path fill-rule="evenodd" clip-rule="evenodd" d="M11.6922 12.6064C10.5236 13.4816 9.07234 14 7.5 14C3.63401 14 0.5 10.866 0.5 7C0.5 3.13401 3.63401 0 7.5 0C11.366 0 14.5 3.13401 14.5 7C14.5 8.57234 13.9816 10.0236 13.1064 11.1922L16.2071 14.2929C16.5976 14.6834 16.5976 15.3166 16.2071 15.7071C15.8166 16.0976 15.1834 16.0976 14.7929 15.7071L11.6922 12.6064ZM12.5 7C12.5 9.76142 10.2614 12 7.5 12C4.73858 12 2.5 9.76142 2.5 7C2.5 4.23858 4.73858 2 7.5 2C10.2614 2 12.5 4.23858 12.5 7Z" fill="#B1B1BD"/>
</g>
<defs>
<clipPath id="clip0_1894_59349">
<rect width="16" height="16" fill="white" transform="translate(0.5)"/>
</clipPath>
</defs>
</svg>
